<?xml version="1.0" standalone="no"?>
<!DOCTYPE svg PUBLIC "-//W3C//DTD SVG 1.1//EN" "http://www.w3.org/Graphics/SVG/1.1/DTD/svg11.dtd" >
<svg>
<metadata>
Created by FontForge 20090622 at Mon Apr 27 19:13:02 2020
 By deploy user
Copyright (c) 2016 by Thomas Gillett. All rights reserved. |DCNT
</metadata>
<defs>
<font id="Gordita-Bold" horiz-adv-x="680" >
  <font-face 
    font-family="Gordita"
    font-weight="700"
    font-stretch="normal"
    units-per-em="1000"
    panose-1="0 0 0 0 0 0 0 0 0 0"
    ascent="754"
    descent="-246"
    x-height="534"
    cap-height="783"
    bbox="-251 -358 1283 1186"
    underline-thickness="50"
    underline-position="-50"
    unicode-range="U+0020-U+FB04"
  />
<missing-glyph horiz-adv-x="799" 
d="M750 783v-783h-660v783h660zM691 63v662h-537z" />
    <glyph glyph-name="ff" unicode="ff" horiz-adv-x="817" 
d="M755 684q-45 0 -70 -24.5t-25 -69.5v-56h140v-133h-139v-401h-156v401h-227v-401h-156v401h-96v133h96v53q0 107 57 168.5t168 61.5q37 0 73 -11v-128q-20 6 -48 6q-45 0 -70 -24.5t-25 -69.5v-56h228v53q0 107 57 168.5t168 61.5q37 0 73 -11v-128q-19 6 -48 6z" />
    <glyph glyph-name="fi" unicode="fi" horiz-adv-x="734" 
d="M277 534h385v-534h-157v401h-227v-401h-156v401h-96v133h96v53q0 107 57 168.5t168 61.5q37 0 73 -11v-128q-20 6 -48 6q-45 0 -70 -24.5t-25 -69.5v-56zM582 624q-39 0 -67.5 28t-28.5 68t28.5 68.5t67.5 28.5q41 0 69.5 -28t28.5 -69q0 -40 -28.5 -68t-69.5 -28z" />
    <glyph glyph-name="fl" unicode="fl" horiz-adv-x="734" 
d="M505 815h157v-815h-157v401h-227v-401h-156v401h-96v133h96v53q0 107 57 168.5t168 61.5q37 0 73 -11v-128q-20 6 -48 6q-45 0 -70 -24.5t-25 -69.5v-56h228v281z" />
    <glyph glyph-name="ffi" unicode="ffi" horiz-adv-x="1118" 
d="M660 534h386v-534h-157v401h-228v-401h-156v401h-227v-401h-156v401h-96v133h96v53q0 107 57 168.5t168 61.5q37 0 73 -11v-128q-20 6 -48 6q-45 0 -70 -24.5t-25 -69.5v-56h228v53q0 107 57 168.5t168 61.5q37 0 73 -11v-128q-19 6 -48 6q-45 0 -70 -24.5t-25 -69.5v-56
zM966 624q-39 0 -67.5 28t-28.5 68t28.5 68.5t67.5 28.5q41 0 69.5 -28t28.5 -69q0 -40 -28.5 -68t-69.5 -28z" />
    <glyph glyph-name="ffl" unicode="ffl" horiz-adv-x="1117" 
d="M888 815h157v-815h-157v401h-227v-401h-156v401h-227v-401h-156v401h-96v133h96v53q0 107 57 168.5t168 61.5q37 0 73 -11v-128q-20 6 -48 6q-45 0 -70 -24.5t-25 -69.5v-56h228v53q0 107 57 168.5t168 61.5q37 0 73 -11v-128q-19 6 -48 6q-45 0 -70 -24.5t-25 -69.5v-56
h228v281z" />
    <glyph glyph-name=".notdef" horiz-adv-x="799" 
d="M750 783v-783h-660v783h660zM691 63v662h-537z" />
    <glyph glyph-name=".null" horiz-adv-x="0" 
 />
    <glyph glyph-name="nonmarkingreturn" horiz-adv-x="333" 
 />
    <glyph glyph-name="space" unicode=" " horiz-adv-x="251" 
 />
    <glyph glyph-name="exclam" unicode="!" horiz-adv-x="339" 
d="M98 271l-15 354v158h172v-158l-15 -354h-142zM170 -11q-39 0 -67.5 28t-28.5 68t28.5 69t67.5 29q40 0 69 -28.5t29 -69.5q0 -40 -28.5 -68t-69.5 -28z" />
    <glyph glyph-name="quotedbl" unicode="&#x22;" horiz-adv-x="511" 
d="M194 464l-13 -66h-80q-51 262 -51 290q0 40 25.5 65.5t65.5 25.5t65.5 -25.5t25.5 -65.5q0 -14 -13 -85zM423 464l-13 -66h-80q-51 262 -51 290q0 40 25.5 65.5t65.5 25.5t65.5 -25.5t25.5 -65.5q0 -14 -13 -85q-14 -84 -25 -139z" />
    <glyph glyph-name="numbersign" unicode="#" horiz-adv-x="844" 
d="M743 316v-114h-156l-45 -202h-125l46 202h-171l-45 -202h-125l45 202h-129v114h155l37 166h-129v115h155l42 187h125l-42 -187h171l43 187h124l-42 -187h130v-115h-156l-38 -166h130zM490 314l38 171h-174l-38 -171h174z" />
    <glyph glyph-name="dollar" unicode="$" horiz-adv-x="652" 
d="M609 232q0 -98 -64.5 -162.5t-177.5 -75.5v-96h-83v96q-93 9 -162 56.5t-100 123.5l138 72q38 -85 126 -104v183q-126 38 -174 89q-59 57 -59 143q0 93 66 156q65 64 165 76v102h83v-102q80 -10 139 -52.5t89 -112.5l-133 -73q-27 68 -96 89v-176q127 -39 185 -92.5
t58 -139.5zM213 567q0 -50 73 -78v155q-35 -7 -54 -27t-19 -50zM366 299v-158q37 8 59.5 29t22.5 50q0 26 -18 43.5t-64 35.5z" />
    <glyph glyph-name="percent" unicode="%" horiz-adv-x="889" 
d="M35 614q0 74 52 126t125 52t125 -52t52 -126q0 -73 -52 -125t-125 -52t-125 52t-52 125zM121 0l510 783h135l-509 -783h-136zM150 614q0 -25 18.5 -43t43.5 -18t43.5 18t18.5 43q0 26 -18 44t-44 18t-44 -18t-18 -44zM500 172q0 74 52 126t125 52t125 -52t52 -126
q0 -73 -52 -125q-52 -51 -125 -51t-125 51q-52 52 -52 125zM615 172q0 -25 18.5 -43t43.5 -18t43.5 18t18.5 43q0 26 -18 44t-44 18t-44 -18t-18 -44z" />
    <glyph glyph-name="ampersand" unicode="&#x26;" horiz-adv-x="750" 
d="M733 0h-191l-44 50q-91 -61 -200 -61q-108 0 -181 55t-73 162q0 114 140 206l-30 33q-59 65 -59 140q0 86 65 148q64 63 162 63q92 0 159 -61q69 -60 69 -145q0 -111 -109 -175l-47 -28l113 -129q40 64 63 151l132 -31q-28 -129 -100 -228zM325 655q-33 0 -56 -21
t-23 -49q0 -30 29 -62l33 -37l57 34q38 23 38 65q0 28 -23 49t-55 21zM309 129q53 0 98 27l-137 157q-69 -43 -69 -92q0 -46 31 -69t77 -23z" />
    <glyph glyph-name="quotesingle" unicode="'" horiz-adv-x="282" 
d="M194 464l-13 -66h-80q-51 262 -51 290q0 40 25.5 65.5t65.5 25.5t65.5 -25.5t25.5 -65.5q0 -14 -13 -85z" />
    <glyph glyph-name="parenleft" unicode="(" horiz-adv-x="412" 
d="M392 -46l-68 -91q-135 76 -207 199.5t-72 287.5v37q0 163 72 286.5t207 199.5l68 -91q-206 -150 -206 -396v-36q0 -247 206 -396z" />
    <glyph glyph-name="parenright" unicode=")" horiz-adv-x="409" 
d="M84 -137l-65 88q204 149 204 399v36q0 250 -204 399l65 88q136 -76 208 -199.5t72 -286.5v-37q0 -164 -72 -287.5t-208 -199.5z" />
    <glyph glyph-name="asterisk" unicode="*" horiz-adv-x="503" 
d="M333 377l-82 111l-81 -111l-82 60l79 110l-129 43l32 96l128 -42v139h105v-139l129 42l33 -96l-129 -43l79 -110z" />
    <glyph glyph-name="plus" unicode="+" horiz-adv-x="620" 
d="M387 97h-149v195h-195v146h195v194h149v-194h190v-146h-190v-195z" />
    <glyph glyph-name="comma" unicode="," horiz-adv-x="321" 
d="M269 72v-5q0 -66 -37.5 -128t-103.5 -107l-59 57q72 47 106 122q-18 -7 -35 -7q-39 0 -64 26.5t-25 68.5q0 43 30.5 73.5t73.5 30.5q51 0 82.5 -36t31.5 -95z" />
    <glyph glyph-name="hyphen" unicode="-" horiz-adv-x="458" 
d="M394 402v-154h-330v154h330z" />
    <glyph glyph-name="period" unicode="." horiz-adv-x="314" 
d="M157 -12q-44 0 -76 32t-32 76q0 45 31.5 77t76.5 32t76.5 -32t31.5 -77q0 -44 -32 -76t-76 -32z" />
    <glyph glyph-name="slash" unicode="/" horiz-adv-x="562" 
d="M388 815h145l-358 -820h-144z" />
    <glyph glyph-name="zero" unicode="0" horiz-adv-x="768" 
d="M49 392q0 107 35 197q36 89 114 147q79 59 188 59q108 0 184 -58q150 -110 150 -341q0 -107 -36 -197t-114.5 -149.5t-186.5 -59.5q-82 0 -147.5 33t-106.5 91q-80 117 -80 278zM228 504q-26 -73 -12.5 -166t69.5 -151q41 -41 99 -41t99 41q41 42 57 96q26 76 12.5 167.5
t-69.5 147.5q-41 42 -99 42t-99 -42q-40 -40 -57 -94z" />
    <glyph glyph-name="one" unicode="1" horiz-adv-x="494" 
d="M240 590l-165 -94l-72 131l266 156h133v-783h-162v590z" />
    <glyph glyph-name="two" unicode="2" horiz-adv-x="675" 
d="M47 0v142l273 224q71 58 101 96q28 35 28 79q0 42 -32 72t-80 30q-97 0 -136 -98l-149 63q29 93 106 139q80 48 180 48q126 0 202 -73q76 -72 76 -180q0 -84 -45 -142q-42 -57 -157 -147l-132 -105h338v-148h-573z" />
    <glyph glyph-name="three" unicode="3" horiz-adv-x="661" 
d="M611 225q0 -103 -81 -170q-80 -67 -202 -67q-104 0 -181 43t-112 124l142 73q20 -43 61 -66.5t94 -23.5q52 0 83.5 25t31.5 66q0 44 -30.5 68t-84.5 24h-83v150h74q51 0 80.5 24t29.5 64q0 38 -30.5 61.5t-82.5 23.5q-88 0 -128 -87l-145 69q33 81 106.5 125t172.5 44
q119 0 195 -62q75 -61 75 -163q0 -108 -107 -165v-1q64 -27 93 -70t29 -109z" />
    <glyph glyph-name="four" unicode="4" horiz-adv-x="729" 
d="M417 155h-386v159l351 469h193v-482h111v-145h-111v-156h-158v155zM417 593l-218 -292h218v292z" />
    <glyph glyph-name="five" unicode="5" horiz-adv-x="659" 
d="M613 262q0 -124 -83 -198q-82 -73 -209 -73q-203 0 -282 153l138 82q45 -84 148 -84q56 0 90.5 31.5t34.5 84.5q0 51 -35.5 81.5t-95.5 30.5t-107 -46l-152 62l57 397h461v-147h-332l-25 -176q64 52 141 52q108 0 179 -66q72 -64 72 -184z" />
    <glyph glyph-name="six" unicode="6" horiz-adv-x="695" 
d="M221 430q68 80 173 80q113 0 183 -73q72 -72 72 -176q0 -124 -88 -197q-89 -74 -204 -74q-155 0 -241 110q-66 86 -66 266q0 192 91 310t263 118q122 0 222 -78l-84 -124q-69 54 -141 54q-87 0 -132 -62q-44 -62 -48 -154zM221 256q0 -51 40 -85q41 -35 94 -35
q56 0 93 34q38 35 38 85q0 53 -37 85.5t-95 32.5q-56 0 -94.5 -32t-38.5 -85z" />
    <glyph glyph-name="seven" unicode="7" horiz-adv-x="632" 
d="M419 636h-388v147h574v-139l-346 -644h-182z" />
    <glyph glyph-name="eight" unicode="8" horiz-adv-x="686" 
d="M635 221q0 -105 -84 -168t-209 -63q-124 0 -208 63q-84 65 -84 165q0 128 137 188v1q-55 22 -88 68.5t-33 105.5q0 92 76 153t201 61q124 0 200 -61t76 -153q0 -59 -33 -105.5t-88 -68.5v-1q137 -59 137 -185zM457 561q0 43 -32 70.5t-83 27.5q-50 0 -82 -27.5t-32 -69.5
q0 -43 33.5 -70.5t80.5 -27.5t81 27t34 70zM472 231q0 45 -39 71q-40 26 -90 26q-54 0 -92 -26.5t-38 -70.5q0 -45 36 -75t92 -30q59 0 95 29.5t36 75.5z" />
    <glyph glyph-name="nine" unicode="9" horiz-adv-x="695" 
d="M478 354q-71 -83 -176 -83q-112 0 -184 73q-72 74 -72 178q0 124 88 197q88 75 204 75q78 0 139.5 -30t100.5 -80q67 -86 67 -271q0 -193 -88 -308q-87 -115 -255 -115q-128 0 -228 78l84 125q69 -54 144 -54q86 0 129 61q42 60 47 154zM474 526q0 50 -41 86t-93 36
q-54 0 -93 -36q-38 -35 -38 -85q0 -54 36.5 -87t94.5 -33q53 0 94 32q40 33 40 87z" />
    <glyph glyph-name="colon" unicode=":" horiz-adv-x="336" 
d="M168 330q-45 0 -76 31q-32 32 -32 76q0 46 31.5 78t76.5 32q46 0 77 -32t31 -78q0 -44 -32 -76q-31 -31 -76 -31zM168 -12q-44 0 -76 32t-32 76q0 46 31 77q32 32 77 32q44 0 76 -32q25 -22 30 -55.5t-6.5 -62.5t-39 -49t-60.5 -18z" />
    <glyph glyph-name="semicolon" unicode=";" horiz-adv-x="341" 
d="M169 330q-45 0 -76 31t-31 76q0 46 31 77q32 32 76 32q46 0 77.5 -32t31.5 -77q0 -44 -32 -76q-31 -31 -77 -31zM279 72v-5q0 -66 -37.5 -128t-103.5 -107l-59 57q72 47 106 122q-18 -7 -35 -7q-39 0 -64 26.5t-25 68.5q0 43 30.5 73.5t73.5 30.5q51 0 82.5 -36t31.5 -95
z" />
    <glyph glyph-name="less" unicode="&#x3c;" horiz-adv-x="634" 
d="M560 665v-148l-346 -150v-2l346 -150v-152l-523 240v123z" />
    <glyph glyph-name="equal" unicode="=" horiz-adv-x="633" 
d="M565 575v-145h-497v145h497zM565 301v-146h-497v146h497z" />
    <glyph glyph-name="greater" unicode="&#x3e;" horiz-adv-x="634" 
d="M420 363v3l-346 150v149l523 -239v-123l-523 -240v151z" />
    <glyph glyph-name="question" unicode="?" horiz-adv-x="552" 
d="M268 649q-67 0 -103 -75l-135 71q30 69 96.5 109.5t145.5 40.5q106 0 174 -60q67 -58 67 -152q0 -63 -30 -106q-27 -42 -92 -94q-39 -31 -56.5 -58t-17.5 -61v-7h-152v33q0 42 17 74t57 68l48 42q63 56 63 100q0 33 -23 54t-59 21zM246 183q41 0 69.5 -28.5t28.5 -69.5
q0 -40 -28.5 -68t-69.5 -28q-39 0 -67.5 28t-28.5 68t28.5 69t67.5 29z" />
    <glyph glyph-name="at" unicode="@" horiz-adv-x="866" 
d="M622 118q-37 0 -68.5 16t-44.5 42q-20 -26 -53.5 -42.5t-64.5 -16.5q-68 0 -115 53t-47 117q0 94 58 161q59 69 146 69q29 0 55.5 -15.5t37.5 -40.5l9 51h116l-42 -249q-10 -55 31 -55t77 49q37 49 37 122q0 116 -82 192q-83 77 -213 77q-137 0 -236 -99
q-98 -98 -98 -236q0 -137 88 -229q89 -93 240 -93q52 0 108.5 18.5t100.5 51.5l39 -61q-41 -37 -113 -59q-72 -24 -135 -24q-178 0 -291 113q-113 115 -113 282q0 170 120 289q122 119 289 119q159 0 265 -97q107 -96 107 -244q0 -114 -62 -188q-61 -73 -146 -73zM443 407
q-39 0 -67 -33t-27 -75q1 -29 20 -50.5t47 -21.5q38 0 66 33q28 34 28 77q0 31 -18.5 50.5t-48.5 19.5z" />
    <glyph glyph-name="A" unicode="A" horiz-adv-x="792" 
d="M162 0h-163l299 783h195l300 -783h-167l-59 158h-347zM394 626l-118 -318h236z" />
    <glyph glyph-name="B" unicode="B" horiz-adv-x="744" 
d="M700 216q0 -110 -81.5 -163t-197.5 -53h-330v783h325q102 0 176 -54t74 -153q0 -110 -110 -167v-2q74 -28 109 -72.5t35 -118.5zM507 551q0 83 -113 83h-145v-169h134q124 0 124 86zM542 237q0 88 -128 88h-165v-175h170q123 0 123 87z" />
    <glyph glyph-name="C" unicode="C" horiz-adv-x="832" 
d="M43 391q0 169 118 286q118 118 288 118q119 0 217 -62q99 -61 138 -169l-148 -68q-25 66 -80.5 103.5t-127.5 37.5q-101 0 -169 -71t-68 -173q0 -105 67 -176q68 -71 170 -71q71 0 127 39.5t83 105.5l149 -69q-39 -108 -141 -171q-101 -62 -220 -62q-172 0 -287 115
q-116 116 -116 287z" />
    <glyph glyph-name="D" unicode="D" horiz-adv-x="818" 
d="M773 393q0 -177 -120 -285t-325 -108h-237v783h240q206 0 324 -103t118 -287zM607 393q0 113 -76 174q-77 63 -196 63h-82v-477h80q124 0 199 63q75 64 75 177z" />
    <glyph glyph-name="E" unicode="E" horiz-adv-x="663" 
d="M91 783h513v-152h-353v-159h316v-152h-316v-169h355v-151h-515v783z" />
    <glyph glyph-name="F" unicode="F" horiz-adv-x="649" 
d="M253 463h317v-154h-317v-309h-162v783h516v-154h-354v-166z" />
    <glyph glyph-name="G" unicode="G" horiz-adv-x="857" 
d="M208 392q0 -103 68 -177q67 -73 173 -73q77 0 132 36t70 96h-238v147h407v-61q0 -117 -54 -204q-104 -168 -317 -168q-179 0 -293 116q-113 118 -113 287q0 170 119 287q120 117 289 117q136 0 228 -68q91 -67 123 -153l-143 -70q-23 57 -74 96q-51 42 -136 42
q-101 0 -171 -72q-70 -71 -70 -178z" />
    <glyph glyph-name="H" unicode="H" horiz-adv-x="834" 
d="M253 317v-317h-162v783h162v-309h328v309h162v-783h-162v317h-328z" />
    <glyph glyph-name="I" unicode="I" horiz-adv-x="345" 
d="M253 783v-783h-162v783h162z" />
    <glyph glyph-name="J" unicode="J" horiz-adv-x="622" 
d="M375 783h162v-545q0 -117 -74 -183q-74 -65 -183 -65q-184 0 -251 168l137 76q35 -89 111 -89q46 0 72 27.5t26 77.5v533z" />
    <glyph glyph-name="K" unicode="K" horiz-adv-x="736" 
d="M252 0h-161v783h161v-341l269 341h202l-299 -374l319 -409h-209l-282 372v-372z" />
    <glyph glyph-name="L" unicode="L" horiz-adv-x="604" 
d="M91 783h161v-629h335v-154h-496v783z" />
    <glyph glyph-name="M" unicode="M" horiz-adv-x="1046" 
d="M794 517l-218 -517h-108l-217 513h-1v-513h-159v783h209l222 -525l218 525h215v-783h-160v517h-1z" />
    <glyph glyph-name="N" unicode="N" horiz-adv-x="868" 
d="M251 540v-540h-160v783h185l340 -511v511h160v-783h-165z" />
    <glyph glyph-name="O" unicode="O" horiz-adv-x="899" 
d="M43 391q0 167 120 286q119 118 289 118q168 0 286 -116q118 -115 118 -284q0 -171 -120 -289q-118 -118 -288 -118q-168 0 -287 117q-118 117 -118 286zM279 566q-70 -71 -70 -174q0 -102 70 -175q71 -72 171 -72t171 72q70 73 70 175q0 103 -70 174q-71 72 -171 72
t-171 -72z" />
    <glyph glyph-name="P" unicode="P" horiz-adv-x="692" 
d="M662 532q0 -125 -79 -191q-79 -65 -207 -65h-123v-276h-162v783h291q123 0 201 -66q79 -64 79 -185zM499 528q0 51 -36 76.5t-95 25.5h-115v-203h116q57 0 93.5 26t36.5 75z" />
    <glyph glyph-name="Q" unicode="Q" horiz-adv-x="900" 
d="M858 95l-99 -115l-85 77q-104 -68 -226 -68q-169 0 -288 116q-117 117 -117 286q0 167 119 286q119 118 290 118q168 0 286 -116q118 -115 118 -284q0 -130 -74 -234zM450 144q52 0 101 23l-124 107l99 117l134 -121q31 55 31 122q0 100 -71 174q-70 73 -170 73
q-101 0 -171 -73q-71 -73 -71 -174t71 -175q70 -73 171 -73z" />
    <glyph glyph-name="R" unicode="R" horiz-adv-x="731" 
d="M693 0h-180l-162 281h-98v-281h-162v783h309q119 0 198 -65q79 -64 79 -183q0 -170 -161 -229zM253 630v-199h135q54 0 89.5 26t35.5 75t-34.5 73.5t-91.5 24.5h-134z" />
    <glyph glyph-name="S" unicode="S" horiz-adv-x="652" 
d="M338 473q144 -41 209 -96.5t65 -146.5q0 -108 -76 -175t-211 -67q-109 0 -189.5 49t-116.5 135l140 72q24 -52 68 -80.5t103 -28.5q52 0 85.5 23.5t33.5 59.5q0 35 -31 54q-31 22 -117 47q-136 41 -191 95q-60 58 -60 145q0 103 80 169q79 67 193 67q98 0 169.5 -44
t105.5 -125l-134 -73q-41 96 -148 96q-47 0 -75.5 -22t-28.5 -58q0 -34 28.5 -55.5t97.5 -40.5z" />
    <glyph glyph-name="T" unicode="T" horiz-adv-x="673" 
d="M256 0v626h-235v157h631v-157h-235v-626h-161z" />
    <glyph glyph-name="U" unicode="U" horiz-adv-x="795" 
d="M552 783h160v-467q0 -156 -81 -241.5t-235 -85.5t-233.5 85t-79.5 236v473h163l-1 -469q0 -81 41.5 -125t110.5 -44q74 0 114.5 44t40.5 121v473z" />
    <glyph glyph-name="V" unicode="V" horiz-adv-x="784" 
d="M15 783h175l203 -595l204 595h172l-284 -783h-187z" />
    <glyph glyph-name="W" unicode="W" horiz-adv-x="1191" 
d="M423 0h-174l-230 783h173l149 -556l169 556h173l169 -560l154 560h167l-232 -783h-175l-170 568h-2z" />
    <glyph glyph-name="X" unicode="X" horiz-adv-x="755" 
d="M182 0h-183l282 403l-266 380h190l173 -254l175 254h189l-268 -379l282 -404h-189l-191 282z" />
    <glyph glyph-name="Y" unicode="Y" horiz-adv-x="763" 
d="M301 0v310l-287 473h187l181 -313l183 313h185l-287 -466v-317h-162z" />
    <glyph glyph-name="Z" unicode="Z" horiz-adv-x="685" 
d="M41 0v143l390 490h-374v150h575v-139l-389 -494h397l1 -150h-600z" />
    <glyph glyph-name="bracketleft" unicode="[" horiz-adv-x="448" 
d="M413 867v-122h-190v-749h190v-122h-324v993h324z" />
    <glyph glyph-name="backslash" unicode="\" horiz-adv-x="562" 
d="M531 -5h-144l-358 820h145z" />
    <glyph glyph-name="bracketright" unicode="]" horiz-adv-x="448" 
d="M226 -4v749h-190v122h323v-993h-323v122h190z" />
    <glyph glyph-name="asciicircum" unicode="^" horiz-adv-x="652" 
d="M199 451h-159l227 332h119l226 -332h-158l-128 207z" />
    <glyph glyph-name="underscore" unicode="_" horiz-adv-x="553" 
d="M553 -64v-127h-553v127h553z" />
    <glyph glyph-name="grave" unicode="`" horiz-adv-x="310" 
d="M168 623l-158 187h179l107 -187h-128z" />
    <glyph glyph-name="a" unicode="a" horiz-adv-x="595" 
d="M222 -10q-76 0 -128 43t-52 116v2q0 94 79 132q68 32 159 32h53q42 0 42 39q0 29 -22.5 47.5t-63.5 18.5q-79 0 -119 -72l-119 71q69 127 245 127q108 0 170 -56t62 -159v-331h-144v66l-2 1q-54 -77 -160 -77zM267 104q49 0 78 29t29 74v12h-94q-35 0 -58 -16t-23 -45
q0 -26 18.5 -40t49.5 -14z" />
    <glyph glyph-name="b" unicode="b" horiz-adv-x="686" 
d="M228 814v-344h2q59 74 162 74q112 0 183 -84q71 -85 71 -192q0 -109 -73 -194q-73 -84 -185 -84q-106 0 -162 74h-2v-64h-152v814h156zM224 268q0 -59 38 -99q38 -38 94 -38t94 38q38 40 38 99q0 60 -39 97q-38 38 -94 38q-55 0 -93 -38t-38 -97z" />
    <glyph glyph-name="c" unicode="c" horiz-adv-x="615" 
d="M327 -12q-126 0 -206 79q-81 79 -81 199q0 118 84 199t204 81q90 0 158 -43.5t94 -121.5l-137 -57q-34 79 -115 79q-55 0 -91.5 -37t-36.5 -98q0 -60 35.5 -98t92.5 -38q84 0 118 79l138 -57q-30 -80 -98 -123t-159 -43z" />
    <glyph glyph-name="d" unicode="d" horiz-adv-x="686" 
d="M462 0v68h-2q-52 -78 -166 -78q-113 0 -183 82q-71 83 -71 196q0 108 73 191q73 85 183 85q100 0 160 -71h2v341h155v-814h-151zM462 268q0 59 -37.5 97t-94.5 38t-94.5 -38t-37.5 -97t38 -99q38 -38 94 -38t94 38q38 40 38 99z" />
    <glyph glyph-name="e" unicode="e" horiz-adv-x="627" 
d="M586 224h-388q7 -48 44 -76.5t88 -28.5q36 0 68.5 17.5t50.5 46.5l113 -74q-67 -121 -230 -121q-124 0 -209 78q-84 79 -84 202q0 114 83 197q83 82 200 82q118 0 192 -74t74 -193q0 -32 -2 -56zM202 327h230q-3 38 -33.5 65.5t-80.5 27.5q-49 0 -80 -31q-31 -30 -36 -62
z" />
    <glyph glyph-name="f" unicode="f" horiz-adv-x="434" 
d="M420 806v-128q-20 6 -48 6q-45 0 -70 -24.5t-25 -69.5v-56h140v-133h-139v-401h-156v401h-96v133h96v53q0 107 57 168.5t168 61.5q37 0 73 -11z" />
    <glyph glyph-name="g" unicode="g" horiz-adv-x="682" 
d="M51 -114l127 73q45 -90 142 -90q62 0 98 32t36 93v81h-2q-56 -71 -154 -71q-114 0 -186 77t-72 191q0 108 70 188q70 82 182 82q101 0 162 -73h2v65h153v-536q0 -124 -81 -195q-79 -70 -207 -70q-198 0 -270 153zM458 272q0 58 -37 94.5t-93 36.5q-55 0 -92.5 -37
t-37.5 -94q0 -59 36.5 -95.5t93.5 -36.5q56 0 93 37t37 95z" />
    <glyph glyph-name="h" unicode="h" horiz-adv-x="639" 
d="M572 0h-155v296q0 47 -24 75.5t-69 28.5t-70.5 -29t-25.5 -73v-298h-156v814h156v-343h1q28 42 71 57q42 16 76 16q96 0 146 -62t50 -150v-332z" />
    <glyph glyph-name="i" unicode="i" horiz-adv-x="301" 
d="M149 817q41 0 69.5 -28t28.5 -69q0 -40 -28.5 -68t-69.5 -28q-39 0 -67.5 28t-28.5 68t28.5 68.5t67.5 28.5zM229 0h-157v534h157v-534z" />
    <glyph glyph-name="j" unicode="j" horiz-adv-x="309" 
d="M157 817q41 0 69.5 -28.5t28.5 -68.5t-28.5 -68t-69.5 -28q-40 0 -68 28t-28 68t28 68.5t68 28.5zM80 534h156v-574q0 -114 -56 -169t-173 -55q-34 0 -55 7v131q14 -3 27 -3q52 0 76.5 22.5t24.5 74.5v566z" />
    <glyph glyph-name="k" unicode="k" horiz-adv-x="619" 
d="M228 253v-253h-156v815h156v-491l185 210h199l-215 -246l221 -288h-197l-189 253h-4z" />
    <glyph glyph-name="l" unicode="l" horiz-adv-x="301" 
d="M229 815v-815h-157v815h157z" />
    <glyph glyph-name="m" unicode="m" horiz-adv-x="971" 
d="M661 400q-45 0 -70.5 -27t-25.5 -75v-298h-155v296q0 104 -87 104q-46 0 -70.5 -28t-24.5 -76v-296h-156v534h153v-70h2q21 38 64 60t92 22q111 0 156 -85q40 45 81 65t96 20q92 0 140 -57t48 -156v-333h-156v298q0 102 -87 102z" />
    <glyph glyph-name="n" unicode="n" horiz-adv-x="639" 
d="M572 0h-155v296q0 48 -24 76t-69 28q-46 0 -71 -29t-25 -75v-296h-156v534h155v-70h1q20 33 53 52q49 28 98 28q96 0 144 -61q49 -61 49 -151v-332z" />
    <glyph glyph-name="o" unicode="o" horiz-adv-x="661" 
d="M39 266q0 120 85 199q86 81 208 81q121 0 206 -80q84 -79 84 -197q0 -120 -85 -201q-86 -80 -207 -80q-124 0 -207 79q-84 79 -84 199zM199 268q0 -59 38 -99q38 -38 94 -38q57 0 94 38.5t37 98.5q0 59 -38 97q-38 39 -94 39t-93 -39q-38 -38 -38 -97z" />
    <glyph glyph-name="p" unicode="p" horiz-adv-x="686" 
d="M227 534v-66h2q55 76 163 76q112 0 183 -84q71 -85 71 -192q0 -109 -73 -194q-73 -84 -185 -84q-101 0 -158 69h-2v-323h-156v798h155zM224 268q0 -59 38 -99q38 -38 94 -38t94 38q38 40 38 99q0 60 -39 97q-38 38 -94 38q-55 0 -93 -38t-38 -97z" />
    <glyph glyph-name="q" unicode="q" horiz-adv-x="686" 
d="M458 -264v325h-2q-53 -71 -162 -71q-113 0 -183 82q-71 83 -71 196q0 108 73 191q73 85 183 85q102 0 162 -71h1v61h154v-798h-155zM462 268q0 59 -37.5 97t-94.5 38t-94.5 -38t-37.5 -97t38 -99q38 -38 94 -38t94 38q38 40 38 99z" />
    <glyph glyph-name="r" unicode="r" horiz-adv-x="425" 
d="M410 536v-154q-18 3 -37 3q-73 0 -109 -42t-36 -117v-226h-156v534h155v-82h1q18 38 58.5 63t92.5 25q20 0 31 -4z" />
    <glyph glyph-name="s" unicode="s" horiz-adv-x="512" 
d="M474 161q0 -78 -57.5 -125.5t-155.5 -47.5q-168 0 -233 123l115 68q33 -65 120 -65q29 0 47 11.5t18 27.5q0 17 -18.5 29t-66.5 23q-190 42 -190 173q0 75 60 121q62 48 145 48q72 0 125.5 -29t80.5 -79l-113 -67q-30 51 -97 51q-24 0 -40 -11.5t-16 -27.5q0 -34 70 -49
q103 -21 154.5 -63.5t51.5 -110.5z" />
    <glyph glyph-name="t" unicode="t" horiz-adv-x="450" 
d="M402 132v-129q-33 -10 -73 -10q-103 0 -157.5 53t-54.5 148v205h-96v135h98v167h154v-167h132v-135h-132v-186q0 -45 23 -65t70 -20q21 0 36 4z" />
    <glyph glyph-name="u" unicode="u" horiz-adv-x="639" 
d="M67 534h156v-298q0 -102 92 -102q46 0 71 28t25 74v298h156v-534h-154v66h-1q-53 -77 -149 -77q-95 0 -146 60q-50 62 -50 150v335z" />
    <glyph glyph-name="v" unicode="v" horiz-adv-x="621" 
d="M14 534h165l132 -356l132 356h165l-219 -534h-159z" />
    <glyph glyph-name="w" unicode="w" horiz-adv-x="893" 
d="M619 200l101 334h156l-168 -534h-153l-109 341h-1l-110 -341h-151l-166 534h160l96 -331h1l100 331h144z" />
    <glyph glyph-name="x" unicode="x" horiz-adv-x="575" 
d="M184 0h-173l192 269l-186 265h175l96 -151l99 151h172l-188 -262l193 -272h-175l-102 157z" />
    <glyph glyph-name="y" unicode="y" horiz-adv-x="611" 
d="M238 57l-225 477h172l133 -305l119 305h161l-324 -797h-167z" />
    <glyph glyph-name="z" unicode="z" horiz-adv-x="541" 
d="M292 401h-241v133h442v-119l-252 -282h254v-133h-452v121z" />
    <glyph glyph-name="braceleft" unicode="{" horiz-adv-x="452" 
d="M416 -4v-122h-75q-124 0 -181 51t-38 181l15 107q8 53 -17 74.5t-84 21.5h-16v123h16q59 0 84 21.5t17 74.5l-15 106q-18 125 37 179t182 54h75v-122h-59q-54 0 -77 -15t-25 -47.5t7 -85.5l13 -88q16 -115 -109 -138v-1q68 -13 93.5 -53.5t15.5 -84.5l-13 -88
q-9 -53 -7 -85.5t25 -47.5t77 -15h59z" />
    <glyph glyph-name="bar" unicode="|" horiz-adv-x="313" 
d="M224 891v-1007h-135v1007h135z" />
    <glyph glyph-name="braceright" unicode="}" horiz-adv-x="452" 
d="M37 -126v122h59q78 0 94 34t0 114l-13 88q-9 44 16.5 84.5t92.5 53.5v1q-65 12 -90.5 49.5t-18.5 88.5l13 88q16 79 0 113q-17 35 -94 35h-59v122h74q128 0 182.5 -54t37.5 -179l-16 -106q-8 -53 17.5 -74.5t84.5 -21.5h15v-123h-15q-59 0 -84.5 -21.5t-17.5 -74.5
l16 -107q18 -130 -40 -181q-57 -51 -180 -51h-74z" />
    <glyph glyph-name="asciitilde" unicode="~" horiz-adv-x="631" 
d="M406 216q-38 -1 -77.5 18.5t-66.5 39t-37 18.5q-37 0 -39 -72h-133q-5 100 40 156.5t132 56.5q68 0 114 -38q48 -38 67 -38q38 0 39 72h133q5 -100 -40 -156.5t-132 -56.5z" />
    <glyph glyph-name="exclamdown" unicode="&#xa1;" horiz-adv-x="323" 
d="M161 353q-41 0 -69.5 28t-28.5 69q0 40 28.5 68t69.5 28q39 0 67.5 -28t28.5 -68t-28.5 -68.5t-67.5 -28.5zM76 -91l15 355h142l15 -354v-158h-172v157z" />
    <glyph glyph-name="cent" unicode="&#xa2;" horiz-adv-x="619" 
d="M447 212l135 -56q-26 -71 -82 -112.5t-133 -50.5v-95h-82v96q-106 13 -174 89q-67 76 -67 183q0 104 68 181q69 76 173 93v97h82v-96q77 -9 133 -51t79 -110l-135 -56q-26 60 -79 74v-261q55 13 82 75zM203 268q0 -47 22.5 -81t61.5 -47v255q-38 -13 -61 -46.5t-23 -80.5
z" />
    <glyph glyph-name="sterling" unicode="&#xa3;" horiz-adv-x="678" 
d="M539 186l110 -76q-21 -59 -70.5 -90t-116.5 -31q-52 0 -112 25q-63 26 -96 26q-53 0 -130 -46l-76 135q77 46 114.5 86t37.5 86q0 2 -2 18h-141v127h84q-34 69 -34 114q0 96 76 165q76 70 187 70q98 0 163 -45.5t89 -125.5l-146 -68q-28 87 -104 87q-43 0 -70.5 -23.5
t-27.5 -62.5q0 -33 38 -111h194v-127h-153v-10q0 -81 -75 -131q14 3 25 3q39 0 84 -19t77 -19q50 0 75 43z" />
    <glyph glyph-name="currency" unicode="&#xa4;" horiz-adv-x="676" 
d="M632 71l-95 -96l-86 88q-55 -27 -113 -27q-57 0 -111 27l-87 -87l-96 96l85 84q-30 51 -30 115q0 59 29 115l-84 85l96 95l87 -88q51 27 111 27q62 0 112 -27l86 87l95 -94l-83 -85q31 -55 31 -115t-31 -116zM337 369q-43 0 -71.5 -27.5t-28.5 -71.5q0 -43 28.5 -71
t71.5 -28q44 0 72.5 28t28.5 71q0 44 -28.5 71.5t-72.5 27.5z" />
    <glyph glyph-name="yen" unicode="&#xa5;" horiz-adv-x="777" 
d="M470 311v-59h229v-103h-229v-149h-162v149h-229v103h229v59h-229v103h175l-219 369h187l166 -308l169 308h185l-222 -369h179v-103h-229z" />
    <glyph glyph-name="brokenbar" unicode="&#xa6;" horiz-adv-x="311" 
d="M88 891h135v-390h-135v390zM223 -116h-135v390h135v-390z" />
    <glyph glyph-name="section" unicode="&#xa7;" horiz-adv-x="666" 
d="M570 164q0 -79 -63 -127.5t-170 -48.5q-199 0 -265 141l110 66q47 -85 155 -85q34 0 54.5 13.5t20.5 32.5q0 18 -20 30.5t-75 26.5l-83 20q-91 21 -140 59.5t-49 91.5q0 96 101 134q-49 37 -49 103q0 79 64 126t173 47q171 0 231 -118l-109 -67q-37 64 -125 64
q-32 0 -54 -13.5t-22 -31.5t16.5 -30.5t60.5 -23.5l101 -24q189 -43 189 -152q0 -95 -100 -132q48 -38 48 -102zM252 460q-27 0 -44.5 -13t-17.5 -37q0 -39 113 -66q82 -20 113 -20q26 0 43.5 13.5t17.5 37.5q0 38 -107 64l-6 1q-82 20 -112 20z" />
    <glyph glyph-name="dieresis" unicode="&#xa8;" horiz-adv-x="440" 
d="M13 704q0 36 25 61.5t61 25.5t61.5 -26t25.5 -61q0 -36 -25.5 -61.5t-61.5 -25.5t-61 25t-25 62zM251 704q0 36 25 61.5t61 25.5t61.5 -25.5t25.5 -61.5q0 -37 -25.5 -62t-61.5 -25t-61 25t-25 62z" />
    <glyph glyph-name="copyright" unicode="&#xa9;" horiz-adv-x="894" 
d="M444 -10q-165 0 -282 117q-117 119 -117 285q0 165 119 284t283 119q165 0 284 -117q118 -117 118 -283q2 -106 -54 -201t-151 -150.5t-200 -53.5zM679 630q-97 99 -233 99t-233 -99q-97 -98 -97 -237q0 -138 97 -238q97 -99 233 -99t233 99q99 101 99 238q0 138 -99 237
zM452 146q-112 0 -183 70q-71 71 -71 176q0 104 74 175q74 72 181 72q80 0 140 -38.5t83 -107.5l-122 -50q-28 70 -101 70q-49 0 -81.5 -33t-32.5 -87q0 -52 31.5 -86t82.5 -34q74 0 104 70l121 -50q-27 -71 -86.5 -109t-139.5 -38z" />
    <glyph glyph-name="ordfeminine" unicode="&#xaa;" horiz-adv-x="551" 
d="M361 387v43h-2q-36 -50 -113 -50q-79 0 -128 58q-50 59 -50 136q0 75 51 133q51 60 129 60q70 0 111 -50h2v42h108v-372h-108zM336 506q27 27 27 68q0 42 -27 67q-26 27 -65 27t-66 -27q-26 -26 -26 -67q0 -40 26 -68q27 -27 66 -27t65 27zM469 296v-97h-396v97h396z" />
    <glyph glyph-name="guillemotleft" unicode="&#xab;" horiz-adv-x="674" 
d="M197 302l150 -148l-86 -83l-233 230l234 231l84 -83zM472 302l150 -148l-85 -83l-233 230l234 231l84 -83z" />
    <glyph glyph-name="logicalnot" unicode="&#xac;" horiz-adv-x="718" 
d="M647 559v-324h-151v182h-447v142h598z" />
    <glyph glyph-name="registered" unicode="&#xae;" horiz-adv-x="652" 
d="M601 516q0 -114 -81 -195q-80 -80 -194 -80t-194 80q-80 82 -80 195q0 114 80 194q80 81 194 81t194 -81q81 -81 81 -194zM169 356q65 -65 157 -65t157 66q66 66 66 159t-66 159q-65 66 -157 66t-157 -66q-65 -65 -65 -159q0 -93 65 -160zM455 574q0 -69 -65 -92l71 -123
h-72l-65 113h-39v-113h-65v314h124q49 0 80 -26t31 -73zM285 612v-80h54q22 0 36 10.5t14 29.5q0 40 -51 40h-53z" />
    <glyph glyph-name="overscore" unicode="&#xaf;" horiz-adv-x="404" 
d="M20 628v117h364v-117h-364z" />
    <glyph glyph-name="degree" unicode="&#xb0;" horiz-adv-x="461" 
d="M230 412q-78 0 -133 55t-55 135q0 77 55 132q56 56 133 56t133 -56t56 -132q0 -80 -55 -135t-134 -55zM230 681q-34 0 -57 -23t-23 -56q0 -34 23 -57.5t57 -23.5t57 23.5t23 57.5q0 31 -24 55t-56 24z" />
    <glyph glyph-name="plusminus" unicode="&#xb1;" horiz-adv-x="659" 
d="M262 376h-198v144h198v166h141v-166h192v-144h-192v-167h-141v167zM69 0v139h521v-139h-521z" />
    <glyph glyph-name="uni00B2" unicode="&#xb2;" horiz-adv-x="469" 
d="M226 530h182v-104h-351v98l176 142q53 42 53 72q0 20 -15 33t-40 13q-43 0 -62 -51l-105 44q14 52 60.5 83t111.5 31q86 0 136 -56q34 -40 34 -92q0 -45 -23 -77q-20 -27 -82 -76z" />
    <glyph glyph-name="uni00B3" unicode="&#xb3;" horiz-adv-x="451" 
d="M331 660q33 -12 51.5 -38.5t18.5 -61.5q0 -63 -49.5 -103t-130.5 -40q-135 0 -173 105l97 47q22 -49 74 -49q28 0 45 12.5t17 32.5q0 45 -62 45h-50v91h46q59 0 59 44t-59 44q-47 0 -68 -49l-97 47q18 49 62.5 76.5t108.5 27.5q76 0 124 -37t48 -99q0 -29 -17 -55.5
t-45 -39.5z" />
    <glyph glyph-name="acute" unicode="&#xb4;" horiz-adv-x="305" 
d="M137 623h-128l107 187h179z" />
    <glyph glyph-name="uni00B5" unicode="&#xb5;" horiz-adv-x="666" 
d="M83 534h156v-298q0 -48 23.5 -75t69.5 -27q45 0 70 28.5t25 73.5v298h156v-534h-154v66h-1q-50 -74 -135 -74q-34 0 -59 16v-172h-151v698z" />
    <glyph glyph-name="paragraph" unicode="&#xb6;" horiz-adv-x="564" 
d="M310 0v360h-52q-92 0 -159 62q-65 63 -65 150t65 149q67 62 159 62h207v-783h-155z" />
    <glyph glyph-name="middot" unicode="&#xb7;" horiz-adv-x="323" 
d="M161 207q-45 0 -76 31q-32 32 -32 76q0 46 32 78t76 32q46 0 77.5 -32t31.5 -78q0 -44 -32 -76q-31 -31 -77 -31z" />
    <glyph glyph-name="cedilla" unicode="&#xb8;" horiz-adv-x="302" 
d="M282 -101q0 -160 -189 -160q-45 0 -73 9v105q32 -5 53 -5q42 0 63.5 25t21.5 70q0 30 -12 57h114q22 -43 22 -101z" />
    <glyph glyph-name="uni00B9" unicode="&#xb9;" horiz-adv-x="375" 
d="M171 426v319l-104 -59l-52 94l172 99h117v-453h-133z" />
    <glyph glyph-name="ordmasculine" unicode="&#xba;" horiz-adv-x="541" 
d="M271 767q85 0 143 -55q59 -56 59 -138t-60 -138q-59 -56 -143 -56q-86 0 -144 55t-58 137t59 138q60 57 144 57zM179 574q0 -42 26.5 -68.5t65.5 -26.5t65 26.5t26 68.5q0 41 -26.5 67.5t-65.5 26.5t-65 -26.5t-26 -67.5zM73 199v97h395v-97h-395z" />
    <glyph glyph-name="guillemotright" unicode="&#xbb;" horiz-adv-x="674" 
d="M370 301l-233 -230l-85 83l150 147l-150 148l85 83zM646 301l-233 -230l-85 83l149 147l-149 148l84 83z" />
    <glyph glyph-name="onequarter" unicode="&#xbc;" horiz-adv-x="987" 
d="M186 648l-104 -59l-52 95l172 99h116v-454h-132v319zM153 0l510 783h135l-509 -783h-136zM752 0v82h-229v125l201 247h145v-268h75v-104h-75v-82h-117zM752 186v147l-118 -147h118z" />
    <glyph glyph-name="onehalf" unicode="&#xbd;" horiz-adv-x="993" 
d="M83 589l-53 95l173 99h116v-454l-132 1v318zM664 783h135l-509 -783h-137zM759 104h183v-104h-351v98l175 142q31 25 42 40t11 33q0 20 -14.5 32.5t-39.5 12.5q-43 0 -63 -51l-105 45q14 52 60 82.5t112 30.5q88 0 136 -56q35 -41 35 -92q0 -44 -23 -76q-22 -29 -82 -77z
" />
    <glyph glyph-name="threequarters" unicode="&#xbe;" horiz-adv-x="1021" 
d="M325 563q33 -12 51.5 -38.5t18.5 -61.5q0 -63 -49.5 -103t-130.5 -40q-135 0 -173 105l97 47q22 -49 74 -49q28 0 45 12.5t17 32.5q0 45 -62 45h-50v91h46q59 0 59 44t-59 44q-47 0 -68 -49l-97 47q18 49 62.5 76.5t108.5 27.5q76 0 124 -37t48 -99q0 -29 -17 -55.5
t-45 -39.5zM195 0l509 783h136l-509 -783h-136zM794 0v82h-229v125l201 247h145v-268h75v-104h-75v-82h-117zM794 186v147l-118 -147h118z" />
    <glyph glyph-name="questiondown" unicode="&#xbf;" horiz-adv-x="536" 
d="M299 352q-41 0 -69.5 28.5t-28.5 69.5q0 40 28.5 68t69.5 28q39 0 67.5 -28t28.5 -68t-28.5 -69t-67.5 -29zM277 -114q67 0 103 75l135 -71q-30 -69 -96.5 -109.5t-145.5 -40.5q-107 0 -174 60q-67 58 -67 152q0 61 29 105q31 45 93 95q39 31 56.5 58t17.5 61v7h152v-33
q0 -42 -17 -74t-57 -68l-48 -42q-63 -55 -63 -100q0 -33 23 -54t59 -21z" />
    <glyph glyph-name="Agrave" unicode="&#xc0;" horiz-adv-x="792" 
d="M175 1042h179l107 -187h-128zM162 0h-163l299 783h195l300 -783h-167l-59 158h-347zM394 626l-118 -318h236z" />
    <glyph glyph-name="Aacute" unicode="&#xc1;" horiz-adv-x="792" 
d="M461 855h-128l107 187h179zM162 0h-163l299 783h195l300 -783h-167l-59 158h-347zM394 626l-118 -318h236z" />
    <glyph glyph-name="Acircumflex" unicode="&#xc2;" horiz-adv-x="792" 
d="M200 854l120 174h147l120 -174h-132l-61 91l-61 -91h-133zM162 0h-163l299 783h195l300 -783h-167l-59 158h-347zM394 626l-118 -318h236z" />
    <glyph glyph-name="Atilde" unicode="&#xc3;" horiz-adv-x="792" 
d="M331 1019q32 0 61.5 -15.5t50 -30.5t29.5 -15q34 0 34 58h97q4 -76 -30.5 -119.5t-100.5 -43.5q-30 0 -60 15.5t-51 30.5t-30 15q-33 0 -34 -58h-96q-5 76 29.5 119.5t100.5 43.5zM162 0h-163l299 783h195l300 -783h-167l-59 158h-347zM394 626l-118 -318h236z" />
    <glyph glyph-name="Adieresis" unicode="&#xc4;" horiz-adv-x="792" 
d="M359 933q0 -36 -25.5 -61.5t-61.5 -25.5t-61 25.5t-25 61.5t25 61.5t61 25.5t61.5 -26t25.5 -61zM581 871q-25 -25 -61 -25t-61 25q-25 26 -25 62t25 61q25 26 61 26t61 -26q26 -25 26 -61t-26 -62zM162 0h-163l299 783h195l300 -783h-167l-59 158h-347zM394 626
l-118 -318h236z" />
    <glyph glyph-name="Aring" unicode="&#xc5;" horiz-adv-x="792" 
d="M793 0h-167l-59 158h-347l-58 -158h-163l280 735q-39 42 -39 99q0 61 46 104t109 43t109 -43t46 -104q0 -56 -39 -98zM395 894q-29 0 -47 -17.5t-18 -42.5t19 -43.5t46 -18.5t45.5 18.5t18.5 43.5q0 23 -19.5 41.5t-44.5 18.5zM512 308l-118 318l-118 -318h236z" />
    <glyph glyph-name="AE" unicode="&#xc6;" horiz-adv-x="1054" 
d="M994 783v-152h-347v-159h311v-152h-311v-169h350v-151h-510v157h-248l-77 -157h-175l397 783h610zM487 632h-9l-164 -325h173v325z" />
    <glyph glyph-name="Ccedilla" unicode="&#xc7;" horiz-adv-x="832" 
d="M658 291l149 -69q-34 -94 -119 -156q-83 -61 -188 -74q18 -42 18 -93q0 -160 -189 -160q-45 0 -73 9v105q32 -5 53 -5q42 0 64 25t22 70q0 26 -10 50q-149 21 -246 132q-96 113 -96 266q0 169 118 286q118 118 288 118q119 0 217 -62q99 -61 138 -169l-148 -68
q-25 66 -80.5 103.5t-127.5 37.5q-101 0 -169 -71t-68 -173q0 -105 67 -176q68 -71 170 -71q71 0 127 39.5t83 105.5z" />
    <glyph glyph-name="Egrave" unicode="&#xc8;" horiz-adv-x="667" 
d="M164 1042h179l107 -187h-128zM255 472h316v-152h-316v-169h355v-151h-519v783h516v-152h-352v-159z" />
    <glyph glyph-name="Eacute" unicode="&#xc9;" horiz-adv-x="667" 
d="M376 855h-127l106 187h180zM255 151h355v-151h-519v783h516v-152h-352v-159h316v-152h-316v-169z" />
    <glyph glyph-name="Ecircumflex" unicode="&#xca;" horiz-adv-x="667" 
d="M156 854l123 174h146l121 -174h-132l-62 91l-60 -91h-136zM255 472h316v-152h-316v-169h355v-151h-519v783h516v-152h-352v-159z" />
    <glyph glyph-name="Edieresis" unicode="&#xcb;" horiz-adv-x="663" 
d="M222 1020q36 0 61.5 -25.5t25.5 -61.5t-25.5 -61.5t-61.5 -25.5t-61 25.5t-25 61.5t25 61.5t61 25.5zM470 1020q36 0 61.5 -25.5t25.5 -61.5t-25.5 -61.5t-61.5 -25.5t-61 25.5t-25 61.5t25 61.5t61 25.5zM604 631h-353v-159h316v-152h-316v-169h355v-151h-515v783h513
v-152z" />
    <glyph glyph-name="Igrave" unicode="&#xcc;" horiz-adv-x="345" 
d="M-50 1042h179l107 -187h-128zM253 783v-783h-162v783h162z" />
    <glyph glyph-name="Iacute" unicode="&#xcd;" horiz-adv-x="345" 
d="M236 855h-128l107 187h180zM91 0v783h162v-783h-162z" />
    <glyph glyph-name="Icircumflex" unicode="&#xce;" horiz-adv-x="345" 
d="M-23 854l123 174h147l120 -174h-132l-62 91l-60 -91h-136zM253 783v-783h-162v783h162z" />
    <glyph glyph-name="Idieresis" unicode="&#xcf;" horiz-adv-x="345" 
d="M56 846q-36 0 -61.5 25.5t-25.5 61.5t25 61.5t62 25.5q36 0 61.5 -26t25.5 -61q0 -36 -26 -61.5t-61 -25.5zM290 846q-36 0 -61.5 25.5t-25.5 61.5t25 61.5t62 25.5q36 0 61 -25.5t25 -61.5t-25.5 -61.5t-60.5 -25.5zM91 0v783h162v-783h-162z" />
    <glyph glyph-name="Eth" unicode="&#xd0;" horiz-adv-x="839" 
d="M112 470v313h240q206 0 324 -103t118 -287q0 -177 -120 -285t-325 -108h-237v320h-95v150h95zM274 320v-167h80q124 0 199 63q75 64 75 177t-76 174q-76 63 -196 63h-82v-160h167v-150h-167z" />
    <glyph glyph-name="Ntilde" unicode="&#xd1;" horiz-adv-x="868" 
d="M365 1019q32 0 61.5 -15.5t50 -30.5t29.5 -15q34 0 34 58h97q4 -76 -30.5 -119.5t-100.5 -43.5q-30 0 -60 15.5t-51 30.5t-30 15q-33 0 -34 -58h-96q-5 76 29.5 119.5t100.5 43.5zM251 540v-540h-160v783h185l340 -511v511h160v-783h-165z" />
    <glyph glyph-name="Ograve" unicode="&#xd2;" horiz-adv-x="899" 
d="M234 1042h179l107 -187h-128zM43 391q0 167 120 286q119 118 289 118q168 0 286 -116q118 -115 118 -284q0 -171 -120 -289q-118 -118 -288 -118q-168 0 -287 117q-118 117 -118 286zM279 217q71 -72 171 -72t171 72q70 73 70 175q0 103 -70 174q-71 72 -171 72t-171 -72
q-70 -71 -70 -174q0 -102 70 -175z" />
    <glyph glyph-name="Oacute" unicode="&#xd3;" horiz-adv-x="899" 
d="M509 855h-128l107 187h179zM43 391q0 167 120 286q119 118 289 118q168 0 286 -116q118 -115 118 -284q0 -171 -120 -289q-118 -118 -288 -118q-168 0 -287 117q-118 117 -118 286zM279 566q-70 -71 -70 -174q0 -102 70 -175q71 -72 171 -72t171 72q70 73 70 175
q0 103 -70 174q-71 72 -171 72t-171 -72z" />
    <glyph glyph-name="Ocircumflex" unicode="&#xd4;" horiz-adv-x="899" 
d="M259 854l121 174h146l121 -174h-132l-62 91l-60 -91h-134zM43 391q0 167 120 286q119 118 289 118q168 0 286 -116q118 -115 118 -284q0 -171 -120 -289q-118 -118 -288 -118q-168 0 -287 117q-118 117 -118 286zM279 217q71 -72 171 -72t171 72q70 73 70 175
q0 103 -70 174q-71 72 -171 72t-171 -72q-70 -71 -70 -174q0 -102 70 -175z" />
    <glyph glyph-name="Otilde" unicode="&#xd5;" horiz-adv-x="899" 
d="M379 1019q32 0 61.5 -15.5t50 -30.5t29.5 -15q34 0 34 58h97q4 -76 -30.5 -119.5t-100.5 -43.5q-30 0 -60 15.5t-51 30.5t-30 15q-33 0 -34 -58h-96q-5 76 29.5 119.5t100.5 43.5zM43 391q0 167 120 286q119 118 289 118q168 0 286 -116q118 -115 118 -284
q0 -171 -120 -289q-118 -118 -288 -118q-168 0 -287 117q-118 117 -118 286zM279 566q-70 -71 -70 -174q0 -102 70 -175q71 -72 171 -72t171 72q70 73 70 175q0 103 -70 174q-71 72 -171 72t-171 -72z" />
    <glyph glyph-name="Odieresis" unicode="&#xd6;" horiz-adv-x="899" 
d="M327 1020q36 0 61.5 -26t25.5 -61q2 -36 -25.5 -61.5t-61.5 -25.5t-61 25q-19 18 -23.5 45t5 50t31 39t48.5 15zM575 1020q36 0 61.5 -25.5t25.5 -61.5t-25.5 -61.5t-61.5 -25.5t-61 25.5t-25 61.5t25 61.5t61 25.5zM43 391q0 167 120 286q119 118 289 118
q168 0 286 -116q118 -115 118 -284q0 -171 -120 -289q-118 -118 -288 -118q-168 0 -287 117q-118 117 -118 286zM279 566q-70 -71 -70 -174q0 -102 70 -175q71 -72 171 -72t171 72q70 73 70 175q0 103 -70 174q-71 72 -171 72t-171 -72z" />
    <glyph glyph-name="multiply" unicode="&#xd7;" horiz-adv-x="666" 
d="M238 364l-186 186l96 95l185 -186l186 186l95 -95l-186 -186l186 -186l-95 -95l-186 186l-185 -186l-96 95z" />
    <glyph glyph-name="Oslash" unicode="&#xd8;" horiz-adv-x="902" 
d="M776 815l81 -75l-88 -93q88 -109 88 -252q0 -170 -119 -289q-118 -118 -289 -118q-131 0 -235 74l-88 -91l-81 75l88 92q-89 110 -89 253q0 167 120 286q119 118 289 118q131 0 235 -72zM208 392q0 -72 39 -135l331 347q-58 35 -126 35q-101 0 -173 -73q-71 -73 -71 -174
zM452 145q100 0 171 72q71 74 71 175q0 74 -39 136l-331 -347q56 -36 128 -36z" />
    <glyph glyph-name="Ugrave" unicode="&#xd9;" horiz-adv-x="795" 
d="M182 1042h179l107 -187h-128zM552 783h160v-467q0 -156 -81 -241.5t-235 -85.5t-233.5 85t-79.5 236v473h163l-1 -469q0 -81 41.5 -125t110.5 -44q74 0 114.5 44t40.5 121v473z" />
    <glyph glyph-name="Uacute" unicode="&#xda;" horiz-adv-x="795" 
d="M460 855h-128l107 187h179zM552 783h160v-467q0 -156 -81 -241.5t-235 -85.5t-233.5 85t-79.5 236v473h163l-1 -469q0 -81 41.5 -125t110.5 -44q74 0 114.5 44t40.5 121v473z" />
    <glyph glyph-name="Ucircumflex" unicode="&#xdb;" horiz-adv-x="795" 
d="M203 854l122 174h147l120 -174h-132l-62 91l-60 -91h-135zM552 783h160v-467q0 -156 -81 -241.5t-235 -85.5t-233.5 85t-79.5 236v473h163l-1 -469q0 -81 41.5 -125t110.5 -44q74 0 114.5 44t40.5 121v473z" />
    <glyph glyph-name="Udieresis" unicode="&#xdc;" horiz-adv-x="795" 
d="M335 871q-25 -25 -61 -25t-61 25q-25 26 -25 62t25 61q25 26 61 26t61 -26q26 -25 26 -61t-26 -62zM522 846q-35 0 -60.5 25.5t-25.5 61.5t25 61.5t61 25.5t61.5 -25.5t25.5 -61.5t-25.5 -61.5t-61.5 -25.5zM552 783h160v-467q0 -156 -81 -241.5t-235 -85.5t-233.5 85
t-79.5 236v473h163l-1 -469q0 -81 41.5 -125t110.5 -44q74 0 114.5 44t40.5 121v473z" />
    <glyph glyph-name="Yacute" unicode="&#xdd;" horiz-adv-x="766" 
d="M450 855h-128l107 187h179zM14 783h190l180 -313l183 313h185l-286 -466v-317h-162v310z" />
    <glyph glyph-name="Thorn" unicode="&#xde;" horiz-adv-x="691" 
d="M253 783v-133h129q124 0 202 -66q79 -64 79 -185q0 -125 -79 -189q-80 -65 -208 -65h-123v-145h-162v783h162zM499 396q0 51 -36 76.5t-95 25.5h-115v-204h116q57 0 93.5 26.5t36.5 75.5z" />
    <glyph glyph-name="germandbls" unicode="&#xdf;" horiz-adv-x="723" 
d="M689 165q0 -83 -59 -130t-148 -47q-144 0 -194 104l106 70q30 -52 78 -52q31 0 49.5 13t18.5 37q0 20 -22 33q-24 17 -85 44q-123 55 -123 161q0 36 18.5 71t44.5 58q64 58 64 85q0 29 -24.5 46t-66.5 17q-54 0 -86 -36t-32 -94v-545h-156v548q0 125 75 197q76 72 202 72
q95 2 171.5 -47.5t76.5 -134.5q0 -42 -16.5 -72.5t-52.5 -66.5q-42 -39 -55 -57q-12 -17 -12 -36q0 -17 17 -30.5t72 -41.5q14 -6 18 -9q61 -32 91 -67.5t30 -89.5z" />
    <glyph glyph-name="agrave" unicode="&#xe0;" horiz-adv-x="595" 
d="M82 810h179l107 -187h-128zM222 -10q-76 0 -128 43t-52 116v2q0 94 79 132q68 32 159 32h53q42 0 42 39q0 29 -22.5 47.5t-63.5 18.5q-79 0 -119 -72l-119 71q69 127 245 127q108 0 170 -56t62 -159v-331h-144v66l-2 1q-54 -77 -160 -77zM267 104q49 0 78 29t29 74v12
h-94q-35 0 -58 -16t-23 -45q0 -26 18.5 -40t49.5 -14z" />
    <glyph glyph-name="aacute" unicode="&#xe1;" horiz-adv-x="595" 
d="M358 623h-128l107 187h179zM222 -10q-76 0 -128 43t-52 116v2q0 94 79 132q68 32 159 32h53q42 0 42 39q0 29 -22.5 47.5t-63.5 18.5q-79 0 -119 -72l-119 71q69 127 245 127q108 0 170 -56t62 -159v-331h-144v66l-2 1q-54 -77 -160 -77zM267 104q49 0 78 29t29 74v12
h-94q-35 0 -58 -16t-23 -45q0 -26 18.5 -40t49.5 -14z" />
    <glyph glyph-name="acircumflex" unicode="&#xe2;" horiz-adv-x="595" 
d="M105 624l120 174h147l120 -174h-132l-62 91l-60 -91h-133zM222 -10q-76 0 -128 43t-52 116v2q0 94 79 132q68 32 159 32h53q42 0 42 39q0 29 -22.5 47.5t-63.5 18.5q-79 0 -119 -72l-119 71q69 127 245 127q108 0 170 -56t62 -159v-331h-144v66l-2 1q-54 -77 -160 -77z
M267 104q49 0 78 29t29 74v12h-94q-35 0 -58 -16t-23 -45q0 -26 18.5 -40t49.5 -14z" />
    <glyph glyph-name="atilde" unicode="&#xe3;" horiz-adv-x="595" 
d="M218 789q32 0 61.5 -15.5t50 -30.5t29.5 -15q34 0 34 58h97q4 -76 -30.5 -119.5t-100.5 -43.5q-30 0 -60 15.5t-51 30.5t-30 15q-33 0 -34 -58h-96q-5 76 29.5 119.5t100.5 43.5zM222 -10q-76 0 -128 43t-52 116v2q0 94 79 132q68 32 159 32h53q42 0 42 39
q0 29 -22.5 47.5t-63.5 18.5q-79 0 -119 -72l-119 71q69 127 245 127q108 0 170 -56t62 -159v-331h-144v66l-2 1q-54 -77 -160 -77zM267 104q49 0 78 29t29 74v12h-94q-35 0 -58 -16t-23 -45q0 -26 18.5 -40t49.5 -14z" />
    <glyph glyph-name="adieresis" unicode="&#xe4;" horiz-adv-x="595" 
d="M91 704q0 36 25 61.5t61 25.5t61.5 -25.5t25.5 -61.5q0 -37 -25.5 -62t-61.5 -25t-61 25t-25 62zM330 704q0 36 25 61.5t61 25.5t61.5 -26t25.5 -61q0 -36 -25.5 -61.5t-61.5 -25.5t-61 25t-25 62zM222 -10q-76 0 -128 43t-52 116v2q0 94 79 132q68 32 159 32h53
q42 0 42 39q0 29 -22.5 47.5t-63.5 18.5q-79 0 -119 -72l-119 71q69 127 245 127q108 0 170 -56t62 -159v-331h-144v66l-2 1q-54 -77 -160 -77zM267 104q49 0 78 29t29 74v12h-94q-35 0 -58 -16t-23 -45q0 -26 18.5 -40t49.5 -14z" />
    <glyph glyph-name="aring" unicode="&#xe5;" horiz-adv-x="595" 
d="M427 517q101 -53 101 -186v-331h-144v66l-2 1q-54 -77 -160 -77q-76 0 -128 43t-52 116v2q0 94 79 132q68 32 159 32h53q42 0 42 39q0 29 -22.5 47.5t-63.5 18.5q-79 0 -119 -72l-119 71q37 70 113 103q-22 34 -22 76q0 61 46 104t109 43q65 0 109 -43q46 -43 46 -104
q0 -46 -25 -81zM297 659q-28 0 -46.5 -17.5t-18.5 -43.5q0 -25 19 -43t46 -18t45.5 18t18.5 43q0 24 -19 42.5t-45 18.5zM374 207v12h-94q-35 0 -58 -16t-23 -45q0 -26 18.5 -40t49.5 -14q49 0 78 29t29 74z" />
    <glyph glyph-name="ae" unicode="&#xe6;" horiz-adv-x="954" 
d="M230 -10h-9q-75 0 -127 43t-52 116v6q0 37 14.5 65.5t37.5 46t55 29t63.5 15.5t66.5 4h54q42 0 42 39q0 29 -22.5 47.5t-63.5 18.5q-80 0 -118 -72l-119 71q67 127 244 127q115 0 175 -64q79 65 178 65q117 0 191 -74q75 -73 75 -191q0 -38 -3 -58h-387q7 -48 43.5 -76.5
t88.5 -28.5q36 0 68.5 17.5t50.5 46.5l113 -74q-69 -121 -231 -121q-136 0 -219 93q-84 -91 -209 -91zM528 327h230q-2 38 -32.5 65.5t-80.5 27.5q-49 0 -80 -31q-33 -31 -37 -62zM374 207v12h-95q-35 0 -57.5 -16t-22.5 -45q0 -26 18 -40t49 -14q50 0 79 29.5t29 73.5z" />
    <glyph glyph-name="ccedilla" unicode="&#xe7;" horiz-adv-x="605" 
d="M446 211l138 -57q-53 -137 -203 -162q19 -42 19 -93q0 -160 -189 -160q-45 0 -73 9v105q32 -5 52 -5q42 0 64 25t22 70q0 26 -9 50q-103 20 -165 94q-62 76 -62 179q0 118 84 199t204 81q90 0 158 -43.5t94 -121.5l-137 -57q-34 79 -115 79q-55 0 -91.5 -37t-36.5 -98
q0 -60 35.5 -98t92.5 -38q84 0 118 79z" />
    <glyph glyph-name="egrave" unicode="&#xe8;" horiz-adv-x="627" 
d="M264 623l-159 187h180l107 -187h-128zM586 224h-388q7 -48 44 -76.5t88 -28.5q36 0 68.5 17.5t50.5 46.5l113 -74q-67 -121 -230 -121q-124 0 -209 78q-84 79 -84 202q0 114 83 197q83 82 200 82q118 0 192 -74t74 -193q0 -32 -2 -56zM202 327h230q-3 38 -33.5 65.5
t-80.5 27.5q-49 0 -80 -31q-31 -30 -36 -62z" />
    <glyph glyph-name="eacute" unicode="&#xe9;" horiz-adv-x="627" 
d="M540 810l-158 -187h-128l107 187h179zM586 224h-388q7 -48 44 -76.5t88 -28.5q36 0 68.5 17.5t50.5 46.5l113 -74q-67 -121 -230 -121q-124 0 -209 78q-84 79 -84 202q0 114 83 197q83 82 200 82q118 0 192 -74t74 -193q0 -32 -2 -56zM202 327h230q-3 38 -33.5 65.5
t-80.5 27.5q-49 0 -80 -31q-31 -30 -36 -62z" />
    <glyph glyph-name="ecircumflex" unicode="&#xea;" horiz-adv-x="627" 
d="M261 624h-133l121 174h146l121 -174h-133l-61 91zM586 224h-388q7 -48 44 -76.5t88 -28.5q36 0 68.5 17.5t50.5 46.5l113 -74q-67 -121 -230 -121q-124 0 -209 78q-84 79 -84 202q0 114 83 197q83 82 200 82q118 0 192 -74t74 -193q0 -32 -2 -56zM202 327h230
q-3 38 -33.5 65.5t-80.5 27.5q-49 0 -80 -31q-31 -30 -36 -62z" />
    <glyph glyph-name="edieresis" unicode="&#xeb;" horiz-adv-x="627" 
d="M115 704q0 36 25 61.5t61 25.5t61.5 -25.5t25.5 -61.5q0 -37 -25.5 -62t-61.5 -25t-61 25t-25 62zM353 704q0 36 25 61.5t61 25.5t61.5 -25.5t25.5 -61.5q0 -37 -25.5 -62t-61.5 -25t-61 25t-25 62zM586 224h-388q7 -48 44 -76.5t88 -28.5q36 0 68.5 17.5t50.5 46.5
l113 -74q-67 -121 -230 -121q-124 0 -209 78q-84 79 -84 202q0 114 83 197q83 82 200 82q118 0 192 -74t74 -193q0 -32 -2 -56zM202 327h230q-3 38 -33.5 65.5t-80.5 27.5q-49 0 -80 -31q-31 -30 -36 -62z" />
    <glyph glyph-name="igrave" unicode="&#xec;" horiz-adv-x="301" 
d="M-71 810h179l107 -187h-128zM72 534h157v-534h-157v534z" />
    <glyph glyph-name="iacute" unicode="&#xed;" horiz-adv-x="301" 
d="M213 623h-128l107 187h180zM229 0h-157v534h157v-534z" />
    <glyph glyph-name="icircumflex" unicode="&#xee;" horiz-adv-x="301" 
d="M-44 624l122 174h146l121 -174h-133l-61 91l-61 -91h-134zM72 534h157v-534h-157v534z" />
    <glyph glyph-name="idieresis" unicode="&#xef;" horiz-adv-x="301" 
d="M-53 704q0 36 25 61.5t61 25.5t61.5 -25.5t25.5 -61.5q0 -37 -25.5 -62t-61.5 -25t-61 25t-25 62zM180 704q0 36 25.5 61.5t61.5 25.5t61.5 -26t25.5 -61q0 -36 -25.5 -61.5t-61.5 -25.5t-61.5 25t-25.5 62zM229 0h-157v534h157v-534z" />
    <glyph glyph-name="eth" unicode="&#xf0;" horiz-adv-x="670" 
d="M523 804l35 -86l-121 -49q185 -173 185 -376q0 -131 -78 -218q-76 -87 -214 -87q-126 0 -209 74q-81 75 -81 201q0 113 73 187q73 75 185 75q87 0 141 -54q-42 65 -143 140l-187 -78l-36 86l131 54l-37 21l-27 16l79 118q67 -41 137 -93zM330 129q60 0 97.5 38t37.5 96
q0 57 -37 95.5t-98 38.5q-60 0 -96.5 -37.5t-36.5 -96.5q0 -58 37 -96t96 -38z" />
    <glyph glyph-name="ntilde" unicode="&#xf1;" horiz-adv-x="641" 
d="M253 789q32 0 61.5 -15.5t50 -30.5t29.5 -15q34 0 34 58h97q4 -76 -30.5 -119.5t-100.5 -43.5q-30 0 -60 15.5t-51 30.5t-30 15q-33 0 -34 -58h-96q-5 76 29.5 119.5t100.5 43.5zM574 0h-156v296q0 49 -23.5 76.5t-69.5 27.5t-71 -29t-25 -75v-296h-157v534h156v-70h1
q20 33 54 52q49 28 97 28q96 0 145 -61t49 -151v-332z" />
    <glyph glyph-name="ograve" unicode="&#xf2;" horiz-adv-x="661" 
d="M115 810h179l107 -187h-128zM39 266q0 120 85 199q86 81 208 81q121 0 206 -80q84 -79 84 -197q0 -120 -85 -201q-86 -80 -207 -80q-124 0 -207 79q-84 79 -84 199zM199 268q0 -59 38 -99q38 -38 94 -38q57 0 94 38.5t37 98.5q0 59 -38 97q-38 39 -94 39t-93 -39
q-38 -38 -38 -97z" />
    <glyph glyph-name="oacute" unicode="&#xf3;" horiz-adv-x="661" 
d="M390 623h-128l107 187h179zM39 266q0 120 85 199q86 81 208 81q121 0 206 -80q84 -79 84 -197q0 -120 -85 -201q-86 -80 -207 -80q-124 0 -207 79q-84 79 -84 199zM199 268q0 -59 38 -99q38 -38 94 -38q57 0 94 38.5t37 98.5q0 59 -38 97q-38 39 -94 39t-93 -39
q-38 -38 -38 -97z" />
    <glyph glyph-name="ocircumflex" unicode="&#xf4;" horiz-adv-x="661" 
d="M139 624l120 174h147l120 -174h-132l-61 91l-61 -91h-133zM39 266q0 120 85 199q86 81 208 81q121 0 206 -80q84 -79 84 -197q0 -120 -85 -201q-86 -80 -207 -80q-124 0 -207 79q-84 79 -84 199zM199 268q0 -59 38 -99q38 -38 94 -38q57 0 94 38.5t37 98.5q0 59 -38 97
q-38 39 -94 39t-93 -39q-38 -38 -38 -97z" />
    <glyph glyph-name="otilde" unicode="&#xf5;" horiz-adv-x="661" 
d="M259 789q32 0 61.5 -15.5t50 -30.5t29.5 -15q34 0 34 58h97q4 -76 -30.5 -119.5t-100.5 -43.5q-30 0 -60 15.5t-51 30.5t-30 15q-33 0 -34 -58h-96q-5 76 29.5 119.5t100.5 43.5zM39 266q0 120 85 199q86 81 208 81q121 0 206 -80q84 -79 84 -197q0 -120 -85 -201
q-86 -80 -207 -80q-124 0 -207 79q-84 79 -84 199zM199 268q0 -59 38 -99q38 -38 94 -38q57 0 94 38.5t37 98.5q0 59 -38 97q-38 39 -94 39t-93 -39q-38 -38 -38 -97z" />
    <glyph glyph-name="odieresis" unicode="&#xf6;" horiz-adv-x="661" 
d="M126 704q0 36 25 61.5t61 25.5t61.5 -25.5t25.5 -61.5q0 -37 -25.5 -62t-61.5 -25t-61 25t-25 62zM364 704q0 36 25 61.5t61 25.5t61.5 -25.5t25.5 -61.5q0 -37 -25.5 -62t-61.5 -25t-61 25t-25 62zM39 266q0 120 85 199q86 81 208 81q121 0 206 -80q84 -79 84 -197
q0 -120 -85 -201q-86 -80 -207 -80q-124 0 -207 79q-84 79 -84 199zM199 268q0 -59 38 -99q38 -38 94 -38q57 0 94 38.5t37 98.5q0 59 -38 97q-38 39 -94 39t-93 -39q-38 -38 -38 -97z" />
    <glyph glyph-name="divide" unicode="&#xf7;" horiz-adv-x="592" 
d="M296 686q36 0 60.5 -25t24.5 -61q0 -35 -25 -60t-60 -25t-60 25t-25 60t25 60.5t60 25.5zM47 295v144h498v-144h-498zM296 47q-35 0 -60 25.5t-25 60.5q0 36 24.5 61t60.5 25t60.5 -25t24.5 -61t-24.5 -61t-60.5 -25z" />
    <glyph glyph-name="oslash" unicode="&#xf8;" horiz-adv-x="663" 
d="M565 558l57 -56l-60 -60q61 -73 61 -173q0 -120 -85 -201q-86 -80 -207 -80q-96 0 -172 52l-63 -63l-57 56l61 61q-60 74 -60 172q0 118 85 199t208 81q95 0 169 -50zM199 268q0 -38 13 -63l185 184q-29 16 -65 16q-56 0 -95 -39q-38 -38 -38 -98zM332 130q56 0 94 38
q38 40 38 100q0 34 -13 64l-187 -185q32 -17 68 -17z" />
    <glyph glyph-name="ugrave" unicode="&#xf9;" horiz-adv-x="640" 
d="M101 810h179l107 -187h-128zM67 534h156v-298q0 -102 92 -102q46 0 71 28t25 74v298h156v-534h-154v66h-1q-53 -77 -149 -77q-95 0 -146 60q-50 62 -50 150v335z" />
    <glyph glyph-name="uacute" unicode="&#xfa;" horiz-adv-x="641" 
d="M383 623h-128l107 187h180zM67 534h156v-298q0 -102 92 -102q46 0 71 28t25 74v298h156v-534h-154v66h-1q-53 -77 -149 -77q-95 0 -146 60q-50 62 -50 150v335z" />
    <glyph glyph-name="ucircumflex" unicode="&#xfb;" horiz-adv-x="640" 
d="M123 624l121 174h147l120 -174h-132l-62 91l-60 -91h-134zM67 534h156v-298q0 -102 92 -102q46 0 71 28t25 74v298h156v-534h-154v66h-1q-53 -77 -149 -77q-95 0 -146 60q-50 62 -50 150v335z" />
    <glyph glyph-name="udieresis" unicode="&#xfc;" horiz-adv-x="639" 
d="M112 704q0 36 25 61.5t61 25.5t61.5 -25.5t25.5 -61.5q0 -37 -25.5 -62t-61.5 -25t-61 25t-25 62zM350 704q0 36 25 61.5t61 25.5t61.5 -25.5t25.5 -61.5q0 -37 -25.5 -62t-61.5 -25t-61 25t-25 62zM67 534h156v-298q0 -102 92 -102q46 0 71 28t25 74v298h156v-534h-154
v66h-1q-53 -77 -149 -77q-95 0 -146 60q-50 62 -50 150v335z" />
    <glyph glyph-name="yacute" unicode="&#xfd;" horiz-adv-x="621" 
d="M385 623h-128l107 187h179zM238 57l-225 477h172l133 -305l119 305h161l-324 -797h-167z" />
    <glyph glyph-name="thorn" unicode="&#xfe;" horiz-adv-x="686" 
d="M228 814v-345h2q58 75 162 75q112 0 183 -84q71 -85 71 -192q0 -109 -73 -194q-73 -84 -185 -84q-101 0 -158 69h-2v-323h-156v1078h156zM224 268q0 -59 38 -99q38 -38 94 -38t94 38q38 40 38 99q0 60 -39 97q-38 38 -94 38q-55 0 -93 -38t-38 -97z" />
    <glyph glyph-name="ydieresis" unicode="&#xff;" horiz-adv-x="621" 
d="M108 704q0 36 25 61.5t61 25.5t61.5 -25.5t25.5 -61.5q0 -37 -25.5 -62t-61.5 -25t-61 25t-25 62zM346 704q0 36 25 61.5t61 25.5t61.5 -25.5t25.5 -61.5q0 -37 -25.5 -62t-61.5 -25t-61 25t-25 62zM238 57l-225 477h172l133 -305l119 305h161l-324 -797h-167z" />
    <glyph glyph-name="Amacron" unicode="&#x100;" horiz-adv-x="792" 
d="M213 868v116h365v-116h-365zM162 0h-163l299 783h195l300 -783h-167l-59 158h-347zM394 626l-118 -318h236z" />
    <glyph glyph-name="amacron" unicode="&#x101;" horiz-adv-x="595" 
d="M104 628v117h364v-117h-364zM222 -10q-76 0 -128 43t-52 116v2q0 94 79 132q68 32 159 32h53q42 0 42 39q0 29 -22.5 47.5t-63.5 18.5q-79 0 -119 -72l-119 71q69 127 245 127q108 0 170 -56t62 -159v-331h-144v66l-2 1q-54 -77 -160 -77zM267 104q49 0 78 29t29 74v12
h-94q-35 0 -58 -16t-23 -45q0 -26 18.5 -40t49.5 -14z" />
    <glyph glyph-name="Abreve" unicode="&#x102;" horiz-adv-x="792" 
d="M394 859q-76 0 -129 50q-54 51 -61 129h116q13 -73 74 -73q30 0 49.5 19.5t24.5 53.5h116q-8 -81 -60.5 -130t-129.5 -49zM162 0h-163l299 783h195l300 -783h-167l-59 158h-347zM394 626l-118 -318h236z" />
    <glyph glyph-name="abreve" unicode="&#x103;" horiz-adv-x="595" 
d="M111 798h117q5 -34 24 -53t49 -19q29 0 49 19.5t25 52.5h117q-7 -78 -61 -129q-52 -49 -130 -49t-130 49q-53 49 -60 129zM222 -10q-76 0 -128 43t-52 116v2q0 94 79 132q68 32 159 32h53q42 0 42 39q0 29 -22.5 47.5t-63.5 18.5q-79 0 -119 -72l-119 71q69 127 245 127
q108 0 170 -56t62 -159v-331h-144v66l-2 1q-54 -77 -160 -77zM267 104q49 0 78 29t29 74v12h-94q-35 0 -58 -16t-23 -45q0 -26 18.5 -40t49.5 -14z" />
    <glyph glyph-name="Aogonek" unicode="&#x104;" horiz-adv-x="792" 
d="M696 -112q0 -26 22 -40.5t51 -14.5q12 0 21 1v-90q-29 -10 -77 -10q-63 0 -109 30q-46 28 -46 84q0 77 111 152h-43l-59 158h-347l-58 -158h-163l299 783h195l300 -783q-97 -61 -97 -112zM276 308h236l-118 318z" />
    <glyph glyph-name="aogonek" unicode="&#x105;" horiz-adv-x="597" 
d="M528 331v-331l-27 -21q-16 -13 -43 -43q-26 -31 -26 -48q0 -26 22 -40.5t50 -14.5q13 0 22 1v-90q-29 -10 -77 -10q-63 0 -109 30q-46 28 -46 84q0 76 111 152h-21v66l-2 1q-54 -77 -160 -77q-76 0 -128 43t-52 116v2q0 94 79 132q68 32 159 32h53q42 0 42 39
q0 29 -22.5 47.5t-63.5 18.5q-79 0 -119 -72l-119 71q69 127 245 127q108 0 170 -56t62 -159zM374 207v12h-94q-35 0 -58 -16t-23 -45q0 -26 18.5 -40t49.5 -14q49 0 78 29t29 74z" />
    <glyph glyph-name="Cacute" unicode="&#x106;" horiz-adv-x="832" 
d="M500 855h-128l107 187h179zM43 391q0 169 118 286q118 118 288 118q119 0 217 -62q99 -61 138 -169l-148 -68q-25 66 -80.5 103.5t-127.5 37.5q-101 0 -169 -71t-68 -173q0 -105 67 -176q68 -71 170 -71q71 0 127 39.5t83 105.5l149 -69q-39 -108 -141 -171
q-101 -62 -220 -62q-172 0 -287 115q-116 116 -116 287z" />
    <glyph glyph-name="cacute" unicode="&#x107;" horiz-adv-x="605" 
d="M393 623h-129l108 187h179zM327 -12q-126 0 -206 79q-81 79 -81 199q0 118 84 199t204 81q90 0 158 -43.5t94 -121.5l-137 -57q-34 79 -115 79q-55 0 -91.5 -37t-36.5 -98q0 -60 35.5 -98t92.5 -38q84 0 118 79l138 -57q-30 -80 -98 -123t-159 -43z" />
    <glyph glyph-name="Ccircumflex" unicode="&#x108;" horiz-adv-x="832" 
d="M257 854l121 174h146l121 -174h-132l-62 91l-60 -91h-134zM43 391q0 169 118 286q118 118 288 118q119 0 217 -62q99 -61 138 -169l-148 -68q-25 66 -80.5 103.5t-127.5 37.5q-101 0 -169 -71t-68 -173q0 -105 67 -176q68 -71 170 -71q71 0 127 39.5t83 105.5l149 -69
q-39 -108 -141 -171q-101 -62 -220 -62q-172 0 -287 115q-116 116 -116 287z" />
    <glyph glyph-name="ccircumflex" unicode="&#x109;" horiz-adv-x="605" 
d="M138 624l121 174h147l120 -174h-132l-61 91l-62 -91h-133zM327 -12q-126 0 -206 79q-81 79 -81 199q0 118 84 199t204 81q90 0 158 -43.5t94 -121.5l-137 -57q-34 79 -115 79q-55 0 -91.5 -37t-36.5 -98q0 -60 35.5 -98t92.5 -38q84 0 118 79l138 -57q-30 -80 -98 -123
t-159 -43z" />
    <glyph glyph-name="Cdotaccent" unicode="&#x10a;" horiz-adv-x="832" 
d="M360 942q0 40 28 68t67 28q40 0 68.5 -28t28.5 -68q0 -39 -28.5 -67t-68.5 -28q-39 0 -67 28t-28 67zM43 391q0 169 118 286q118 118 288 118q119 0 217 -62q99 -61 138 -169l-148 -68q-25 66 -80.5 103.5t-127.5 37.5q-101 0 -169 -71t-68 -173q0 -105 67 -176
q68 -71 170 -71q71 0 127 39.5t83 105.5l149 -69q-39 -108 -141 -171q-101 -62 -220 -62q-172 0 -287 115q-116 116 -116 287z" />
    <glyph glyph-name="cdotaccent" unicode="&#x10b;" horiz-adv-x="605" 
d="M237 713q0 39 28 67t67 28q40 0 68.5 -28t28.5 -67q0 -40 -28.5 -68t-68.5 -28q-39 0 -67 28t-28 68zM327 -12q-126 0 -206 79q-81 79 -81 199q0 118 84 199t204 81q90 0 158 -43.5t94 -121.5l-137 -57q-34 79 -115 79q-55 0 -91.5 -37t-36.5 -98q0 -60 35.5 -98
t92.5 -38q84 0 118 79l138 -57q-30 -80 -98 -123t-159 -43z" />
    <glyph glyph-name="Ccaron" unicode="&#x10c;" horiz-adv-x="832" 
d="M451 937l62 91h132l-121 -174h-146l-121 174h134zM43 391q0 169 118 286q118 118 288 118q119 0 217 -62q99 -61 138 -169l-148 -68q-25 66 -80.5 103.5t-127.5 37.5q-101 0 -169 -71t-68 -173q0 -105 67 -176q68 -71 170 -71q71 0 127 39.5t83 105.5l149 -69
q-39 -108 -141 -171q-101 -62 -220 -62q-172 0 -287 115q-116 116 -116 287z" />
    <glyph glyph-name="ccaron" unicode="&#x10d;" horiz-adv-x="605" 
d="M333 707l61 91h132l-120 -174h-147l-121 174h133zM327 -12q-126 0 -206 79q-81 79 -81 199q0 118 84 199t204 81q90 0 158 -43.5t94 -121.5l-137 -57q-34 79 -115 79q-55 0 -91.5 -37t-36.5 -98q0 -60 35.5 -98t92.5 -38q84 0 118 79l138 -57q-30 -80 -98 -123t-159 -43z
" />
    <glyph glyph-name="Dcaron" unicode="&#x10e;" horiz-adv-x="819" 
d="M338 937l62 91h132l-120 -174h-147l-120 174h133zM774 393q0 -177 -120 -285t-325 -108h-238v783h241q204 0 323 -104t119 -286zM610 393q0 113 -76 174q-76 63 -196 63h-82v-477h79q125 0 200 63q75 64 75 177z" />
    <glyph glyph-name="dcaron" unicode="&#x10f;" horiz-adv-x="705" 
d="M784 581h-109l14 234h164zM458 473v341h155v-814h-151v68h-2q-52 -78 -166 -78q-113 0 -183 82q-71 83 -71 196q0 108 73 191q73 85 183 85q100 0 160 -71h2zM462 268q0 59 -37.5 97t-94.5 38t-94.5 -38t-37.5 -97t38 -99q38 -38 94 -38t94 38q38 40 38 99z" />
    <glyph glyph-name="Dcroat" unicode="&#x110;" horiz-adv-x="839" 
d="M112 470v313h240q206 0 324 -103t118 -287q0 -177 -120 -285t-325 -108h-237v320h-95v150h95zM274 320v-167h80q124 0 199 63q75 64 75 177t-76 174q-76 63 -196 63h-82v-160h167v-150h-167z" />
    <glyph glyph-name="dslash" unicode="&#x111;" horiz-adv-x="686" 
d="M614 725h66v-106h-66v-619h-152v68h-2q-52 -78 -166 -78q-113 0 -183 82q-71 83 -71 196q0 108 73 191q73 85 183 85q100 0 160 -71h2v146h-159v106h159v90h156v-90zM462 268q0 59 -37.5 97t-94.5 38t-94.5 -38t-37.5 -97t38 -99q38 -38 94 -38t94 38q38 40 38 99z" />
    <glyph glyph-name="Emacron" unicode="&#x112;" horiz-adv-x="663" 
d="M167 868v116h364v-116h-364zM604 631h-353v-159h316v-152h-316v-169h355v-151h-515v783h513v-152z" />
    <glyph glyph-name="emacron" unicode="&#x113;" horiz-adv-x="627" 
d="M504 628h-364v117h364v-117zM586 224h-388q7 -48 44 -76.5t88 -28.5q36 0 68.5 17.5t50.5 46.5l113 -74q-67 -121 -230 -121q-124 0 -209 78q-84 79 -84 202q0 114 83 197q83 82 200 82q118 0 192 -74t74 -193q0 -32 -2 -56zM202 327h230q-3 38 -33.5 65.5t-80.5 27.5
q-49 0 -80 -31q-31 -30 -36 -62z" />
    <glyph glyph-name="Edotaccent" unicode="&#x116;" horiz-adv-x="663" 
d="M253 942q0 40 28 68t67 28q40 0 68.5 -28t28.5 -68q0 -39 -28.5 -67t-68.5 -28q-39 0 -67 28t-28 67zM251 472h316v-152h-316v-169h355v-151h-515v783h513v-152h-353v-159z" />
    <glyph glyph-name="edotaccent" unicode="&#x117;" horiz-adv-x="627" 
d="M228 713q0 39 28 67t67 28q40 0 68 -28t28 -67q0 -40 -28 -68t-68 -28q-39 0 -67 28t-28 68zM586 224h-388q7 -48 44 -76.5t88 -28.5q36 0 68.5 17.5t50.5 46.5l113 -74q-67 -121 -230 -121q-124 0 -209 78q-84 79 -84 202q0 114 83 197q83 82 200 82q118 0 192 -74
t74 -193q0 -32 -2 -56zM202 327h230q-3 38 -33.5 65.5t-80.5 27.5q-49 0 -80 -31q-31 -30 -36 -62z" />
    <glyph glyph-name="Eogonek" unicode="&#x118;" horiz-adv-x="663" 
d="M251 151h355v-151q-97 -61 -97 -112q0 -26 22 -40.5t50 -14.5q13 0 22 1v-90q-30 -10 -77 -10q-62 0 -109 30q-46 28 -46 84q0 76 111 152h-391v783h513v-152h-353v-159h316v-152h-316v-169z" />
    <glyph glyph-name="eogonek" unicode="&#x119;" horiz-adv-x="627" 
d="M588 280q0 -32 -2 -56h-388q7 -48 44 -76.5t88 -28.5q36 0 68.5 17.5t50.5 46.5l113 -74q-22 -39 -67 -76l-71 -59q-58 -50 -58 -86q0 -26 22 -40.5t50 -14.5q13 0 22 1v-90q-29 -10 -77 -10q-63 0 -109 30q-46 28 -46 84q0 68 89 140q-119 4 -200 82q-78 78 -78 198
q0 114 83 197q83 82 200 82q118 0 192 -74t74 -193zM202 327h230q-3 38 -33.5 65.5t-80.5 27.5q-49 0 -80 -31q-31 -30 -36 -62z" />
    <glyph glyph-name="Ecaron" unicode="&#x11a;" horiz-adv-x="663" 
d="M349 937l61 91h132l-120 -174h-147l-120 174h133zM251 472h316v-152h-316v-169h355v-151h-515v783h513v-152h-353v-159z" />
    <glyph glyph-name="ecaron" unicode="&#x11b;" horiz-adv-x="627" 
d="M261 798l60 -91l62 91h132l-120 -174h-147l-121 174h134zM586 224h-388q7 -48 44 -76.5t88 -28.5q36 0 68.5 17.5t50.5 46.5l113 -74q-67 -121 -230 -121q-124 0 -209 78q-84 79 -84 202q0 114 83 197q83 82 200 82q118 0 192 -74t74 -193q0 -32 -2 -56zM202 327h230
q-3 38 -33.5 65.5t-80.5 27.5q-49 0 -80 -31q-31 -30 -36 -62z" />
    <glyph glyph-name="Gcircumflex" unicode="&#x11c;" horiz-adv-x="858" 
d="M258 854l121 174h146l121 -174h-132l-62 91l-60 -91h-134zM208 392q0 -103 68 -177q67 -73 173 -73q77 0 132 36t70 96h-238v147h407v-61q0 -117 -54 -204q-104 -168 -317 -168q-179 0 -293 116q-113 118 -113 287q0 170 119 287q120 117 289 117q136 0 228 -68
q91 -67 123 -153l-143 -70q-23 57 -74 96q-51 42 -136 42q-101 0 -171 -72q-70 -71 -70 -178z" />
    <glyph glyph-name="gcircumflex" unicode="&#x11d;" horiz-adv-x="682" 
d="M144 624l120 174h147l120 -174h-132l-62 91l-60 -91h-133zM51 -114l127 73q45 -90 142 -90q62 0 98 32t36 93v81h-2q-56 -71 -154 -71q-114 0 -186 77t-72 191q0 108 70 188q70 82 182 82q101 0 162 -73h2v65h153v-536q0 -124 -81 -195q-79 -70 -207 -70q-198 0 -270 153
zM458 272q0 58 -37 94.5t-93 36.5q-55 0 -92.5 -37t-37.5 -94q0 -59 36.5 -95.5t93.5 -36.5q56 0 93 37t37 95z" />
    <glyph glyph-name="Gbreve" unicode="&#x11e;" horiz-adv-x="857" 
d="M451 859q-76 0 -129 50q-54 51 -61 129h117q6 -34 25 -53.5t48 -19.5q30 0 49.5 19.5t24.5 53.5h117q-7 -79 -61 -130q-52 -49 -130 -49zM208 392q0 -103 68 -177q67 -73 173 -73q77 0 132 36t70 96h-238v147h407v-61q0 -117 -54 -204q-104 -168 -317 -168
q-179 0 -293 116q-113 118 -113 287q0 170 119 287q120 117 289 117q136 0 228 -68q91 -67 123 -153l-143 -70q-23 57 -74 96q-51 42 -136 42q-101 0 -171 -72q-70 -71 -70 -178z" />
    <glyph glyph-name="gbreve" unicode="&#x11f;" horiz-adv-x="682" 
d="M338 620q-77 0 -129 49q-54 51 -61 129h117q12 -72 73 -72q30 0 50 19.5t25 52.5h116q-7 -78 -61 -129q-52 -49 -130 -49zM51 -114l127 73q45 -90 142 -90q62 0 98 32t36 93v81h-2q-56 -71 -154 -71q-114 0 -186 77t-72 191q0 108 70 188q70 82 182 82q101 0 162 -73h2
v65h153v-536q0 -124 -81 -195q-79 -70 -207 -70q-198 0 -270 153zM458 272q0 58 -37 94.5t-93 36.5q-55 0 -92.5 -37t-37.5 -94q0 -59 36.5 -95.5t93.5 -36.5q56 0 93 37t37 95z" />
    <glyph glyph-name="Gdotaccent" unicode="&#x120;" horiz-adv-x="857" 
d="M356 942q0 40 28 68t67 28q40 0 68 -28t28 -68q0 -39 -28 -67t-68 -28q-39 0 -67 28t-28 67zM208 392q0 -103 68 -177q67 -73 173 -73q77 0 132 36t70 96h-238v147h407v-61q0 -117 -54 -204q-104 -168 -317 -168q-179 0 -293 116q-113 118 -113 287q0 170 119 287
q120 117 289 117q136 0 228 -68q91 -67 123 -153l-143 -70q-23 57 -74 96q-51 42 -136 42q-101 0 -171 -72q-70 -71 -70 -178z" />
    <glyph glyph-name="gdotaccent" unicode="&#x121;" horiz-adv-x="682" 
d="M229 713q0 39 28 67t67 28q40 0 68 -28t28 -67q0 -40 -28 -68t-68 -28q-39 0 -67 28t-28 68zM51 -114l127 73q45 -90 142 -90q62 0 98 32t36 93v81h-2q-56 -71 -154 -71q-114 0 -186 77t-72 191q0 108 70 188q70 82 182 82q101 0 162 -73h2v65h153v-536q0 -124 -81 -195
q-79 -70 -207 -70q-198 0 -270 153zM458 272q0 58 -37 94.5t-93 36.5q-55 0 -92.5 -37t-37.5 -94q0 -59 36.5 -95.5t93.5 -36.5q56 0 93 37t37 95z" />
    <glyph glyph-name="Gcommaaccent" unicode="&#x122;" horiz-adv-x="857" 
d="M208 392q0 -103 68 -177q67 -73 173 -73q77 0 132 36t70 96h-238v147h407v-61q0 -117 -54 -204q-104 -168 -317 -168q-179 0 -293 116q-113 118 -113 287q0 170 119 287q120 117 289 117q136 0 228 -68q91 -67 123 -153l-143 -70q-23 57 -74 96q-51 42 -136 42
q-101 0 -171 -72q-70 -71 -70 -178zM527 -164v-5q0 -52 -31 -102.5t-84 -86.5l-48 46q58 39 87 99q-13 -6 -29 -6q-31 0 -51.5 21.5t-20.5 54.5q0 36 24.5 60.5t59.5 24.5q40 0 66.5 -29.5t26.5 -76.5z" />
    <glyph glyph-name="gcommaaccent" unicode="&#x123;" horiz-adv-x="682" 
d="M235 722v4q0 53 30.5 103t83.5 86l49 -46q-60 -37 -87 -98q17 5 29 5q30 0 51 -21.5t21 -54.5q0 -35 -25 -59.5t-60 -24.5q-40 0 -66 29.5t-26 76.5zM51 -114l127 73q45 -90 142 -90q62 0 98 32t36 93v81h-2q-56 -71 -154 -71q-114 0 -186 77t-72 191q0 108 70 188
q70 82 182 82q101 0 162 -73h2v65h153v-536q0 -124 -81 -195q-79 -70 -207 -70q-198 0 -270 153zM458 272q0 58 -37 94.5t-93 36.5q-55 0 -92.5 -37t-37.5 -94q0 -59 36.5 -95.5t93.5 -36.5q56 0 93 37t37 95z" />
    <glyph glyph-name="Hbar" unicode="&#x126;" horiz-adv-x="854" 
d="M263 784v-91h328v91h161v-91h82v-110h-82v-583h-161v317h-328v-317h-162v583h-82v110h82v91h162zM591 583h-328v-109h328v109z" />
    <glyph glyph-name="hbar" unicode="&#x127;" horiz-adv-x="639" 
d="M572 0h-156v296q0 47 -23.5 75.5t-68.5 28.5q-46 0 -71 -29t-25 -73v-298h-156v619h-67v106h67v90h156v-90h159v-106h-159v-148h1q51 73 147 73t146 -62t50 -150v-332z" />
    <glyph glyph-name="Itilde" unicode="&#x128;" horiz-adv-x="345" 
d="M102 1019q32 0 61.5 -15.5t50 -30.5t29.5 -15q34 0 34 58h97q4 -76 -30.5 -119.5t-100.5 -43.5q-30 0 -60 15.5t-51 30.5t-30 15q-33 0 -34 -58h-96q-5 76 29.5 119.5t100.5 43.5zM88 0v783h162v-783h-162z" />
    <glyph glyph-name="itilde" unicode="&#x129;" horiz-adv-x="301" 
d="M79 789q32 0 61.5 -15.5t50 -30.5t29.5 -15q34 0 34 58h97q4 -76 -30.5 -119.5t-100.5 -43.5q-30 0 -60 15.5t-51 30.5t-30 15q-33 0 -34 -58h-96q-5 76 29.5 119.5t100.5 43.5zM226 0h-157v534h157v-534z" />
    <glyph glyph-name="Imacron" unicode="&#x12a;" horiz-adv-x="345" 
d="M-6 868v116h357v-116h-357zM91 0v783h162v-783h-162z" />
    <glyph glyph-name="imacron" unicode="&#x12b;" horiz-adv-x="301" 
d="M-20 628v117h342v-117h-342zM229 0h-157v534h157v-534z" />
    <glyph glyph-name="Ibreve" unicode="&#x12c;" horiz-adv-x="345" 
d="M172 859q-75 0 -130 50q-54 51 -61 129h118q12 -73 73 -73q30 0 49.5 19.5t24.5 53.5h117q-7 -79 -61 -130q-52 -49 -130 -49zM91 0v783h162v-783h-162z" />
    <glyph glyph-name="ibreve" unicode="&#x12d;" horiz-adv-x="301" 
d="M150 620q-77 0 -130 49q-54 51 -61 129h118q5 -34 24 -53t49 -19t50 19.5t25 52.5h116q-7 -78 -61 -129q-52 -49 -130 -49zM229 0h-157v534h157v-534z" />
    <glyph glyph-name="Iogonek" unicode="&#x12e;" horiz-adv-x="345" 
d="M91 783h162v-783q-97 -61 -97 -112q0 -26 22 -40.5t50 -14.5q13 0 22 1v-90q-30 -10 -76 -10q-64 0 -110 30q-46 28 -46 84q0 76 111 152h-38v783z" />
    <glyph glyph-name="iogonek" unicode="&#x12f;" horiz-adv-x="301" 
d="M149 624q-39 0 -67.5 28t-28.5 68t28.5 68.5t67.5 28.5q41 0 69.5 -28t28.5 -69q0 -40 -28.5 -68t-69.5 -28zM72 534h157v-534q-41 -25 -69 -55.5t-28 -56.5t22 -40.5t50 -14.5q13 0 22 1v-90q-29 -10 -77 -10q-63 0 -110 29q-45 29 -45 85q0 75 110 152h-32v534z" />
    <glyph glyph-name="Idot" unicode="&#x130;" horiz-adv-x="345" 
d="M77 942q0 40 28 68t67 28q40 0 68.5 -28t28.5 -68q0 -39 -28.5 -67t-68.5 -28q-39 0 -67 28t-28 67zM254 783v-783h-163v783h163z" />
    <glyph glyph-name="dotlessi" unicode="&#x131;" horiz-adv-x="301" 
d="M229 0h-157v534h157v-534z" />
    <glyph glyph-name="IJ" unicode="&#x132;" horiz-adv-x="967" 
d="M253 783v-783h-162v783h162zM720 783h162v-545q0 -117 -74 -183q-74 -65 -183 -65q-183 0 -251 168l137 76q35 -89 111 -89q46 0 72 27.5t26 77.5v533z" />
    <glyph glyph-name="ij" unicode="&#x133;" horiz-adv-x="610" 
d="M149 817q41 0 69.5 -28t28.5 -69q0 -40 -28.5 -68t-69.5 -28q-39 0 -67.5 28t-28.5 68t28.5 68.5t67.5 28.5zM458 817q41 0 69.5 -28.5t28.5 -68.5t-28.5 -68t-69.5 -28q-40 0 -68 28t-28 68t28 68.5t68 28.5zM229 0h-157v534h157v-534zM381 534h156v-574
q0 -114 -56 -169t-173 -55q-34 0 -55 7v131q13 -3 27 -3q52 0 76.5 22.5t24.5 74.5v566z" />
    <glyph glyph-name="Kcommaaccent" unicode="&#x136;" horiz-adv-x="736" 
d="M91 783h161v-341l269 341h202l-299 -374l319 -409h-209l-282 372v-372h-161v783zM470 -164v-5q0 -52 -31 -102.5t-84 -86.5l-48 46q59 39 87 99q-14 -6 -29 -6q-31 0 -51.5 21.5t-20.5 54.5q0 36 24.5 60.5t59.5 24.5q40 0 66.5 -29.5t26.5 -76.5z" />
    <glyph glyph-name="kcommaaccent" unicode="&#x137;" horiz-adv-x="619" 
d="M72 0v815h156v-491l185 210h199l-215 -246l221 -288h-197l-189 253h-4v-253h-156zM400 -164v-5q0 -52 -31 -102.5t-84 -86.5l-48 46q59 39 87 99q-14 -6 -29 -6q-31 0 -51.5 21.5t-20.5 54.5q0 36 24.5 60.5t59.5 24.5q40 0 66.5 -29.5t26.5 -76.5z" />
    <glyph glyph-name="Lacute" unicode="&#x139;" horiz-adv-x="604" 
d="M247 855h-128l107 187h179zM253 154h335v-154h-497v783h162v-629z" />
    <glyph glyph-name="lacute" unicode="&#x13a;" horiz-adv-x="301" 
d="M213 887h-128l107 188h180zM72 0v815h157v-815h-157z" />
    <glyph glyph-name="Lcommaaccent" unicode="&#x13b;" horiz-adv-x="604" 
d="M252 154h335v-154h-496v783h161v-629zM426 -164v-5q0 -52 -31 -102.5t-84 -86.5l-48 46q59 39 87 99q-14 -6 -29 -6q-31 0 -51.5 21.5t-20.5 54.5q0 36 24.5 60.5t59.5 24.5q40 0 66.5 -29.5t26.5 -76.5z" />
    <glyph glyph-name="lcommaaccent" unicode="&#x13c;" horiz-adv-x="301" 
d="M72 0v815h157v-815h-157zM236 -164v-5q0 -52 -31 -102.5t-84 -86.5l-48 46q59 39 87 99q-14 -6 -29 -6q-31 0 -51.5 21.5t-20.5 54.5q0 36 24.5 60.5t59.5 24.5q40 0 66.5 -29.5t26.5 -76.5z" />
    <glyph glyph-name="Lcaron" unicode="&#x13d;" horiz-adv-x="614" 
d="M519 571h-109l14 234h163zM252 154h335v-154h-496v783h161v-629z" />
    <glyph glyph-name="lcaron" unicode="&#x13e;" horiz-adv-x="320" 
d="M72 0v815h157v-815h-157zM399 581h-109l14 234h163z" />
    <glyph glyph-name="Ldot" unicode="&#x13f;" horiz-adv-x="614" 
d="M252 154h335v-154h-496v783h161v-629zM489 487q40 0 69 -28.5t29 -68.5t-28.5 -68.5t-69.5 -28.5q-39 0 -67.5 28.5t-28.5 68.5t28.5 68.5t67.5 28.5z" />
    <glyph glyph-name="ldot" unicode="&#x140;" horiz-adv-x="474" 
d="M72 0v815h157v-815h-157zM383 467q41 0 69.5 -28t28.5 -69q0 -40 -28.5 -68.5t-69.5 -28.5q-39 0 -67 28.5t-28 68.5t28 68.5t67 28.5z" />
    <glyph glyph-name="Lslash" unicode="&#x141;" horiz-adv-x="646" 
d="M30 386l103 47v350h161v-277l205 93v-149l-205 -94v-200h335v-156h-496v284l-103 -47v149z" />
    <glyph glyph-name="lslash" unicode="&#x142;" horiz-adv-x="434" 
d="M142 391v424h155v-339l103 57v-150l-103 -55v-328h-155v241l-102 -55v150z" />
    <glyph glyph-name="Nacute" unicode="&#x143;" horiz-adv-x="868" 
d="M517 855h-128l107 187h179zM251 540v-540h-160v783h185l340 -511v511h160v-783h-165z" />
    <glyph glyph-name="nacute" unicode="&#x144;" horiz-adv-x="640" 
d="M371 623h-128l107 187h179zM573 0h-156v296q0 49 -23.5 76.5t-69.5 27.5t-71 -29t-25 -75v-296h-156v534h155v-70h2q30 52 83 67q38 13 67 13q96 0 145 -61t49 -151v-332z" />
    <glyph glyph-name="Ncommaaccent" unicode="&#x145;" horiz-adv-x="868" 
d="M251 540v-540h-160v783h185l340 -511v511h160v-783h-165zM520 -164v-5q0 -52 -31 -102.5t-84 -86.5l-48 46q59 39 87 99q-14 -6 -29 -6q-31 0 -51.5 21.5t-20.5 54.5q0 36 24.5 60.5t59.5 24.5q40 0 66.5 -29.5t26.5 -76.5z" />
    <glyph glyph-name="ncommaaccent" unicode="&#x146;" horiz-adv-x="639" 
d="M572 0h-155v296q0 48 -24 76t-69 28q-46 0 -71 -29t-25 -75v-296h-156v534h155v-70h1q20 33 53 52q49 28 98 28q96 0 144 -61q49 -61 49 -151v-332zM409 -164v-5q0 -52 -31 -102.5t-84 -86.5l-48 46q58 39 87 99q-13 -6 -29 -6q-31 0 -51.5 21.5t-20.5 54.5
q0 36 24.5 60.5t59.5 24.5q40 0 66.5 -29.5t26.5 -76.5z" />
    <glyph glyph-name="Ncaron" unicode="&#x147;" horiz-adv-x="868" 
d="M458 937l62 91h132l-120 -174h-147l-120 174h132zM251 540v-540h-160v783h185l340 -511v511h160v-783h-165z" />
    <glyph glyph-name="ncaron" unicode="&#x148;" horiz-adv-x="640" 
d="M323 707l61 91h133l-121 -174h-146l-121 174h133zM573 0h-156v296q0 49 -23.5 76.5t-69.5 27.5t-71 -29t-25 -75v-296h-156v534h155v-70h2q30 52 83 67q38 13 67 13q96 0 145 -61t49 -151v-332z" />
    <glyph glyph-name="Eng" unicode="&#x14a;" horiz-adv-x="868" 
d="M91 0v783h185l340 -510v510h160v-823q0 -114 -56.5 -169t-171.5 -55q-35 0 -56 7v131q14 -3 27 -3q97 0 97 97v24l-365 548v-540h-160z" />
    <glyph glyph-name="eng" unicode="&#x14b;" horiz-adv-x="639" 
d="M379 544q96 0 144 -61q49 -61 49 -151v-372q0 -114 -56.5 -169t-171.5 -55q-34 0 -55 7v131q13 -3 27 -3q52 0 76.5 22.5t24.5 74.5v328q0 48 -24 76t-69 28q-46 0 -71 -29t-25 -75v-296h-156v534h155v-70h1q20 33 53 52q49 28 98 28z" />
    <glyph glyph-name="Omacron" unicode="&#x14c;" horiz-adv-x="899" 
d="M269 868v116h364v-116h-364zM43 391q0 167 120 286q119 118 289 118q168 0 286 -116q118 -115 118 -284q0 -171 -120 -289q-118 -118 -288 -118q-168 0 -287 117q-118 117 -118 286zM279 566q-70 -71 -70 -174q0 -102 70 -175q71 -72 171 -72t171 72q70 73 70 175
q0 103 -70 174q-71 72 -171 72t-171 -72z" />
    <glyph glyph-name="omacron" unicode="&#x14d;" horiz-adv-x="661" 
d="M149 628v117h364v-117h-364zM39 266q0 120 85 199q86 81 208 81q121 0 206 -80q84 -79 84 -197q0 -120 -85 -201q-86 -80 -207 -80q-124 0 -207 79q-84 79 -84 199zM199 268q0 -59 38 -99q38 -38 94 -38q57 0 94 38.5t37 98.5q0 59 -38 97q-38 39 -94 39t-93 -39
q-38 -38 -38 -97z" />
    <glyph glyph-name="Ohungarumlaut" unicode="&#x150;" horiz-adv-x="899" 
d="M401 852h-123l107 188h175zM622 852h-123l107 188h175zM43 391q0 167 120 286q119 118 289 118q168 0 286 -116q118 -115 118 -284q0 -171 -120 -289q-118 -118 -288 -118q-168 0 -287 117q-118 117 -118 286zM279 566q-70 -71 -70 -174q0 -102 70 -175q71 -72 171 -72
t171 72q70 73 70 175q0 103 -70 174q-71 72 -171 72t-171 -72z" />
    <glyph glyph-name="ohungarumlaut" unicode="&#x151;" horiz-adv-x="661" 
d="M278 623h-124l108 187h174zM499 623h-124l107 187h175zM39 266q0 120 85 199q86 81 208 81q121 0 206 -80q84 -79 84 -197q0 -120 -85 -201q-86 -80 -207 -80q-124 0 -207 79q-84 79 -84 199zM199 268q0 -59 38 -99q38 -38 94 -38q57 0 94 38.5t37 98.5q0 59 -38 97
q-38 39 -94 39t-93 -39q-38 -38 -38 -97z" />
    <glyph glyph-name="OE" unicode="&#x152;" horiz-adv-x="1263" 
d="M1206 0h-515v83q-105 -93 -244 -93q-171 0 -287 115q-117 116 -117 284q0 169 120 287q121 119 289 119q136 0 239 -94v82h512v-152h-354v-159h318v-152h-318v-169h357v-151zM209 392q0 -100 71 -174q70 -72 171 -72q99 0 170 72q71 74 71 174q0 101 -71 174
q-70 73 -170 73q-101 0 -171 -73q-71 -73 -71 -174z" />
    <glyph glyph-name="oe" unicode="&#x153;" horiz-adv-x="1051" 
d="M1010 224h-388q6 -45 42 -75t90 -30q36 0 68.5 17.5t50.5 46.5l113 -74q-67 -121 -230 -121q-132 0 -214 85q-86 -85 -212 -85q-124 0 -207 79q-84 79 -84 199t85 199q86 81 208 81q129 0 211 -85q83 86 203 86q119 0 193 -74t74 -193q0 -29 -3 -56zM626 327h229
q-2 38 -32 65.5t-81 27.5q-49 0 -80 -31q-31 -30 -36 -62zM462 268q0 59 -38 97q-38 39 -94 39t-93 -39q-38 -38 -38 -97t38 -99q38 -38 94 -38q57 0 94 38.5t37 98.5z" />
    <glyph glyph-name="Racute" unicode="&#x154;" horiz-adv-x="731" 
d="M560 1042l-159 -187h-128l107 187h180zM693 0h-180l-162 281h-98v-281h-162v783h309q119 0 198 -65q79 -64 79 -183q0 -170 -161 -229zM253 630v-199h135q54 0 89.5 26t35.5 75t-34.5 73.5t-91.5 24.5h-134z" />
    <glyph glyph-name="racute" unicode="&#x155;" horiz-adv-x="425" 
d="M276 623h-128l107 187h179zM410 536v-154q-18 3 -37 3q-73 0 -109 -42t-36 -117v-226h-156v534h155v-82h1q18 38 58.5 63t92.5 25q20 0 31 -4z" />
    <glyph glyph-name="Rcommaaccent" unicode="&#x156;" horiz-adv-x="731" 
d="M516 306l177 -306h-180l-162 281h-98v-281h-162v783h309q119 0 198 -65q79 -64 79 -183q0 -170 -161 -229zM253 630v-199h135q54 0 89.5 26t35.5 75t-34.5 73.5t-91.5 24.5h-134zM367 -58q40 0 66.5 -29.5t26.5 -76.5v-5q0 -52 -31 -102.5t-84 -86.5l-48 46q59 39 87 99
q-13 -6 -29 -6q-31 0 -51.5 21.5t-20.5 54.5q0 36 24.5 60.5t59.5 24.5z" />
    <glyph glyph-name="rcommaaccent" unicode="&#x157;" horiz-adv-x="425" 
d="M410 536v-154q-18 3 -37 3q-73 0 -109 -42t-36 -117v-226h-156v534h155v-82h1q18 38 58.5 63t92.5 25q20 0 31 -4zM239 -164v-5q0 -52 -31 -102.5t-84 -86.5l-48 46q58 39 87 99q-13 -6 -29 -6q-31 0 -51.5 21.5t-20.5 54.5q0 36 24.5 60.5t59.5 24.5q40 0 66.5 -29.5
t26.5 -76.5z" />
    <glyph glyph-name="Rcaron" unicode="&#x158;" horiz-adv-x="731" 
d="M409 854h-147l-120 174h133l60 -91l62 91h132zM693 0h-180l-162 281h-98v-281h-162v783h309q119 0 198 -65q79 -64 79 -183q0 -170 -161 -229zM253 630v-199h135q54 0 89.5 26t35.5 75t-34.5 73.5t-91.5 24.5h-134z" />
    <glyph glyph-name="rcaron" unicode="&#x159;" horiz-adv-x="425" 
d="M237 707l62 91h132l-120 -174h-147l-121 174h134zM410 536v-154q-18 3 -37 3q-73 0 -109 -42t-36 -117v-226h-156v534h155v-82h1q18 38 58.5 63t92.5 25q20 0 31 -4z" />
    <glyph glyph-name="Sacute" unicode="&#x15a;" horiz-adv-x="652" 
d="M388 855h-128l107 187h179zM338 473q144 -41 209 -96.5t65 -146.5q0 -108 -76 -175t-211 -67q-109 0 -189.5 49t-116.5 135l140 72q24 -52 68 -80.5t103 -28.5q52 0 85.5 23.5t33.5 59.5q0 35 -31 54q-31 22 -117 47q-136 41 -191 95q-60 58 -60 145q0 103 80 169
q79 67 193 67q98 0 169.5 -44t105.5 -125l-134 -73q-41 96 -148 96q-47 0 -75.5 -22t-28.5 -58q0 -34 28.5 -55.5t97.5 -40.5z" />
    <glyph glyph-name="sacute" unicode="&#x15b;" horiz-adv-x="522" 
d="M326 623h-128l107 187h179zM474 161q0 -78 -57.5 -125.5t-155.5 -47.5q-168 0 -233 123l115 68q33 -65 120 -65q29 0 47 11.5t18 27.5q0 17 -18.5 29t-66.5 23q-190 42 -190 173q0 75 60 121q62 48 145 48q72 0 125.5 -29t80.5 -79l-113 -67q-30 51 -97 51
q-24 0 -40 -11.5t-16 -27.5q0 -34 70 -49q103 -21 154.5 -63.5t51.5 -110.5z" />
    <glyph glyph-name="Scircumflex" unicode="&#x15c;" horiz-adv-x="652" 
d="M130 854l120 174h147l121 -174h-133l-61 91l-61 -91h-133zM338 473q144 -41 209 -96.5t65 -146.5q0 -108 -76 -175t-211 -67q-109 0 -189.5 49t-116.5 135l140 72q24 -52 68 -80.5t103 -28.5q52 0 85.5 23.5t33.5 59.5q0 35 -31 54q-31 22 -117 47q-136 41 -191 95
q-60 58 -60 145q0 103 80 169q79 67 193 67q98 0 169.5 -44t105.5 -125l-134 -73q-41 96 -148 96q-47 0 -75.5 -22t-28.5 -58q0 -34 28.5 -55.5t97.5 -40.5z" />
    <glyph glyph-name="scircumflex" unicode="&#x15d;" horiz-adv-x="512" 
d="M78 624l121 174h146l121 -174h-133l-61 91l-61 -91h-133zM474 161q0 -78 -57.5 -125.5t-155.5 -47.5q-168 0 -233 123l115 68q33 -65 120 -65q29 0 47 11.5t18 27.5q0 17 -18.5 29t-66.5 23q-190 42 -190 173q0 75 60 121q62 48 145 48q72 0 125.5 -29t80.5 -79l-113 -67
q-30 51 -97 51q-24 0 -40 -11.5t-16 -27.5q0 -34 70 -49q103 -21 154.5 -63.5t51.5 -110.5z" />
    <glyph glyph-name="Scedilla" unicode="&#x15e;" horiz-adv-x="652" 
d="M612 230q0 -91 -55.5 -154t-153.5 -81q19 -42 19 -96q0 -160 -189 -160q-43 0 -72 9v105q30 -5 52 -5q42 0 63.5 25t21.5 70q0 25 -8 46q-96 8 -167.5 56.5t-103.5 126.5l140 72q24 -52 68 -80.5t103 -28.5q52 0 85.5 23.5t33.5 59.5q0 35 -31 54q-31 22 -117 47
q-136 41 -191 95q-60 58 -60 145q0 103 80 169q79 67 193 67q98 0 169.5 -44t105.5 -125l-134 -73q-41 96 -148 96q-47 0 -75.5 -22t-28.5 -58q0 -34 28.5 -55.5t97.5 -40.5q144 -41 209 -96.5t65 -146.5z" />
    <glyph glyph-name="scedilla" unicode="&#x15f;" horiz-adv-x="502" 
d="M474 161q0 -64 -39.5 -108.5t-110.5 -58.5q19 -38 19 -95q0 -160 -188 -160q-44 0 -73 9v105q30 -5 52 -5q42 0 64 25t22 70q0 25 -9 48q-127 15 -183 120l115 68q33 -65 120 -65q29 0 47 11.5t18 27.5q0 17 -18.5 29t-66.5 23q-190 42 -190 173q0 75 60 121
q62 48 145 48q72 0 125.5 -29t80.5 -79l-113 -67q-30 51 -97 51q-24 0 -40 -11.5t-16 -27.5q0 -34 70 -49q103 -21 154.5 -63.5t51.5 -110.5z" />
    <glyph glyph-name="Scaron" unicode="&#x160;" horiz-adv-x="652" 
d="M324 940l62 92h132l-120 -175h-147l-122 175h135zM338 473q144 -41 209 -96.5t65 -146.5q0 -108 -76 -175t-211 -67q-109 0 -189.5 49t-116.5 135l140 72q24 -52 68 -80.5t103 -28.5q52 0 85.5 23.5t33.5 59.5q0 35 -31 54q-31 22 -117 47q-136 41 -191 95
q-60 58 -60 145q0 103 80 169q79 67 193 67q98 0 169.5 -44t105.5 -125l-134 -73q-41 96 -148 96q-47 0 -75.5 -22t-28.5 -58q0 -34 28.5 -55.5t97.5 -40.5z" />
    <glyph glyph-name="scaron" unicode="&#x161;" horiz-adv-x="512" 
d="M274 709l61 91h133l-121 -174h-146l-123 174h135zM474 161q0 -78 -57.5 -125.5t-155.5 -47.5q-168 0 -233 123l115 68q33 -65 120 -65q29 0 47 11.5t18 27.5q0 17 -18.5 29t-66.5 23q-190 42 -190 173q0 75 60 121q62 48 145 48q72 0 125.5 -29t80.5 -79l-113 -67
q-30 51 -97 51q-24 0 -40 -11.5t-16 -27.5q0 -34 70 -49q103 -21 154.5 -63.5t51.5 -110.5z" />
    <glyph glyph-name="uni0162" unicode="&#x162;" horiz-adv-x="673" 
d="M439 -101q0 -160 -188 -160q-45 0 -73 9v105q30 -5 52 -5q42 0 64 25t22 70q0 30 -12 57h-48v626h-235v157h631v-157h-235v-626q22 -40 22 -101z" />
    <glyph glyph-name="uni0163" unicode="&#x163;" horiz-adv-x="450" 
d="M405 399h-132v-186q0 -45 23 -65t70 -20q21 0 36 4v-129q-33 -10 -73 -10h-9q19 -39 19 -94q0 -160 -189 -160q-32 0 -57 5v107q36 -3 37 -3q42 0 64 25t22 70q0 43 -25 87q-74 51 -74 164v205h-96v135h98v167h154v-167h132v-135z" />
    <glyph glyph-name="Tcaron" unicode="&#x164;" horiz-adv-x="674" 
d="M337 937l62 91h132l-120 -174h-147l-120 174h133zM257 0v626h-236v157h632v-157h-235v-626h-161z" />
    <glyph glyph-name="tcaron" unicode="&#x165;" horiz-adv-x="450" 
d="M450 586h-109l14 229h163zM402 132v-129q-33 -10 -73 -10q-103 0 -157.5 53t-54.5 148v205h-96v135h98v167h154v-167h132v-135h-132v-186q0 -45 23 -65t70 -20q21 0 36 4z" />
    <glyph glyph-name="Tbar" unicode="&#x166;" horiz-adv-x="690" 
d="M134 395h130v231h-235v157h632v-157h-235v-231h130v-132h-130v-263h-162v263h-130v132z" />
    <glyph glyph-name="tbar" unicode="&#x167;" horiz-adv-x="450" 
d="M405 399h-132v-83h103v-103h-103q0 -45 23 -65t70 -20q21 0 36 4v-129q-33 -10 -73 -10q-103 0 -157.5 53t-54.5 148v19h-91v103h91v83h-96v135h98v167h154v-167h132v-135z" />
    <glyph glyph-name="Utilde" unicode="&#x168;" horiz-adv-x="795" 
d="M327 1019q32 0 61.5 -15.5t50 -30.5t29.5 -15q34 0 34 58h97q4 -76 -30.5 -119.5t-100.5 -43.5q-30 0 -60 15.5t-51 30.5t-30 15q-33 0 -34 -58h-96q-5 76 29.5 119.5t100.5 43.5zM552 783h160v-467q0 -156 -81 -241.5t-235 -85.5t-233.5 85t-79.5 236v473h163l-1 -469
q0 -81 41.5 -125t110.5 -44q74 0 114.5 44t40.5 121v473z" />
    <glyph glyph-name="utilde" unicode="&#x169;" horiz-adv-x="640" 
d="M246 789q32 0 61.5 -15.5t50 -30.5t29.5 -15q34 0 34 58h97q4 -76 -30.5 -119.5t-100.5 -43.5q-30 0 -60 15.5t-51 30.5t-30 15q-33 0 -34 -58h-96q-5 76 29.5 119.5t100.5 43.5zM67 534h156v-298q0 -102 92 -102q46 0 71 28t25 74v298h156v-534h-154v66h-1
q-53 -77 -149 -77q-95 0 -146 60q-50 62 -50 150v335z" />
    <glyph glyph-name="Umacron" unicode="&#x16a;" horiz-adv-x="795" 
d="M216 868v116h364v-116h-364zM552 783h160v-467q0 -156 -81 -241.5t-235 -85.5t-233.5 85t-79.5 236v473h163l-1 -469q0 -81 41.5 -125t110.5 -44q74 0 114.5 44t40.5 121v473z" />
    <glyph glyph-name="umacron" unicode="&#x16b;" horiz-adv-x="640" 
d="M135 628v117h364v-117h-364zM67 534h156v-298q0 -102 92 -102q46 0 71 28t25 74v298h156v-534h-154v66h-1q-53 -77 -149 -77q-95 0 -146 60q-50 62 -50 150v335z" />
    <glyph glyph-name="Uring" unicode="&#x16e;" horiz-adv-x="795" 
d="M554 979q0 -62 -46 -105q-44 -43 -110 -43q-63 0 -109 43q-45 44 -45 105t45 104q46 43 109 43q66 0 110 -43q46 -43 46 -104zM463 979q0 24 -19 42.5t-46 18.5q-28 0 -46 -17.5t-18 -43.5q0 -25 18.5 -43t45.5 -18t46 18t19 43zM552 783h160v-467q0 -156 -81 -241.5
t-235 -85.5t-233.5 85t-79.5 236v473h163l-1 -469q0 -81 41.5 -125t110.5 -44q74 0 114.5 44t40.5 121v473z" />
    <glyph glyph-name="uring" unicode="&#x16f;" horiz-adv-x="639" 
d="M471 750q0 -62 -46 -105q-44 -43 -109 -43q-63 0 -109 43q-45 43 -45 105q0 60 45 104q46 43 109 43q65 0 109 -43q46 -43 46 -104zM381 750q0 24 -19.5 42.5t-45.5 18.5q-28 0 -46.5 -17.5t-18.5 -43.5q0 -25 19 -43t46 -18t46 18t19 43zM67 534h156v-298
q0 -102 92 -102q46 0 71 28t25 74v298h156v-534h-154v66h-1q-53 -77 -149 -77q-95 0 -146 60q-50 62 -50 150v335z" />
    <glyph glyph-name="Uhungarumlaut" unicode="&#x170;" horiz-adv-x="795" 
d="M350 852h-124l107 188h175zM570 852h-123l107 188h175zM552 783h160v-467q0 -156 -81 -241.5t-235 -85.5t-233.5 85t-79.5 236v473h163l-1 -469q0 -81 41.5 -125t110.5 -44q74 0 114.5 44t40.5 121v473z" />
    <glyph glyph-name="uhungarumlaut" unicode="&#x171;" horiz-adv-x="639" 
d="M264 623h-124l108 187h174zM484 623h-123l107 187h175zM67 534h156v-298q0 -102 92 -102q46 0 71 28t25 74v298h156v-534h-154v66h-1q-53 -77 -149 -77q-95 0 -146 60q-50 62 -50 150v335z" />
    <glyph glyph-name="Uogonek" unicode="&#x172;" horiz-adv-x="795" 
d="M552 783h160v-470q0 -198 -137 -281q-60 -37 -97.5 -77t-37.5 -67q0 -26 22 -40.5t50 -14.5q13 0 22 1v-90q-29 -10 -77 -10q-63 0 -109 30q-46 28 -46 84q0 72 94 142q-153 0 -233 85t-80 236v472h163l-1 -469q0 -81 41.5 -125t110.5 -44q74 0 114.5 44t40.5 121v473z
" />
    <glyph glyph-name="uogonek" unicode="&#x173;" horiz-adv-x="639" 
d="M411 534h156v-534q-97 -61 -97 -112q0 -26 22 -40.5t50 -14.5q1 0 9.5 0.5t11.5 0.5v-90q-29 -10 -76 -10q-62 0 -109 30q-46 28 -46 84q0 76 111 152h-30v66h-1q-53 -77 -149 -77q-95 0 -146 60q-50 62 -50 150v335h156v-298q0 -102 92 -102q46 0 71 28t25 74v298z" />
    <glyph glyph-name="Wcircumflex" unicode="&#x174;" horiz-adv-x="1191" 
d="M401 854l122 174h147l121 -174h-133l-61 91l-61 -91h-135zM19 783h173l149 -556l169 556h173l169 -560l154 560h167l-232 -783h-175l-170 568h-2l-171 -568h-174z" />
    <glyph glyph-name="wcircumflex" unicode="&#x175;" horiz-adv-x="893" 
d="M253 624l121 174h147l120 -174h-132l-62 91l-60 -91h-134zM876 534l-168 -534h-153l-109 341h-1l-110 -341h-151l-166 534h160l96 -331h1l100 331h144l100 -334l101 334h156z" />
    <glyph glyph-name="Ycircumflex" unicode="&#x176;" horiz-adv-x="763" 
d="M382 937l61 91h133l-121 -174h-146l-121 174h133zM14 783h187l181 -313l183 313h185l-287 -466v-317h-162v310z" />
    <glyph glyph-name="ycircumflex" unicode="&#x177;" horiz-adv-x="621" 
d="M119 624l120 174h147l120 -174h-132l-62 91l-60 -91h-133zM238 57l-225 477h172l133 -305l119 305h161l-324 -797h-167z" />
    <glyph glyph-name="Ydieresis" unicode="&#x178;" horiz-adv-x="763" 
d="M336 933q0 -36 -25.5 -61.5t-61.5 -25.5t-61 25.5t-25 61.5t25 61.5t61 25.5t61.5 -26t25.5 -61zM558 871q-25 -25 -61 -25t-61 25q-25 26 -25 62t25 61q25 26 61 26t61 -26q26 -25 26 -61t-26 -62zM14 783h187l181 -313l183 313h185l-287 -466v-317h-162v310z" />
    <glyph glyph-name="Zacute" unicode="&#x179;" horiz-adv-x="685" 
d="M389 855h-128l107 187h179zM431 633h-373v150h574v-139l-388 -494h397v-150h-601v143z" />
    <glyph glyph-name="zacute" unicode="&#x17a;" horiz-adv-x="540" 
d="M312 623h-128l107 187h179zM51 534h442v-119l-252 -282h253v-133h-451v121l249 280h-241v133z" />
    <glyph glyph-name="Zdotaccent" unicode="&#x17b;" horiz-adv-x="685" 
d="M246 942q0 40 28 68t66 28q40 0 68.5 -28t28.5 -68q0 -39 -28.5 -67t-68.5 -28q-38 0 -66 28t-28 67zM431 633h-373v150h574v-139l-388 -494h397v-150h-600v143z" />
    <glyph glyph-name="zdotaccent" unicode="&#x17c;" horiz-adv-x="541" 
d="M173 713q0 39 28 67t67 28q40 0 68 -28t28 -67q0 -40 -28 -68t-68 -28q-39 0 -67 28t-28 68zM51 534h442v-119l-252 -282h254v-133h-452v121l250 280h-242v133z" />
    <glyph glyph-name="Zcaron" unicode="&#x17d;" horiz-adv-x="687" 
d="M343 937l61 91h133l-121 -174h-146l-123 174h135zM433 633h-376v150h577v-139l-388 -494h397v-150h-602v143z" />
    <glyph glyph-name="zcaron" unicode="&#x17e;" horiz-adv-x="541" 
d="M269 707l62 91h132l-121 -174h-146l-121 174h133zM51 534h442v-119l-252 -282h254v-133h-452v121l249 280h-241v133z" />
    <glyph glyph-name="florin" unicode="&#x192;" horiz-adv-x="619" 
d="M152 534h126l13 62q40 190 232 190q53 0 82 -10v-131q-40 8 -66 8q-81 0 -96 -79l-8 -40h123v-133h-149l-44 -220q-13 -72 -65 -129q-55 -61 -170 -61q-47 0 -83 11v131q37 -8 68 -8q81 0 97 78l39 198h-99v133z" />
    <glyph glyph-name="uni01B5" unicode="&#x1b5;" horiz-adv-x="687" 
d="M189 326h-131v139h240l134 170h-374v148h575v-137l-142 -181h142v-139h-250l-139 -177h397l1 -149h-600v140z" />
    <glyph glyph-name="uni01B6" unicode="&#x1b6;" horiz-adv-x="541" 
d="M43 114l97 112h-89v82h159l82 95h-241v131h442v-112l-99 -114h99v-82h-170l-82 -95h254v-131h-452v114z" />
    <glyph glyph-name="uni01CD" unicode="&#x1cd;" horiz-adv-x="792" 
d="M393 940l61 92h132l-120 -175h-147l-120 175h133zM162 0h-163l299 783h195l300 -783h-167l-59 158h-347zM394 626l-118 -318h236z" />
    <glyph glyph-name="uni01CE" unicode="&#x1ce;" horiz-adv-x="595" 
d="M297 707l62 91h132l-120 -174h-147l-120 174h133zM222 -10q-76 0 -128 43t-52 116v2q0 94 79 132q68 32 159 32h53q42 0 42 39q0 29 -22.5 47.5t-63.5 18.5q-79 0 -119 -72l-119 71q69 127 245 127q108 0 170 -56t62 -159v-331h-144v66l-2 1q-54 -77 -160 -77zM267 104
q49 0 78 29t29 74v12h-94q-35 0 -58 -16t-23 -45q0 -26 18.5 -40t49.5 -14z" />
    <glyph glyph-name="uni01CF" unicode="&#x1cf;" horiz-adv-x="345" 
d="M172 937l62 91h132l-120 -174h-147l-121 174h134zM253 783v-783h-162v783h162z" />
    <glyph glyph-name="uni01D0" unicode="&#x1d0;" horiz-adv-x="301" 
d="M150 707l62 91h132l-120 -174h-147l-120 174h133zM72 534h157v-534h-157v534z" />
    <glyph glyph-name="uni01D1" unicode="&#x1d1;" horiz-adv-x="899" 
d="M450 937l61 91h133l-121 -174h-147l-120 174h133zM43 391q0 167 120 286q119 118 289 118q168 0 286 -116q118 -115 118 -284q0 -171 -120 -289q-118 -118 -288 -118q-168 0 -287 117q-118 117 -118 286zM279 566q-70 -71 -70 -174q0 -102 70 -175q71 -72 171 -72t171 72
q70 73 70 175q0 103 -70 174q-71 72 -171 72t-171 -72z" />
    <glyph glyph-name="uni01D2" unicode="&#x1d2;" horiz-adv-x="661" 
d="M331 707l61 91h132l-120 -174h-147l-120 174h133zM39 266q0 120 85 199q86 81 208 81q121 0 206 -80q84 -79 84 -197q0 -120 -85 -201q-86 -80 -207 -80q-124 0 -207 79q-84 79 -84 199zM199 268q0 -59 38 -99q38 -38 94 -38q57 0 94 38.5t37 98.5q0 59 -38 97
q-38 39 -94 39t-93 -39q-38 -38 -38 -97z" />
    <glyph glyph-name="uni01D3" unicode="&#x1d3;" horiz-adv-x="795" 
d="M398 937l61 91h133l-121 -174h-146l-121 174h133zM552 783h160v-467q0 -156 -81 -241.5t-235 -85.5t-233.5 85t-79.5 236v473h163l-1 -469q0 -81 41.5 -125t110.5 -44q74 0 114.5 44t40.5 121v473z" />
    <glyph glyph-name="uni01D4" unicode="&#x1d4;" horiz-adv-x="639" 
d="M317 707l61 91h133l-121 -174h-146l-121 174h133zM67 534h156v-298q0 -102 92 -102q46 0 71 28t25 74v298h156v-534h-154v66h-1q-53 -77 -149 -77q-95 0 -146 60q-50 62 -50 150v335z" />
    <glyph glyph-name="uni01D5" unicode="&#x1d5;" horiz-adv-x="795" 
d="M216 1043v117h364v-117h-364zM335 847q-25 -25 -61 -25t-61 25t-25 61t25 61q25 26 61 26t61 -26q26 -25 26 -61t-26 -61zM522 822q-35 0 -60.5 25t-25.5 61t25 61.5t61 25.5t61.5 -25.5t25.5 -61.5t-25.5 -61t-61.5 -25zM552 783h160v-467q0 -156 -81 -241.5t-235 -85.5
t-233.5 85t-79.5 236v473h163l-1 -469q0 -81 41.5 -125t110.5 -44q74 0 114.5 44t40.5 121v473z" />
    <glyph glyph-name="uni01D6" unicode="&#x1d6;" horiz-adv-x="639" 
d="M135 794v117h364v-117h-364zM198 756q36 0 61.5 -25.5t25.5 -61.5t-25.5 -61t-61.5 -25t-61 25t-25 61t25 61.5t61 25.5zM497 608q-25 -25 -61 -25t-61 25t-25 61t25 61q25 26 61 26t61 -26q26 -25 26 -61t-26 -61zM67 534h156v-298q0 -102 92 -102q46 0 71 28t25 74v298
h156v-534h-154v66h-1q-53 -77 -149 -77q-95 0 -146 60q-50 62 -50 150v335z" />
    <glyph glyph-name="uni01D7" unicode="&#x1d7;" horiz-adv-x="795" 
d="M458 1009h-128l101 177h177zM335 837q-25 -25 -61 -25t-61 25t-25 61t25 61q25 26 61 26t61 -26q26 -25 26 -61t-26 -61zM522 812q-35 0 -60.5 25t-25.5 61t25 61.5t61 25.5t61.5 -25.5t25.5 -61.5t-25.5 -61t-61.5 -25zM552 783h160v-467q0 -156 -81 -241.5t-235 -85.5
t-233.5 85t-79.5 236v473h162v-469q0 -81 41.5 -125t110.5 -44q74 0 114.5 44t40.5 121v473z" />
    <glyph glyph-name="uni01D8" unicode="&#x1d8;" horiz-adv-x="639" 
d="M377 779h-128l107 188h179zM198 756q36 0 61.5 -25.5t25.5 -61.5t-25.5 -61t-61.5 -25t-61 25t-25 61t25 61.5t61 25.5zM497 608q-25 -25 -61 -25t-61 25t-25 61t25 61q25 26 61 26t61 -26q26 -25 26 -61t-26 -61zM67 534h156v-298q0 -102 92 -102q46 0 71 28t25 74v298
h156v-534h-154v66h-1q-53 -77 -149 -77q-95 0 -146 60q-50 62 -50 150v335z" />
    <glyph glyph-name="uni01D9" unicode="&#x1d9;" horiz-adv-x="795" 
d="M398 1088l61 85h133l-121 -164h-146l-121 164h133zM335 837q-25 -25 -61 -25t-61 25t-25 61t25 61q25 26 61 26t61 -26q26 -25 26 -61t-26 -61zM522 812q-35 0 -60.5 25t-25.5 61t25 61.5t61 25.5t61.5 -25.5t25.5 -61.5t-25.5 -61t-61.5 -25zM552 783h160v-467
q0 -156 -81 -241.5t-235 -85.5t-233.5 85t-79.5 236v473h162v-469q0 -81 41.5 -125t110.5 -44q74 0 114.5 44t40.5 121v473z" />
    <glyph glyph-name="uni01DA" unicode="&#x1da;" horiz-adv-x="639" 
d="M317 862l61 92h133l-121 -175h-146l-121 175h133zM198 756q36 0 61.5 -25.5t25.5 -61.5t-25.5 -61t-61.5 -25t-61 25t-25 61t25 61.5t61 25.5zM497 608q-25 -25 -61 -25t-61 25t-25 61t25 61q25 26 61 26t61 -26q26 -25 26 -61t-26 -61zM67 534h156v-298q0 -102 92 -102
q46 0 71 28t25 74v298h156v-534h-154v66h-1q-53 -77 -149 -77q-95 0 -146 60q-50 62 -50 150v335z" />
    <glyph glyph-name="uni01DB" unicode="&#x1db;" horiz-adv-x="795" 
d="M190 1186h176l102 -177h-128zM213 837q-25 25 -25 61t25 61q25 26 61 26t61 -26q26 -25 26 -61t-26 -61q-25 -25 -61 -25t-61 25zM522 812q-35 0 -60.5 25t-25.5 61t25 61.5t61 25.5t61.5 -25.5t25.5 -61.5t-25.5 -61t-61.5 -25zM552 783h160v-467q0 -156 -81 -241.5
t-235 -85.5t-233.5 85t-79.5 236v473h163l-1 -469q0 -81 41.5 -125t110.5 -44q74 0 114.5 44t40.5 121v473z" />
    <glyph glyph-name="uni01DC" unicode="&#x1dc;" horiz-adv-x="639" 
d="M261 779l-158 188h179l107 -188h-128zM198 756q36 0 61.5 -25.5t25.5 -61.5t-25.5 -61t-61.5 -25t-61 25t-25 61t25 61.5t61 25.5zM497 608q-25 -25 -61 -25t-61 25t-25 61t25 61q25 26 61 26t61 -26q26 -25 26 -61t-26 -61zM67 534h156v-298q0 -102 92 -102q46 0 71 28
t25 74v298h156v-534h-154v66h-1q-53 -77 -149 -77q-95 0 -146 60q-50 62 -50 150v335z" />
    <glyph glyph-name="Gcaron" unicode="&#x1e6;" horiz-adv-x="858" 
d="M452 937l62 91h132l-121 -174h-146l-121 174h134zM208 392q0 -103 68 -177q67 -73 173 -73q77 0 132 36t70 96h-238v147h407v-61q0 -117 -54 -204q-104 -168 -317 -168q-179 0 -293 116q-113 118 -113 287q0 170 119 287q120 117 289 117q136 0 228 -68q91 -67 123 -153
l-143 -70q-23 57 -74 96q-51 42 -136 42q-101 0 -171 -72q-70 -71 -70 -178z" />
    <glyph glyph-name="gcaron" unicode="&#x1e7;" horiz-adv-x="682" 
d="M336 707l62 91h132l-120 -174h-147l-120 174h133zM51 -114l127 73q45 -90 142 -90q62 0 98 32t36 93v81h-2q-56 -71 -154 -71q-114 0 -186 77t-72 191q0 108 70 188q70 82 182 82q101 0 162 -73h2v65h153v-536q0 -124 -81 -195q-79 -70 -207 -70q-198 0 -270 153z
M458 272q0 58 -37 94.5t-93 36.5q-55 0 -92.5 -37t-37.5 -94q0 -59 36.5 -95.5t93.5 -36.5q56 0 93 37t37 95z" />
    <glyph glyph-name="uni01E8" unicode="&#x1e8;" horiz-adv-x="737" 
d="M398 937l61 91h133l-121 -174h-146l-121 174h133zM253 783v-341l268 341h203l-299 -374l318 -409h-208l-282 372v-372h-162v783h162z" />
    <glyph glyph-name="uni01E9" unicode="&#x1e9;" horiz-adv-x="619" 
d="M72 0v815h156v-491l185 210h199l-215 -246l221 -288h-197l-189 253h-4v-253h-156zM395 624l-121 174h133l61 -91l61 91h133l-121 -174h-146z" />
    <glyph glyph-name="uni01F4" unicode="&#x1f4;" horiz-adv-x="858" 
d="M513 855h-128l107 187h179zM208 392q0 -103 68 -177q67 -73 173 -73q77 0 132 36t70 96h-238v147h407v-61q0 -117 -54 -204q-104 -168 -317 -168q-179 0 -293 116q-113 118 -113 287q0 170 119 287q120 117 289 117q136 0 228 -68q91 -67 123 -153l-143 -70
q-23 57 -74 96q-51 42 -136 42q-101 0 -171 -72q-70 -71 -70 -178z" />
    <glyph glyph-name="uni01F5" unicode="&#x1f5;" horiz-adv-x="682" 
d="M372 623h-128l107 187h179zM51 -114l127 73q45 -90 142 -90q62 0 98 32t36 93v81h-2q-56 -71 -154 -71q-114 0 -186 77t-72 191q0 108 70 188q70 82 182 82q101 0 162 -73h2v65h153v-536q0 -124 -81 -195q-79 -70 -207 -70q-198 0 -270 153zM458 272q0 58 -37 94.5
t-93 36.5q-55 0 -92.5 -37t-37.5 -94q0 -59 36.5 -95.5t93.5 -36.5q56 0 93 37t37 95z" />
    <glyph glyph-name="Aringacute" unicode="&#x1fa;" horiz-adv-x="792" 
d="M511 736l282 -736h-167l-59 158h-347l-58 -158h-163l280 735q-39 42 -39 99q0 61 46 104t109 43q24 0 45 -6l61 107h180l-150 -178q19 -32 19 -70q0 -56 -39 -98zM395 894q-29 0 -47 -17.5t-18 -42.5t19 -43.5t46 -18.5t45.5 18.5t18.5 43.5q0 23 -19.5 41.5t-44.5 18.5z
M276 308h236l-118 318z" />
    <glyph glyph-name="aringacute" unicode="&#x1fb;" horiz-adv-x="597" 
d="M427 517q101 -53 101 -186v-331h-144v66l-2 1q-54 -77 -160 -77q-76 0 -128 43t-52 116v2q0 94 79 132q68 32 159 32h53q42 0 42 39q0 29 -22.5 47.5t-63.5 18.5q-79 0 -119 -72l-119 71q37 70 113 103q-22 34 -22 76q0 61 46 104t109 43q24 0 51 -8l56 99h180l-147 -174
q15 -29 15 -64q0 -46 -25 -81zM297 659q-28 0 -46.5 -17.5t-18.5 -43.5q0 -25 19 -43t46 -18t45.5 18t18.5 43q0 24 -19 42.5t-45 18.5zM374 207v12h-94q-35 0 -58 -16t-23 -45q0 -26 18.5 -40t49.5 -14q49 0 78 29t29 74z" />
    <glyph glyph-name="AEacute" unicode="&#x1fc;" horiz-adv-x="1054" 
d="M632 852h-128l107 188h180zM994 783v-152h-347v-159h311v-152h-311v-169h350v-151h-510v157h-248l-77 -157h-175l397 783h610zM487 632h-9l-164 -325h173v325z" />
    <glyph glyph-name="aeacute" unicode="&#x1fd;" horiz-adv-x="956" 
d="M532 623h-128l107 187h179zM230 -10h-9q-75 0 -127 43t-52 116v6q0 37 14.5 65.5t37.5 46t55 29t63.5 15.5t66.5 4h54q42 0 42 39q0 29 -22.5 47.5t-63.5 18.5q-80 0 -118 -72l-119 71q67 127 244 127q115 0 175 -64q79 65 178 65q117 0 191 -74q75 -73 75 -191
q0 -38 -3 -58h-387q7 -48 43.5 -76.5t88.5 -28.5q36 0 68.5 17.5t50.5 46.5l113 -74q-69 -121 -231 -121q-136 0 -219 93q-84 -91 -209 -91zM528 327h230q-2 38 -32.5 65.5t-80.5 27.5q-49 0 -80 -31q-33 -31 -37 -62zM374 207v12h-95q-35 0 -57.5 -16t-22.5 -45
q0 -26 18 -40t49 -14q50 0 79 29.5t29 73.5z" />
    <glyph glyph-name="Oslashacute" unicode="&#x1fe;" horiz-adv-x="902" 
d="M510 855h-128l107 187h179zM776 815l81 -75l-88 -93q88 -109 88 -252q0 -170 -119 -289q-118 -118 -289 -118q-131 0 -235 74l-88 -91l-81 75l88 92q-89 110 -89 253q0 167 120 286q119 118 289 118q131 0 235 -72zM208 392q0 -72 39 -135l331 347q-58 35 -126 35
q-101 0 -173 -73q-71 -73 -71 -174zM452 145q100 0 171 72q71 74 71 175q0 74 -39 136l-331 -347q56 -36 128 -36z" />
    <glyph glyph-name="oslashacute" unicode="&#x1ff;" horiz-adv-x="663" 
d="M391 623h-128l107 187h179zM565 558l57 -56l-60 -60q61 -73 61 -173q0 -120 -85 -201q-86 -80 -207 -80q-96 0 -172 52l-63 -63l-57 56l61 61q-60 74 -60 172q0 118 85 199t208 81q95 0 169 -50zM199 268q0 -38 13 -63l185 184q-29 16 -65 16q-56 0 -95 -39
q-38 -38 -38 -98zM332 130q56 0 94 38q38 40 38 100q0 34 -13 64l-187 -185q32 -17 68 -17z" />
    <glyph glyph-name="Scommaaccent" unicode="&#x218;" horiz-adv-x="652" 
d="M338 473q144 -41 209 -96.5t65 -146.5q0 -108 -76 -175t-211 -67q-109 0 -189.5 49t-116.5 135l140 72q24 -52 68 -80.5t103 -28.5q52 0 85.5 23.5t33.5 59.5q0 35 -31 54q-31 22 -117 47q-136 41 -191 95q-60 58 -60 145q0 103 80 169q79 67 193 67q98 0 169.5 -44
t105.5 -125l-134 -73q-41 96 -148 96q-47 0 -75.5 -22t-28.5 -58q0 -34 28.5 -55.5t97.5 -40.5zM419 -164v-5q0 -52 -31 -102.5t-84 -86.5l-48 46q58 39 87 99q-13 -6 -29 -6q-31 0 -51.5 21.5t-20.5 54.5q0 36 24.5 60.5t59.5 24.5q40 0 66.5 -29.5t26.5 -76.5z" />
    <glyph glyph-name="scommaaccent" unicode="&#x219;" horiz-adv-x="512" 
d="M474 161q0 -78 -57.5 -125.5t-155.5 -47.5q-168 0 -233 123l115 68q33 -65 120 -65q29 0 47 11.5t18 27.5q0 17 -18.5 29t-66.5 23q-190 42 -190 173q0 75 60 121q62 48 145 48q72 0 125.5 -29t80.5 -79l-113 -67q-30 51 -97 51q-24 0 -40 -11.5t-16 -27.5q0 -34 70 -49
q103 -21 154.5 -63.5t51.5 -110.5zM341 -164v-5q0 -52 -31 -102.5t-84 -86.5l-48 46q58 39 87 99q-14 -6 -29 -6q-31 0 -51.5 21.5t-20.5 54.5q0 36 24.5 60.5t59.5 24.5q40 0 66.5 -29.5t26.5 -76.5z" />
    <glyph glyph-name="uni021A" unicode="&#x21a;" horiz-adv-x="673" 
d="M21 626v157h631v-157h-235v-626h-161v626h-235zM422 -164v-5q0 -52 -31 -102.5t-84 -86.5l-48 46q59 39 87 99q-14 -6 -29 -6q-31 0 -51.5 21.5t-20.5 54.5q0 36 24.5 60.5t59.5 24.5q40 0 66.5 -29.5t26.5 -76.5z" />
    <glyph glyph-name="uni021B" unicode="&#x21b;" horiz-adv-x="450" 
d="M402 132v-129q-33 -10 -73 -10q-103 0 -157.5 53t-54.5 148v205h-96v135h98v167h154v-167h132v-135h-132v-186q0 -45 23 -65t70 -20q21 0 36 4zM325 -164v-5q0 -52 -31 -102.5t-84 -86.5l-48 46q58 39 87 99q-14 -6 -29 -6q-31 0 -51.5 21.5t-20.5 54.5q0 36 24.5 60.5
t59.5 24.5q40 0 66.5 -29.5t26.5 -76.5z" />
    <glyph glyph-name="uni0237" unicode="&#x237;" horiz-adv-x="309" 
d="M80 534h156v-574q0 -114 -56 -169t-173 -55q-34 0 -55 7v131q14 -3 27 -3q52 0 76.5 22.5t24.5 74.5v566z" />
    <glyph glyph-name="circumflex" unicode="&#x2c6;" horiz-adv-x="428" 
d="M20 624l121 174h146l121 -174h-132l-62 91l-61 -91h-133z" />
    <glyph glyph-name="breve" unicode="&#x2d8;" horiz-adv-x="420" 
d="M20 798h116q12 -72 74 -72q30 0 49.5 19.5t24.5 52.5h116q-7 -78 -61 -129q-52 -49 -129 -49q-78 0 -130 49t-60 129z" />
    <glyph glyph-name="dotaccent" unicode="&#x2d9;" horiz-adv-x="232" 
d="M20 713q0 39 28 67t67 28q40 0 68.5 -28t28.5 -67q0 -40 -28.5 -68t-68.5 -28q-39 0 -67 28t-28 68z" />
    <glyph glyph-name="tilde" unicode="&#x2dc;" horiz-adv-x="433" 
d="M146 789q32 0 61.5 -15.5t50 -30.5t29.5 -15q34 0 34 58h97q4 -76 -30.5 -119.5t-100.5 -43.5q-30 0 -60 15.5t-51 30.5t-30 15q-33 0 -34 -58h-96q-5 76 29.5 119.5t100.5 43.5z" />
    <glyph glyph-name="hungarumlaut" unicode="&#x2dd;" horiz-adv-x="542" 
d="M143 623h-123l107 187h174zM364 623h-123l107 187h174z" />
    <glyph glyph-name="gravecomb" unicode="&#x300;" horiz-adv-x="0" 
d="M-185 810h179l107 -187h-128z" />
    <glyph glyph-name="acutecomb" unicode="&#x301;" horiz-adv-x="0" 
d="M-15 623h-128l107 187h179z" />
    <glyph glyph-name="uni0302" unicode="&#x302;" horiz-adv-x="0" 
d="M-194 624l121 174h146l121 -174h-132l-62 91l-61 -91h-133z" />
    <glyph glyph-name="tildecomb" unicode="&#x303;" horiz-adv-x="0" 
d="M-71 789q32 0 61.5 -15.5t50 -30.5t29.5 -15q34 0 34 58h97q4 -76 -30.5 -119.5t-100.5 -43.5q-30 0 -60 15.5t-51 30.5t-30 15q-33 0 -34 -58h-96q-5 76 29.5 119.5t100.5 43.5z" />
    <glyph glyph-name="uni0304" unicode="&#x304;" horiz-adv-x="0" 
d="M-182 628v117h364v-117h-364z" />
    <glyph glyph-name="uni0306" unicode="&#x306;" horiz-adv-x="0" 
d="M-190 798h116q12 -72 74 -72q30 0 49.5 19.5t24.5 52.5h116q-7 -78 -61 -129q-52 -49 -129 -49t-129 49q-54 51 -61 129z" />
    <glyph glyph-name="uni0307" unicode="&#x307;" horiz-adv-x="0" 
d="M-96 713q0 39 28 67t67 28q40 0 68.5 -28t28.5 -67q0 -40 -28.5 -68t-68.5 -28q-39 0 -67 28t-28 68z" />
    <glyph glyph-name="uni0308" unicode="&#x308;" horiz-adv-x="0" 
d="M-206 704q0 36 25 61.5t61 25.5t61.5 -25.5t25.5 -61.5q0 -37 -25.5 -62t-61.5 -25t-61 25.5t-25 61.5zM33 704q0 36 25 61.5t61 25.5t61.5 -26t25.5 -61q0 -37 -25.5 -62t-61.5 -25t-61 25t-25 62z" />
    <glyph glyph-name="uni030A" unicode="&#x30a;" horiz-adv-x="0" 
d="M155 750q0 -62 -46 -105q-44 -43 -109 -43q-63 0 -109 43t-46 105q0 61 46 104t109 43q65 0 109 -43q46 -43 46 -104zM64 750q0 24 -19 42.5t-45 18.5q-28 0 -46.5 -17.5t-18.5 -43.5q0 -25 19 -43t46 -18t45.5 18t18.5 43z" />
    <glyph glyph-name="uni030B" unicode="&#x30b;" horiz-adv-x="0" 
d="M-128 623h-123l107 187h174zM93 623h-123l107 187h174z" />
    <glyph glyph-name="uni030C" unicode="&#x30c;" horiz-adv-x="0" 
d="M0 707l62 91h132l-121 -174h-146l-121 174h133z" />
    <glyph glyph-name="uni0312" unicode="&#x312;" horiz-adv-x="0" 
d="M-88 722v4q0 53 30.5 103t83.5 86l49 -46q-60 -37 -87 -98q17 5 29 5q30 0 51 -21.5t21 -54.5q0 -35 -25 -59.5t-60 -24.5q-40 0 -66 29.5t-26 76.5z" />
    <glyph glyph-name="uni0326" unicode="&#x326;" horiz-adv-x="0" 
d="M89 -164v-5q0 -52 -31 -102.5t-84 -86.5l-48 46q58 39 87 99q-14 -6 -29 -6q-31 0 -51.5 21.5t-20.5 54.5q0 36 24.5 60.5t59.5 24.5q40 0 66.5 -29.5t26.5 -76.5z" />
    <glyph glyph-name="uni0327" unicode="&#x327;" horiz-adv-x="0" 
d="M83 -101q0 -160 -189 -160q-44 0 -73 9v105q32 -5 53 -5q42 0 63.5 25t21.5 70q0 30 -12 57h114q22 -43 22 -101z" />
    <glyph glyph-name="uni0328" unicode="&#x328;" horiz-adv-x="0" 
d="M-6 0h124q-98 -61 -98 -112q0 -26 22 -40.5t50 -14.5q13 0 22 1v-90q-29 -10 -76 -10q-63 0 -110 30q-46 28 -46 84q0 76 112 152z" />
    <glyph glyph-name="Theta" unicode="&#x398;" horiz-adv-x="899" 
d="M43 391q0 167 120 286q119 118 289 118q168 0 286 -116q118 -115 118 -284q0 -171 -120 -289q-118 -118 -288 -118q-168 0 -287 117q-118 117 -118 286zM450 638q-102 0 -172 -72q-70 -71 -70 -174q0 -102 70 -175q70 -72 172 -72q100 0 171 72q71 74 71 175t-71 174
q-71 72 -171 72zM270 320v152h361v-152h-361z" />
    <glyph glyph-name="uni03A9" unicode="&#x3a9;" horiz-adv-x="883" 
d="M226 432q0 -68 41 -127q40 -58 133 -79v-226h-340v141h191v14q-120 53 -161 143q-35 77 -35 139q0 157 112 257q113 101 275 101q165 0 275 -100q111 -101 111 -258q0 -61 -35 -138q-19 -42 -61 -80t-100 -64v-14h192v-141h-341v226q92 21 133 80q42 58 42 126
q0 85 -62 147q-61 61 -155 61q-93 0 -154 -61t-61 -147z" />
    <glyph glyph-name="theta" unicode="&#x3b8;" horiz-adv-x="734" 
d="M43 403q0 156 79 280q40 62 104 98t143 36q76 0 139 -35t103 -96q80 -122 80 -279q0 -158 -80 -283q-40 -62 -104.5 -99t-140.5 -37q-77 0 -141.5 37t-103.5 99q-78 124 -78 279zM206 473h322q-9 82 -51 142t-110 60t-110 -60q-40 -58 -51 -142zM529 341h-324
q7 -83 50 -147q43 -63 112 -63t111 63q44 63 51 147z" />
    <glyph glyph-name="pi" unicode="&#x3c0;" horiz-adv-x="746" 
d="M695 399h-111v-184q0 -87 88 -87q18 0 23 1v-130q-24 -6 -48 -6q-217 0 -217 219v187h-143v-399h-155v399h-108v135h671v-135z" />
    <glyph glyph-name="uni0401" unicode="&#x401;" horiz-adv-x="663" 
d="M222 1020q36 0 61.5 -25.5t25.5 -61.5t-25.5 -61.5t-61.5 -25.5t-61 25.5t-25 61.5t25 61.5t61 25.5zM470 1020q36 0 61.5 -25.5t25.5 -61.5t-25.5 -61.5t-61.5 -25.5t-61 25.5t-25 61.5t25 61.5t61 25.5zM604 631h-353v-159h316v-152h-316v-169h355v-151h-515v783h513
v-152z" />
    <glyph glyph-name="uni0402" unicode="&#x402;" horiz-adv-x="844" 
d="M558 -12q-43 0 -87 10v151q23 -3 46 -3q138 0 138 102q0 98 -144 98q-41 0 -83 -13.5t-66 -36.5v-296h-160v633h-181v150h632v-150h-291v-186q89 56 199 56q117 0 187 -69q71 -68 71 -184q0 -124 -69 -193t-192 -69z" />
    <glyph glyph-name="uni0403" unicode="&#x403;" horiz-adv-x="603" 
d="M366 852h-128l107 188h179zM583 783v-153h-329v-630h-163v783h492z" />
    <glyph glyph-name="uni0404" unicode="&#x404;" horiz-adv-x="831" 
d="M660 288l146 -67q-39 -107 -140 -170q-101 -62 -219 -62q-172 0 -288 115q-116 116 -116 287q0 169 118 286q118 118 288 118q119 0 217 -62q99 -62 137 -167l-145 -67q-25 65 -81 102.5t-129 37.5q-81 0 -145 -49q-64 -47 -85 -122h310v-145h-312q19 -77 83 -129
q65 -50 149 -50q72 0 128.5 39t83.5 105z" />
    <glyph glyph-name="uni0405" unicode="&#x405;" horiz-adv-x="652" 
d="M338 473q144 -41 209 -96.5t65 -146.5q0 -108 -76 -175t-211 -67q-109 0 -189.5 49t-116.5 135l140 72q24 -52 68 -80.5t103 -28.5q52 0 85.5 23.5t33.5 59.5q0 35 -31 54q-31 22 -117 47q-136 41 -191 95q-60 58 -60 145q0 103 80 169q79 67 193 67q98 0 169.5 -44
t105.5 -125l-134 -73q-41 96 -148 96q-47 0 -75.5 -22t-28.5 -58q0 -34 28.5 -55.5t97.5 -40.5z" />
    <glyph glyph-name="uni0406" unicode="&#x406;" horiz-adv-x="345" 
d="M91 0v783h162v-783h-162z" />
    <glyph glyph-name="uni0407" unicode="&#x407;" horiz-adv-x="345" 
d="M56 846q-36 0 -61.5 25.5t-25.5 61.5t25 61.5t62 25.5q36 0 61.5 -26t25.5 -61q0 -36 -26 -61.5t-61 -25.5zM290 846q-36 0 -61.5 25.5t-25.5 61.5t25 61.5t62 25.5q36 0 61 -25.5t25 -61.5t-25.5 -61.5t-60.5 -25.5zM91 0v783h162v-783h-162z" />
    <glyph glyph-name="uni0408" unicode="&#x408;" horiz-adv-x="622" 
d="M375 783h162v-545q0 -117 -74 -183q-74 -65 -183 -65q-184 0 -251 168l137 76q35 -89 111 -89q46 0 72 27.5t26 77.5v533z" />
    <glyph glyph-name="uni0409" unicode="&#x409;" horiz-adv-x="1237" 
d="M761 783v-296h177q74 0 128.5 -21t84.5 -56.5t44 -76t14 -85.5q0 -95 -61 -168q-32 -37 -89 -58.5t-130 -21.5h-329v628h-235l-24 -268q-13 -162 -92 -263q-78 -100 -223 -100h-3v148q78 0 117 76q35 69 41 145l37 417h543zM761 340v-187h168q120 0 120 96q0 40 -29 65.5
t-93 25.5h-166z" />
    <glyph glyph-name="uni040A" unicode="&#x40a;" horiz-adv-x="1219" 
d="M91 783h162v-303h328v303h162v-303h183q142 0 206 -77q59 -69 59 -160q0 -47 -14.5 -88t-45 -77t-86.5 -57t-132 -21h-332v332h-328v-332h-162v783zM743 334v-181h170q65 0 91 24t26 69q0 88 -118 88h-169z" />
    <glyph glyph-name="uni040B" unicode="&#x40b;" horiz-adv-x="865" 
d="M819 0h-160v200q0 146 -137 146q-92 0 -160 -53v-293h-160v633h-181v150h632v-150h-291v-186q89 56 199 56q116 0 187 -65t71 -176v-262z" />
    <glyph glyph-name="uni040C" unicode="&#x40c;" horiz-adv-x="738" 
d="M457 855h-128l107 187h179zM91 783h163v-341l268 341h203l-299 -374l318 -409h-209l-281 372v-372h-163v783z" />
    <glyph glyph-name="uni040E" unicode="&#x40e;" horiz-adv-x="729" 
d="M184 1040l91 16q29 -92 103 -92q75 0 102 92l90 -16q-13 -86 -63 -135t-129 -49t-130 49t-64 135zM3 783h178l198 -401l187 401h175l-306 -614q-47 -95 -104 -137t-136 -42q-103 0 -177 55l89 132q41 -32 83 -32q62 0 99 73z" />
    <glyph glyph-name="uni040F" unicode="&#x40f;" horiz-adv-x="828" 
d="M335 -164v164h-244v783h161v-628h323v628h161v-783h-244v-164h-157z" />
    <glyph glyph-name="uni0410" unicode="&#x410;" horiz-adv-x="792" 
d="M162 0h-163l299 783h195l300 -783h-167l-59 158h-347zM394 626l-118 -318h236z" />
    <glyph glyph-name="uni0411" unicode="&#x411;" horiz-adv-x="749" 
d="M252 630v-158h195q135 0 200 -68q64 -67 64 -165q0 -47 -14 -87.5t-45 -75.5t-87.5 -55.5t-133.5 -20.5h-340v783h571v-153h-410zM252 328v-175h181q117 0 117 91q0 84 -119 84h-179z" />
    <glyph glyph-name="uni0412" unicode="&#x412;" horiz-adv-x="744" 
d="M700 216q0 -110 -81.5 -163t-197.5 -53h-330v783h325q102 0 176 -54t74 -153q0 -110 -110 -167v-2q74 -28 109 -72.5t35 -118.5zM507 551q0 83 -113 83h-145v-169h134q124 0 124 86zM542 237q0 88 -128 88h-165v-175h170q123 0 123 87z" />
    <glyph glyph-name="uni0413" unicode="&#x413;" horiz-adv-x="601" 
d="M582 783v-153h-329v-630h-162v783h491z" />
    <glyph glyph-name="uni0414" unicode="&#x414;" horiz-adv-x="906" 
d="M54 -164v314h4q54 0 98 48q86 93 101 257l33 328h489v-633h82v-314h-157v164h-493v-164h-157zM618 635h-182l-21 -197q-22 -205 -127 -287h330v484z" />
    <glyph glyph-name="uni0415" unicode="&#x415;" horiz-adv-x="663" 
d="M604 631h-353v-159h316v-152h-316v-169h355v-151h-515v783h513v-152z" />
    <glyph glyph-name="uni0416" unicode="&#x416;" horiz-adv-x="1110" 
d="M293 403l-282 380h198l260 -367l5 1v366h162v-367h5l259 367h199l-283 -380l295 -403h-200l-270 380h-5v-380h-162v380h-5l-270 -380h-200z" />
    <glyph glyph-name="uni0417" unicode="&#x417;" horiz-adv-x="658" 
d="M608 225q0 -103 -81 -170q-80 -67 -204 -67q-105 0 -183.5 43.5t-113.5 123.5l142 73q20 -43 62 -66.5t97 -23.5q52 0 84.5 24.5t32.5 66.5q0 45 -30.5 68.5t-86.5 23.5h-103v150h94q52 0 82 24t30 64q0 38 -31 61.5t-84 23.5q-91 0 -132 -87l-145 69q33 80 108.5 124.5
t174.5 44.5q121 0 197 -62q75 -61 75 -163q0 -108 -107 -165v-1q64 -27 93 -70t29 -109z" />
    <glyph glyph-name="uni0418" unicode="&#x418;" horiz-adv-x="862" 
d="M611 545l-349 -545h-171v783h160v-521l336 521h184v-783h-160v545z" />
    <glyph glyph-name="uni0419" unicode="&#x419;" horiz-adv-x="862" 
d="M243 1040l91 16q29 -92 103 -92q75 0 102 92l90 -16q-13 -86 -63 -135t-129 -49t-130 49t-64 135zM611 545l-349 -545h-171v783h160v-521l336 521h184v-783h-160v545z" />
    <glyph glyph-name="uni041A" unicode="&#x41a;" horiz-adv-x="736" 
d="M91 783h161v-341l269 341h202l-299 -374l319 -409h-209l-282 372v-372h-161v783z" />
    <glyph glyph-name="uni041B" unicode="&#x41b;" horiz-adv-x="833" 
d="M581 630h-219l-28 -270q-38 -363 -307 -363h-3v148q50 0 85 38q33 36 46.5 78.5t20.5 106.5l43 415h523v-783h-161v630z" />
    <glyph glyph-name="uni041C" unicode="&#x41c;" horiz-adv-x="1046" 
d="M794 517l-218 -517h-108l-217 513h-1v-513h-159v783h209l222 -525l218 525h215v-783h-160v517h-1z" />
    <glyph glyph-name="uni041D" unicode="&#x41d;" horiz-adv-x="834" 
d="M91 0v783h162v-309h328v309h162v-783h-162v317h-328v-317h-162z" />
    <glyph glyph-name="uni041E" unicode="&#x41e;" horiz-adv-x="899" 
d="M43 391q0 167 120 286q119 118 289 118q168 0 286 -116q118 -115 118 -284q0 -171 -120 -289q-118 -118 -288 -118q-168 0 -287 117q-118 117 -118 286zM279 566q-70 -71 -70 -174q0 -102 70 -175q71 -72 171 -72t171 72q70 73 70 175q0 103 -70 174q-71 72 -171 72
t-171 -72z" />
    <glyph glyph-name="uni041F" unicode="&#x41f;" horiz-adv-x="828" 
d="M91 0v783h645v-783h-161v630h-322v-630h-162z" />
    <glyph glyph-name="uni0420" unicode="&#x420;" horiz-adv-x="691" 
d="M662 532q0 -125 -79 -191q-79 -65 -207 -65h-123v-276h-162v783h291q123 0 201 -66q79 -64 79 -185zM499 528q0 51 -36 76.5t-95 25.5h-115v-203h116q57 0 93.5 26t36.5 75z" />
    <glyph glyph-name="uni0421" unicode="&#x421;" horiz-adv-x="832" 
d="M43 391q0 169 118 286q118 118 288 118q119 0 217 -62q99 -61 138 -169l-148 -68q-25 66 -80.5 103.5t-127.5 37.5q-101 0 -169 -71t-68 -173q0 -105 67 -176q68 -71 170 -71q71 0 127 39.5t83 105.5l149 -69q-39 -108 -141 -171q-101 -62 -220 -62q-172 0 -287 115
q-116 116 -116 287z" />
    <glyph glyph-name="uni0422" unicode="&#x422;" horiz-adv-x="671" 
d="M20 626v157h631v-157h-234v-626h-162v626h-235z" />
    <glyph glyph-name="uni0423" unicode="&#x423;" horiz-adv-x="729" 
d="M3 783h178l198 -401l187 401h175l-306 -614q-47 -95 -104 -137t-136 -42q-103 0 -177 55l89 132q41 -32 83 -32q62 0 99 73z" />
    <glyph glyph-name="uni0424" unicode="&#x424;" horiz-adv-x="1011" 
d="M586 -24h-161v82q-100 0 -178 31t-124 84q-85 103 -85 228q0 152 107 244q108 93 280 93v70h161v-70q172 0 279 -92q108 -92 108 -245q0 -61 -21 -118.5t-64 -109.5t-121 -83.5t-181 -31.5v-82zM425 208v381q-101 0 -162 -52q-61 -51 -61 -138q0 -88 61 -140
q61 -51 162 -51zM586 589v-381q102 0 163 51.5t61 139.5q0 87 -61 138.5t-163 51.5z" />
    <glyph glyph-name="uni0425" unicode="&#x425;" horiz-adv-x="755" 
d="M281 403l-266 380h190l173 -254l175 254h189l-268 -379l282 -404h-189l-191 282l-194 -282h-183z" />
    <glyph glyph-name="uni0426" unicode="&#x426;" horiz-adv-x="865" 
d="M736 783v-629h82v-318h-157v164h-570v783h161v-629h323v629h161z" />
    <glyph glyph-name="uni0427" unicode="&#x427;" horiz-adv-x="768" 
d="M676 0h-161v304q-114 -57 -204 -57q-122 0 -190 66t-68 191v279h161v-231q0 -146 132 -146q105 0 169 49v328h161v-783z" />
    <glyph glyph-name="uni0428" unicode="&#x428;" horiz-adv-x="1215" 
d="M527 153v630h161v-630h273v630h163v-783h-1033v783h162v-630h274z" />
    <glyph glyph-name="uni0429" unicode="&#x429;" horiz-adv-x="1252" 
d="M527 153v630h161v-630h273v630h163v-629h82v-318h-158v164h-957v783h162v-630h274z" />
    <glyph glyph-name="uni042A" unicode="&#x42a;" horiz-adv-x="846" 
d="M370 783v-296h178q73 0 127.5 -21t84.5 -56.5t44 -76t14 -85.5q0 -95 -61 -168q-32 -37 -89 -58.5t-130 -21.5h-330v629h-186v154h348zM370 340v-187h168q120 0 120 96q0 40 -28.5 65.5t-92.5 25.5h-167z" />
    <glyph glyph-name="uni042B" unicode="&#x42b;" horiz-adv-x="1080" 
d="M253 783v-296h178q73 0 127.5 -21t84.5 -56.5t44 -76t14 -85.5q0 -95 -61 -168q-32 -37 -89 -58.5t-130 -21.5h-330v783h162zM988 783v-783h-162v783h162zM253 340v-187h168q68 0 94 29t26 67q0 40 -29 65.5t-93 25.5h-166z" />
    <glyph glyph-name="uni042C" unicode="&#x42c;" horiz-adv-x="729" 
d="M253 783v-296h178q73 0 127.5 -21t84.5 -56.5t44 -76t14 -85.5q0 -95 -61 -168q-32 -37 -89 -58.5t-130 -21.5h-330v783h162zM253 340v-187h168q68 0 94 29t26 67q0 40 -29 65.5t-93 25.5h-166z" />
    <glyph glyph-name="uni042D" unicode="&#x42d;" horiz-adv-x="833" 
d="M388 795q175 0 287 -115q114 -116 114 -286q0 -172 -114 -289q-113 -116 -289 -116q-120 0 -221 62q-99 61 -140 170l147 67q27 -66 84 -105t131 -39q85 0 147 50q63 51 82 129h-312v145h309q-21 74 -83 122q-61 49 -143 49q-74 0 -131 -37.5t-82 -102.5l-145 67
q38 106 138 167q101 62 221 62z" />
    <glyph glyph-name="uni042E" unicode="&#x42e;" horiz-adv-x="1189" 
d="M751 795q169 0 282 -117q113 -116 113 -286q0 -171 -114 -288q-114 -116 -283 -116q-149 0 -258 93q-108 93 -132 238h-106v-319h-162v783h162v-318h106q26 144 134 236q109 94 258 94zM981 392q0 103 -67 174q-66 72 -165 72q-100 0 -164 -70q-65 -71 -65 -176
q0 -103 66 -175t165 -72t164 72q66 72 66 175z" />
    <glyph glyph-name="uni042F" unicode="&#x42f;" horiz-adv-x="731" 
d="M211 0h-176l166 311q-147 59 -147 226q0 117 78 181q80 65 199 65h309v-783h-162v281h-120zM478 432v198h-134q-57 0 -91.5 -25t-34.5 -76q0 -47 35.5 -72t89.5 -25h135z" />
    <glyph glyph-name="uni0430" unicode="&#x430;" horiz-adv-x="595" 
d="M222 -10q-76 0 -128 43t-52 116v2q0 94 79 132q68 32 159 32h53q42 0 42 39q0 29 -22.5 47.5t-63.5 18.5q-79 0 -119 -72l-119 71q69 127 245 127q108 0 170 -56t62 -159v-331h-144v66l-2 1q-54 -77 -160 -77zM267 104q49 0 78 29t29 74v12h-94q-35 0 -58 -16t-23 -45
q0 -26 18.5 -40t49.5 -14z" />
    <glyph glyph-name="uni0431" unicode="&#x431;" horiz-adv-x="674" 
d="M347 -11q-131 0 -212 87t-81 246q0 37 2 83q9 102 35 162q37 86 109 137q89 63 225 87l156 28l27 -133l-183 -35q-135 -26 -192 -100q-45 -59 -50 -106l4 -1q36 42 82 65q30 15 54.5 22t35.5 8t32 1q101 0 172 -74q70 -73 70 -189q0 -129 -81 -209q-79 -79 -205 -79z
M215 268q0 -63 37.5 -100.5t94.5 -37.5t94 37.5t37 99.5q0 64 -40 100t-92 36t-92 -37q-39 -36 -39 -98z" />
    <glyph glyph-name="uni0432" unicode="&#x432;" horiz-adv-x="634" 
d="M72 0v534h324q66 0 122 -32q55 -31 55 -100q0 -85 -85 -122v-1q103 -30 103 -133q0 -52 -31 -86q-55 -60 -167 -60h-321zM225 420v-96h134q30 0 45 14.5t15 36.5q0 20 -15 32.5t-43 12.5h-136zM225 222v-100h147q41 -1 58 25t-1.5 51.5t-60.5 23.5h-143z" />
    <glyph glyph-name="uni0433" unicode="&#x433;" horiz-adv-x="491" 
d="M472 534v-135h-243v-399h-157v534h400z" />
    <glyph glyph-name="uni0434" unicode="&#x434;" horiz-adv-x="713" 
d="M28 -164v300h1q45 0 77.5 52t40.5 136l21 210h434v-399h67v-299h-145v164h-351v-164h-145zM446 399h-137l-7 -79q-14 -131 -86 -184l1 -1h229v264z" />
    <glyph glyph-name="uni0435" unicode="&#x435;" horiz-adv-x="627" 
d="M586 224h-388q7 -48 44 -76.5t88 -28.5q36 0 68.5 17.5t50.5 46.5l113 -74q-67 -121 -230 -121q-124 0 -209 78q-84 79 -84 202q0 114 83 197q83 82 200 82q118 0 192 -74t74 -193q0 -32 -2 -56zM202 327h230q-3 38 -33.5 65.5t-80.5 27.5q-49 0 -80 -31q-31 -30 -36 -62
z" />
    <glyph glyph-name="uni0436" unicode="&#x436;" horiz-adv-x="918" 
d="M719 534h185l-191 -261l194 -273h-188l-179 259h-3v-259h-155v259h-4l-178 -259h-189l195 273l-191 261h185l178 -246h4v246h155v-246h4z" />
    <glyph glyph-name="uni0437" unicode="&#x437;" horiz-adv-x="532" 
d="M324 369q0 19 -17.5 32.5t-46.5 13.5q-70 0 -111 -68l-118 66q70 133 236 133q95 0 152.5 -43t57.5 -116q0 -79 -74 -111v-1q83 -33 83 -118q0 -80 -59.5 -124.5t-159.5 -44.5q-179 0 -243 129l122 69q38 -66 120 -66q29 0 48 14t19 35q0 49 -67 49h-66v103h64
q60 0 60 48z" />
    <glyph glyph-name="uni0438" unicode="&#x438;" horiz-adv-x="651" 
d="M72 0v534h154v-311h1l196 311h156v-534h-154v308h-1l-195 -308h-157z" />
    <glyph glyph-name="uni0439" unicode="&#x439;" horiz-adv-x="651" 
d="M132 801l92 16q28 -91 102 -91t102 91l91 -15q-15 -86 -64.5 -135t-128.5 -49t-130 49t-64 134zM72 0v534h154v-311h1l196 311h156v-534h-154v308h-1l-195 -308h-157z" />
    <glyph glyph-name="uni043A" unicode="&#x43a;" horiz-adv-x="623" 
d="M72 0v534h156v-229h2l197 229h190l-229 -260l239 -274h-199l-197 233h-3v-233h-156z" />
    <glyph glyph-name="uni043B" unicode="&#x43b;" horiz-adv-x="667" 
d="M439 399h-155l-14 -149q-24 -255 -236 -255l-7 1v132q72 0 86 129l30 277h452v-534h-156v399z" />
    <glyph glyph-name="uni043C" unicode="&#x43c;" horiz-adv-x="830" 
d="M360 0l-134 358h-1v-358h-153v534h212l131 -349l129 349h213v-534h-153v365h-2l-132 -365h-110z" />
    <glyph glyph-name="uni043D" unicode="&#x43d;" horiz-adv-x="644" 
d="M72 0v534h156v-201h188v201h156v-534h-156v203h-188v-203h-156z" />
    <glyph glyph-name="uni043E" unicode="&#x43e;" horiz-adv-x="661" 
d="M39 266q0 120 85 199q86 81 208 81q121 0 206 -80q84 -79 84 -197q0 -120 -85 -201q-86 -80 -207 -80q-124 0 -207 79q-84 79 -84 199zM199 268q0 -59 38 -99q38 -38 94 -38q57 0 94 38.5t37 98.5q0 59 -38 97q-38 39 -94 39t-93 -39q-38 -38 -38 -97z" />
    <glyph glyph-name="uni043F" unicode="&#x43f;" horiz-adv-x="641" 
d="M72 0v534h497v-534h-156v399h-184v-399h-157z" />
    <glyph glyph-name="uni0440" unicode="&#x440;" horiz-adv-x="686" 
d="M227 534v-66h2q55 76 163 76q112 0 183 -84q71 -85 71 -192q0 -109 -73 -194q-73 -84 -185 -84q-101 0 -158 69h-2v-323h-156v798h155zM224 268q0 -59 38 -99q38 -38 94 -38t94 38q38 40 38 99q0 60 -39 97q-38 38 -94 38q-55 0 -93 -38t-38 -97z" />
    <glyph glyph-name="uni0441" unicode="&#x441;" horiz-adv-x="615" 
d="M327 -12q-126 0 -206 79q-81 79 -81 199q0 118 84 199t204 81q90 0 158 -43.5t94 -121.5l-137 -57q-34 79 -115 79q-55 0 -91.5 -37t-36.5 -98q0 -60 35.5 -98t92.5 -38q84 0 118 79l138 -57q-30 -80 -98 -123t-159 -43z" />
    <glyph glyph-name="uni0442" unicode="&#x442;" horiz-adv-x="520" 
d="M21 399v135h479v-135h-162v-399h-157v399h-160z" />
    <glyph glyph-name="uni0443" unicode="&#x443;" horiz-adv-x="611" 
d="M238 57l-225 477h172l133 -305l119 305h161l-324 -797h-167z" />
    <glyph glyph-name="uni0444" unicode="&#x444;" horiz-adv-x="926" 
d="M541 -244h-157v281q-16 -18 -50 -31t-67 -13q-107 0 -166 81q-59 83 -59 193t59 193q58 82 169 82q33 0 65 -14t50 -35l-1 290h157v-290q18 21 50.5 35t65.5 14q75 0 127 -42q100 -77 100 -234q0 -110 -59 -192q-59 -81 -166 -81q-33 0 -67.5 13t-50.5 31v-281zM311 403
q-52 0 -81 -41q-27 -40 -27 -95q0 -51 26 -94q26 -42 82 -42q38 0 74 24v224q-41 24 -74 24zM616 403q-34 0 -75 -24v-224q36 -24 74 -24q57 0 82 42q26 44 26 96q0 53 -28 93q-27 41 -79 41z" />
    <glyph glyph-name="uni0445" unicode="&#x445;" horiz-adv-x="575" 
d="M203 269l-186 265h175l96 -151l99 151h172l-188 -262l193 -272h-175l-102 157l-103 -157h-173z" />
    <glyph glyph-name="uni0446" unicode="&#x446;" horiz-adv-x="681" 
d="M492 0h-420v534h157v-399h184v399h156v-399h68v-299h-145v164z" />
    <glyph glyph-name="uni0447" unicode="&#x447;" horiz-adv-x="609" 
d="M537 0h-156v183q-73 -36 -148 -36q-81 0 -137 45q-54 47 -54 134v208h157v-164q0 -89 76 -89q55 0 106 27v226h156v-534z" />
    <glyph glyph-name="uni0448" unicode="&#x448;" horiz-adv-x="962" 
d="M403 135v399h156v-399h175v399h156v-534h-818v534h157v-399h174z" />
    <glyph glyph-name="uni0449" unicode="&#x449;" horiz-adv-x="1002" 
d="M813 0h-741v534h157v-399h174v399h156v-399h175v399h156v-400h68v-299h-145v165z" />
    <glyph glyph-name="uni044A" unicode="&#x44a;" horiz-adv-x="716" 
d="M344 534v-160h120q106 0 166 -48t60 -137t-57.5 -139t-159.5 -50h-286v399h-166v135h323zM344 257v-134h107q82 0 82 69q0 65 -82 65h-107z" />
    <glyph glyph-name="uni044B" unicode="&#x44b;" horiz-adv-x="902" 
d="M228 534v-160h121q106 0 166 -48t60 -137t-57.5 -139t-159.5 -50h-286v534h156zM830 0h-156v534h156v-534zM228 257v-134h107q82 0 82 69q0 65 -82 65h-107z" />
    <glyph glyph-name="uni044C" unicode="&#x44c;" horiz-adv-x="601" 
d="M228 534v-160h121q106 0 166 -48t60 -137t-57.5 -139t-159.5 -50h-286v534h156zM228 257v-134h107q82 0 82 69q0 65 -82 65h-107z" />
    <glyph glyph-name="uni044D" unicode="&#x44d;" horiz-adv-x="613" 
d="M290 546q121 0 202 -81q81 -79 81 -199q0 -117 -82 -198q-82 -80 -203 -80q-92 0 -160.5 42.5t-97.5 122.5l134 55q36 -79 125 -79q45 0 77.5 24t43.5 63h-176v107h173q-13 39 -44.5 61t-73.5 22q-87 0 -122 -78l-134 55q25 77 97 120q70 43 160 43z" />
    <glyph glyph-name="uni044E" unicode="&#x44e;" horiz-adv-x="901" 
d="M581 546q122 0 201 -79q80 -80 80 -198q0 -121 -81 -201q-80 -80 -201 -80q-103 0 -179 59q-74 58 -97 155h-75v-202h-157v534h157v-202h75q21 96 97 154q77 60 180 60zM581 131q54 0 87.5 38t33.5 99q0 60 -33.5 98t-88.5 38t-89 -37t-34 -99q0 -61 34.5 -99t89.5 -38z
" />
    <glyph glyph-name="uni044F" unicode="&#x44f;" horiz-adv-x="644" 
d="M203 0h-175l126 200q-102 43 -102 155q0 81 57 130t160 49h303v-534h-155v170h-108zM417 282v130h-125q-28 2 -55 -12.5t-29 -51.5q0 -29 22.5 -47.5t63.5 -18.5h123z" />
    <glyph glyph-name="uni0451" unicode="&#x451;" horiz-adv-x="627" 
d="M115 704q0 36 25 61.5t61 25.5t61.5 -25.5t25.5 -61.5q0 -37 -25.5 -62t-61.5 -25t-61 25t-25 62zM353 704q0 36 25 61.5t61 25.5t61.5 -25.5t25.5 -61.5q0 -37 -25.5 -62t-61.5 -25t-61 25t-25 62zM586 224h-388q7 -48 44 -76.5t88 -28.5q36 0 68.5 17.5t50.5 46.5
l113 -74q-67 -121 -230 -121q-124 0 -209 78q-84 79 -84 202q0 114 83 197q83 82 200 82q118 0 192 -74t74 -193q0 -32 -2 -56zM202 327h230q-3 38 -33.5 65.5t-80.5 27.5q-49 0 -80 -31q-31 -30 -36 -62z" />
    <glyph glyph-name="uni0452" unicode="&#x452;" horiz-adv-x="623" 
d="M379 544q96 0 144 -61q49 -61 49 -151v-372q0 -114 -56.5 -169t-171.5 -55q-34 0 -55 7v131q13 -3 27 -3q52 0 76.5 22.5t24.5 74.5v328q0 48 -24 76t-69 28q-46 0 -71 -29t-25 -75v-296h-156v619h-67v106h67v90h155v-90h160v-106h-160v-155h1q20 33 53 52q49 28 98 28z
" />
    <glyph glyph-name="uni0453" unicode="&#x453;" horiz-adv-x="492" 
d="M325 623h-128l107 187h179zM472 534v-135h-243v-399h-157v534h400z" />
    <glyph glyph-name="uni0454" unicode="&#x454;" horiz-adv-x="614" 
d="M449 208l134 -55q-30 -80 -97.5 -122.5t-158.5 -42.5q-126 0 -206 79q-81 79 -81 199q0 118 84 199t205 81q89 0 156 -43q70 -42 95 -120l-134 -55q-34 78 -118 78q-43 0 -76 -22.5t-46 -60.5h173v-107h-175q13 -40 46 -63.5t78 -23.5q85 0 121 79z" />
    <glyph glyph-name="uni0455" unicode="&#x455;" horiz-adv-x="512" 
d="M474 161q0 -78 -57.5 -125.5t-155.5 -47.5q-168 0 -233 123l115 68q33 -65 120 -65q29 0 47 11.5t18 27.5q0 17 -18.5 29t-66.5 23q-190 42 -190 173q0 75 60 121q62 48 145 48q72 0 125.5 -29t80.5 -79l-113 -67q-30 51 -97 51q-24 0 -40 -11.5t-16 -27.5q0 -34 70 -49
q103 -21 154.5 -63.5t51.5 -110.5z" />
    <glyph glyph-name="uni0456" unicode="&#x456;" horiz-adv-x="301" 
d="M149 817q41 0 69.5 -28t28.5 -69q0 -40 -28.5 -68t-69.5 -28q-39 0 -67.5 28t-28.5 68t28.5 68.5t67.5 28.5zM72 534h157v-534h-157v534z" />
    <glyph glyph-name="uni0457" unicode="&#x457;" horiz-adv-x="301" 
d="M-53 704q0 36 25 61.5t61 25.5t61.5 -25.5t25.5 -61.5q0 -37 -25.5 -62t-61.5 -25t-61 25t-25 62zM180 704q0 36 25.5 61.5t61.5 25.5t61.5 -26t25.5 -61q0 -36 -25.5 -61.5t-61.5 -25.5t-61.5 25t-25.5 62zM229 0h-157v534h157v-534z" />
    <glyph glyph-name="uni0458" unicode="&#x458;" horiz-adv-x="309" 
d="M157 817q41 0 69.5 -28.5t28.5 -68.5t-28.5 -68t-69.5 -28q-40 0 -68 28t-28 68t28 68.5t68 28.5zM80 534h156v-574q0 -114 -56 -169t-173 -55q-34 0 -55 7v131q14 -3 27 -3q52 0 76.5 22.5t24.5 74.5v566z" />
    <glyph glyph-name="uni0459" unicode="&#x459;" horiz-adv-x="968" 
d="M438 399h-154l-14 -149q-26 -255 -237 -255l-6 1v132q71 0 86 129l30 277h451v-151h117q107 0 168.5 -49.5t61.5 -139.5t-58.5 -142t-161.5 -52h-283v399zM594 267v-144h104q86 0 86 74q0 32 -22 51t-64 19h-104z" />
    <glyph glyph-name="uni045A" unicode="&#x45a;" horiz-adv-x="944" 
d="M228 0h-156v534h156v-165h188v165h156v-165h120q107 0 166.5 -47t59.5 -136q0 -88 -57.5 -137t-158.5 -49h-286v250h-188v-250zM572 252v-129h107q82 0 82 66q0 63 -82 63h-107z" />
    <glyph glyph-name="uni045B" unicode="&#x45b;" horiz-adv-x="639" 
d="M572 0h-156v296q0 47 -23.5 75.5t-68.5 28.5q-46 0 -71 -29t-25 -73v-298h-156v619h-67v106h67v90h156v-90h159v-106h-159v-148h1q51 73 147 73t146 -62t50 -150v-332z" />
    <glyph glyph-name="uni045C" unicode="&#x45c;" horiz-adv-x="624" 
d="M389 623h-128l107 187h179zM72 0v534h157v-229h2l197 229h189l-228 -260l239 -274h-199l-197 233h-3v-233h-157z" />
    <glyph glyph-name="uni045E" unicode="&#x45e;" horiz-adv-x="621" 
d="M307 618q-80 0 -130.5 48.5t-63.5 134.5l91 16q28 -91 103 -91q74 0 102 91l90 -15q-14 -88 -63.5 -136t-128.5 -48zM238 57l-225 477h172l133 -305l119 305h161l-324 -797h-167z" />
    <glyph glyph-name="uni045F" unicode="&#x45f;" horiz-adv-x="642" 
d="M248 -164v164h-176v534h157v-399h184v399h156v-534h-176v-164h-145z" />
    <glyph glyph-name="uni0490" unicode="&#x490;" horiz-adv-x="601" 
d="M425 783v162h157v-315h-329v-630h-162v783h334z" />
    <glyph glyph-name="uni0491" unicode="&#x491;" horiz-adv-x="491" 
d="M327 534v167h145v-302h-243v-399h-157v534h255z" />
    <glyph glyph-name="uni0496" unicode="&#x496;" horiz-adv-x="1137" 
d="M954 0h-43l-270 380h-5v-380h-162v380h-5l-270 -380h-200l294 403l-282 380h198l260 -367l5 1v366h162v-367h5l259 367h199l-283 -380l183 -249h112v-318h-157v164z" />
    <glyph glyph-name="uni0497" unicode="&#x497;" horiz-adv-x="940" 
d="M763 0h-44l-179 259h-3v-259h-155v259h-4l-178 -259h-189l195 273l-191 261h185l178 -246h4v246h155v-246h4l178 246h185l-191 -261l99 -138h95v-299h-145z" />
    <glyph glyph-name="uni0498" unicode="&#x498;" horiz-adv-x="658" 
d="M608 225q0 -84 -56 -146q-57 -63 -147 -82v-161h-157v158q-164 29 -222 161l142 73q20 -43 62 -66.5t97 -23.5q52 0 84.5 24.5t32.5 66.5q0 45 -30.5 68.5t-86.5 23.5h-103v150h94q52 0 82 24t30 64q0 38 -31 61.5t-84 23.5q-91 0 -132 -87l-145 69q33 80 108.5 124.5
t174.5 44.5q121 0 197 -62q75 -61 75 -163q0 -108 -107 -165v-1q64 -27 93 -70t29 -109z" />
    <glyph glyph-name="uni0499" unicode="&#x499;" horiz-adv-x="532" 
d="M486 157q0 -65 -40.5 -107.5t-113.5 -55.5v-158h-145v159q-112 22 -163 122l122 69q38 -66 120 -66q29 0 48 14t19 35q0 49 -67 49h-66v103h64q60 0 60 48q0 19 -17.5 32.5t-46.5 13.5q-70 0 -111 -68l-118 66q70 133 236 133q95 0 152.5 -43t57.5 -116q0 -79 -74 -111
v-1q83 -33 83 -118z" />
    <glyph glyph-name="uni049A" unicode="&#x49a;" horiz-adv-x="765" 
d="M585 0h-51l-282 372v-372h-161v783h161v-341l269 341h202l-299 -374l199 -255h120v-318h-158v164z" />
    <glyph glyph-name="uni049B" unicode="&#x49b;" horiz-adv-x="648" 
d="M483 0h-55l-197 233h-3v-233h-156v534h156v-229h2l197 229h190l-229 -260l122 -139h117v-299h-145z" />
    <glyph glyph-name="uni04A2" unicode="&#x4a2;" horiz-adv-x="871" 
d="M667 0h-86v317h-328v-317h-162v783h162v-309h328v309h162v-629h81v-318h-157v164z" />
    <glyph glyph-name="uni04A3" unicode="&#x4a3;" horiz-adv-x="684" 
d="M495 0h-79v203h-188v-203h-156v534h156v-201h188v201h156v-399h68v-299h-145v164z" />
    <glyph glyph-name="uni04AA" unicode="&#x4aa;" horiz-adv-x="832" 
d="M658 291l149 -69q-32 -88 -107.5 -147.5t-174.5 -78.5v-160h-157v160q-142 26 -234 135q-91 109 -91 260q0 169 118 286q118 118 288 118q119 0 217 -62q99 -61 138 -169l-148 -68q-25 66 -80.5 103.5t-127.5 37.5q-101 0 -169 -71t-68 -173q0 -105 67 -176
q68 -71 170 -71q71 0 127 39.5t83 105.5z" />
    <glyph glyph-name="uni04AB" unicode="&#x4ab;" horiz-adv-x="615" 
d="M446 211l138 -57q-50 -130 -185 -158v-160h-145v160q-98 23 -155 95q-59 74 -59 175q0 118 84 199t204 81q90 0 158 -43.5t94 -121.5l-137 -57q-34 79 -115 79q-55 0 -91.5 -37t-36.5 -98q0 -60 35.5 -98t92.5 -38q84 0 118 79z" />
    <glyph glyph-name="uni04AC" unicode="&#x4ac;" horiz-adv-x="677" 
d="M342 0h-87v626h-235v157h631v-157h-234v-472h82v-318h-157v164z" />
    <glyph glyph-name="uni04AD" unicode="&#x4ad;" horiz-adv-x="525" 
d="M261 0h-80v399h-160v135h479v-135h-162v-264h68v-299h-145v164z" />
    <glyph glyph-name="uni04B2" unicode="&#x4b2;" horiz-adv-x="782" 
d="M599 0h-32l-191 282l-194 -282h-183l282 403l-266 380h190l173 -254l175 254h189l-268 -379l174 -250h108v-318h-157v164z" />
    <glyph glyph-name="uni04B3" unicode="&#x4b3;" horiz-adv-x="597" 
d="M419 0h-30l-102 157l-103 -157h-173l192 269l-186 265h175l96 -151l99 151h172l-188 -262l97 -137h96v-299h-145v164z" />
    <glyph glyph-name="uni04B6" unicode="&#x4b6;" horiz-adv-x="805" 
d="M601 0h-86v304q-114 -57 -204 -57q-122 0 -190 66t-68 191v279h161v-231q0 -146 132 -146q105 0 169 49v328h161v-629h82v-318h-157v164z" />
    <glyph glyph-name="uni04B7" unicode="&#x4b7;" horiz-adv-x="649" 
d="M459 0h-78v183q-73 -36 -148 -36q-81 0 -137 45q-54 47 -54 134v208h157v-164q0 -89 76 -89q55 0 106 27v226h156v-399h67v-299h-145v164z" />
    <glyph glyph-name="uni04C0" unicode="&#x4c0;" horiz-adv-x="345" 
d="M91 0v783h162v-783h-162z" />
    <glyph glyph-name="uni04C1" unicode="&#x4c1;" horiz-adv-x="1110" 
d="M556 856q-80 0 -130.5 49t-63.5 135l91 16q27 -92 103 -92q75 0 102 92l90 -16q-14 -88 -63.5 -136t-128.5 -48zM293 403l-282 380h198l260 -367l5 1v366h162v-367h5l259 367h199l-283 -380l295 -403h-200l-270 380h-5v-380h-162v380h-5l-270 -380h-200z" />
    <glyph glyph-name="uni04C2" unicode="&#x4c2;" horiz-adv-x="918" 
d="M266 801l91 16q30 -91 103 -91q74 0 102 91l90 -15q-13 -86 -63 -135t-129 -49t-130 49t-64 134zM719 534h185l-191 -261l194 -273h-188l-179 259h-3v-259h-155v259h-4l-178 -259h-189l195 273l-191 261h185l178 -246h4v246h155v-246h4z" />
    <glyph glyph-name="uni04CF" unicode="&#x4cf;" horiz-adv-x="301" 
d="M229 0h-157v534h157v-534z" />
    <glyph glyph-name="uni04D0" unicode="&#x4d0;" horiz-adv-x="792" 
d="M203 1040l91 16q29 -92 103 -92q75 0 102 92l90 -16q-13 -86 -63 -135t-129 -49t-130 49t-64 135zM162 0h-163l299 783h195l300 -783h-167l-59 158h-347zM394 626l-118 -318h236z" />
    <glyph glyph-name="uni04D1" unicode="&#x4d1;" horiz-adv-x="595" 
d="M103 801l91 16q28 -91 102 -91q73 0 103 91l90 -15q-15 -86 -64.5 -135t-128.5 -49t-129.5 48.5t-63.5 134.5zM222 -10q-76 0 -128 43t-52 116v2q0 94 79 132q68 32 159 32h53q42 0 42 39q0 29 -22.5 47.5t-63.5 18.5q-79 0 -119 -72l-119 71q69 127 245 127
q108 0 170 -56t62 -159v-331h-144v66l-2 1q-54 -77 -160 -77zM267 104q49 0 78 29t29 74v12h-94q-35 0 -58 -16t-23 -45q0 -26 18.5 -40t49.5 -14z" />
    <glyph glyph-name="uni04D2" unicode="&#x4d2;" horiz-adv-x="792" 
d="M359 933q0 -36 -25.5 -61.5t-61.5 -25.5t-61 25.5t-25 61.5t25 61.5t61 25.5t61.5 -26t25.5 -61zM581 871q-25 -25 -61 -25t-61 25q-25 26 -25 62t25 61q25 26 61 26t61 -26q26 -25 26 -61t-26 -62zM162 0h-163l299 783h195l300 -783h-167l-59 158h-347zM394 626
l-118 -318h236z" />
    <glyph glyph-name="uni04D3" unicode="&#x4d3;" horiz-adv-x="595" 
d="M91 704q0 36 25 61.5t61 25.5t61.5 -25.5t25.5 -61.5q0 -37 -25.5 -62t-61.5 -25t-61 25t-25 62zM330 704q0 36 25 61.5t61 25.5t61.5 -26t25.5 -61q0 -36 -25.5 -61.5t-61.5 -25.5t-61 25t-25 62zM222 -10q-76 0 -128 43t-52 116v2q0 94 79 132q68 32 159 32h53
q42 0 42 39q0 29 -22.5 47.5t-63.5 18.5q-79 0 -119 -72l-119 71q69 127 245 127q108 0 170 -56t62 -159v-331h-144v66l-2 1q-54 -77 -160 -77zM267 104q49 0 78 29t29 74v12h-94q-35 0 -58 -16t-23 -45q0 -26 18.5 -40t49.5 -14z" />
    <glyph glyph-name="uni04D4" unicode="&#x4d4;" horiz-adv-x="1054" 
d="M994 783v-152h-347v-159h311v-152h-311v-169h350v-151h-510v157h-248l-77 -157h-175l397 783h610zM487 632h-9l-164 -325h173v325z" />
    <glyph glyph-name="uni04D5" unicode="&#x4d5;" horiz-adv-x="954" 
d="M230 -10h-9q-75 0 -127 43t-52 116v6q0 37 14.5 65.5t37.5 46t55 29t63.5 15.5t66.5 4h54q42 0 42 39q0 29 -22.5 47.5t-63.5 18.5q-80 0 -118 -72l-119 71q67 127 244 127q115 0 175 -64q79 65 178 65q117 0 191 -74q75 -73 75 -191q0 -38 -3 -58h-387q7 -48 43.5 -76.5
t88.5 -28.5q36 0 68.5 17.5t50.5 46.5l113 -74q-69 -121 -231 -121q-136 0 -219 93q-84 -91 -209 -91zM528 327h230q-2 38 -32.5 65.5t-80.5 27.5q-49 0 -80 -31q-33 -31 -37 -62zM374 207v12h-95q-35 0 -57.5 -16t-22.5 -45q0 -26 18 -40t49 -14q50 0 79 29.5t29 73.5z" />
    <glyph glyph-name="uni04D6" unicode="&#x4d6;" horiz-adv-x="663" 
d="M350 856q-80 0 -130.5 49t-63.5 135l91 16q27 -92 103 -92q73 0 102 92l90 -16q-14 -86 -64 -135t-128 -49zM604 631h-353v-159h316v-152h-316v-169h355v-151h-515v783h513v-152z" />
    <glyph glyph-name="uni04D7" unicode="&#x4d7;" horiz-adv-x="627" 
d="M131 801l92 16q28 -91 102 -91t102 91l91 -15q-15 -86 -64.5 -135t-128.5 -49t-130 49t-64 134zM586 224h-388q7 -48 44 -76.5t88 -28.5q36 0 68.5 17.5t50.5 46.5l113 -74q-67 -121 -230 -121q-124 0 -209 78q-84 79 -84 202q0 114 83 197q83 82 200 82q118 0 192 -74
t74 -193q0 -32 -2 -56zM202 327h230q-3 38 -33.5 65.5t-80.5 27.5q-49 0 -80 -31q-31 -30 -36 -62z" />
    <glyph glyph-name="uni04DC" unicode="&#x4dc;" horiz-adv-x="1110" 
d="M431 1020q36 0 61.5 -26t25.5 -61q2 -36 -25.5 -61.5t-61.5 -25.5t-61 25q-19 18 -23.5 45t5 50t31 39t48.5 15zM679 1020q36 0 61.5 -25.5t25.5 -61.5t-25.5 -61.5t-61.5 -25.5t-61 25.5t-25 61.5t25 61.5t61 25.5zM293 403l-282 380h198l260 -367l5 1v366h162v-367h5
l259 367h199l-283 -380l295 -403h-200l-270 380h-5v-380h-162v380h-5l-270 -380h-200z" />
    <glyph glyph-name="uni04DD" unicode="&#x4dd;" horiz-adv-x="918" 
d="M254 704q0 36 25 61.5t61 25.5t61.5 -25.5t25.5 -61.5q0 -37 -25.5 -62t-61.5 -25t-61 25t-25 62zM492 704q0 36 25 61.5t61 25.5t61.5 -25.5t25.5 -61.5q0 -37 -25.5 -62t-61.5 -25t-61 25t-25 62zM719 534h185l-191 -261l194 -273h-188l-179 259h-3v-259h-155v259h-4
l-178 -259h-189l195 273l-191 261h185l178 -246h4v246h155v-246h4z" />
    <glyph glyph-name="uni04DE" unicode="&#x4de;" horiz-adv-x="658" 
d="M194 846q-35 0 -60.5 25.5t-25.5 61.5t25 61.5t61 25.5t61.5 -25.5t25.5 -61.5t-25.5 -61.5t-61.5 -25.5zM442 846q-35 0 -60 25.5t-25 61.5t24.5 61.5t60.5 25.5t61.5 -25.5t25.5 -61.5t-25.5 -61.5t-61.5 -25.5zM608 225q0 -103 -81 -170q-80 -67 -204 -67
q-105 0 -183.5 43.5t-113.5 123.5l142 73q20 -43 62 -66.5t97 -23.5q52 0 84.5 24.5t32.5 66.5q0 45 -30.5 68.5t-86.5 23.5h-103v150h94q52 0 82 24t30 64q0 38 -31 61.5t-84 23.5q-91 0 -132 -87l-145 69q33 80 108.5 124.5t174.5 44.5q121 0 197 -62q75 -61 75 -163
q0 -108 -107 -165v-1q64 -27 93 -70t29 -109z" />
    <glyph glyph-name="uni04DF" unicode="&#x4df;" horiz-adv-x="532" 
d="M61 704q0 36 25 61.5t61 25.5t61.5 -25.5t25.5 -61.5q0 -37 -25.5 -62t-61.5 -25t-61 25t-25 62zM299 704q0 36 25 61.5t61 25.5t61.5 -25.5t25.5 -61.5q0 -37 -25.5 -62t-61.5 -25t-61 25t-25 62zM324 369q0 19 -17.5 32.5t-46.5 13.5q-70 0 -111 -68l-118 66
q70 133 236 133q95 0 152.5 -43t57.5 -116q0 -79 -74 -111v-1q83 -33 83 -118q0 -80 -59.5 -124.5t-159.5 -44.5q-179 0 -243 129l122 69q38 -66 120 -66q29 0 48 14t19 35q0 49 -67 49h-66v103h64q60 0 60 48z" />
    <glyph glyph-name="uni04E2" unicode="&#x4e2;" horiz-adv-x="862" 
d="M248 868v116h364v-116h-364zM611 545l-349 -545h-171v783h160v-521l336 521h184v-783h-160v545z" />
    <glyph glyph-name="uni04E3" unicode="&#x4e3;" horiz-adv-x="651" 
d="M143 628v117h364v-117h-364zM72 0v534h154v-311h1l196 311h156v-534h-154v308h-1l-195 -308h-157z" />
    <glyph glyph-name="uni04E4" unicode="&#x4e4;" horiz-adv-x="862" 
d="M306 1020q36 0 61.5 -26t25.5 -61q2 -36 -25.5 -61.5t-61.5 -25.5t-61 25q-19 18 -23.5 45t5 50t31 39t48.5 15zM554 1020q36 0 61.5 -25.5t25.5 -61.5t-25.5 -61.5t-61.5 -25.5t-61 25.5t-25 61.5t25 61.5t61 25.5zM611 545l-349 -545h-171v783h160v-521l336 521h184
v-783h-160v545z" />
    <glyph glyph-name="uni04E5" unicode="&#x4e5;" horiz-adv-x="651" 
d="M120 704q0 36 25 61.5t61 25.5t61.5 -25.5t25.5 -61.5q0 -37 -25.5 -62t-61.5 -25t-61 25t-25 62zM358 704q0 36 25 61.5t61 25.5t61.5 -25.5t25.5 -61.5q0 -37 -25.5 -62t-61.5 -25t-61 25t-25 62zM72 0v534h154v-311h1l196 311h156v-534h-154v308h-1l-195 -308h-157z
" />
    <glyph glyph-name="uni04E6" unicode="&#x4e6;" horiz-adv-x="899" 
d="M327 1020q36 0 61.5 -26t25.5 -61q2 -36 -25.5 -61.5t-61.5 -25.5t-61 25q-19 18 -23.5 45t5 50t31 39t48.5 15zM575 1020q36 0 61.5 -25.5t25.5 -61.5t-25.5 -61.5t-61.5 -25.5t-61 25.5t-25 61.5t25 61.5t61 25.5zM43 391q0 167 120 286q119 118 289 118
q168 0 286 -116q118 -115 118 -284q0 -171 -120 -289q-118 -118 -288 -118q-168 0 -287 117q-118 117 -118 286zM279 566q-70 -71 -70 -174q0 -102 70 -175q71 -72 171 -72t171 72q70 73 70 175q0 103 -70 174q-71 72 -171 72t-171 -72z" />
    <glyph glyph-name="uni04E7" unicode="&#x4e7;" horiz-adv-x="661" 
d="M126 704q0 36 25 61.5t61 25.5t61.5 -25.5t25.5 -61.5q0 -37 -25.5 -62t-61.5 -25t-61 25t-25 62zM364 704q0 36 25 61.5t61 25.5t61.5 -25.5t25.5 -61.5q0 -37 -25.5 -62t-61.5 -25t-61 25t-25 62zM39 266q0 120 85 199q86 81 208 81q121 0 206 -80q84 -79 84 -197
q0 -120 -85 -201q-86 -80 -207 -80q-124 0 -207 79q-84 79 -84 199zM199 268q0 -59 38 -99q38 -38 94 -38q57 0 94 38.5t37 98.5q0 59 -38 97q-38 39 -94 39t-93 -39q-38 -38 -38 -97z" />
    <glyph glyph-name="uni04E8" unicode="&#x4e8;" horiz-adv-x="899" 
d="M43 391q0 167 120 286q119 118 289 118q168 0 286 -116q118 -115 118 -284q0 -171 -120 -289q-118 -118 -288 -118q-168 0 -287 117q-118 117 -118 286zM214 463h472q-20 78 -86 128q-65 52 -150 52q-84 0 -151 -52t-85 -128zM687 323h-474q19 -78 86 -131
q65 -52 151 -52q85 0 152 52t85 131z" />
    <glyph glyph-name="uni04E9" unicode="&#x4e9;" horiz-adv-x="661" 
d="M39 266q0 120 85 199q86 81 208 81q121 0 206 -80q84 -79 84 -197q0 -120 -85 -201q-86 -80 -207 -80q-124 0 -207 79q-84 79 -84 199zM195 317h271q-13 44 -50.5 71t-85.5 27q-47 0 -84.5 -27t-50.5 -71zM465 214h-269q13 -42 50 -68t85 -26q47 0 84 26t50 68z" />
    <glyph glyph-name="uni04EA" unicode="&#x4ea;" horiz-adv-x="899" 
d="M327 1020q36 0 61.5 -26t25.5 -61q2 -36 -25.5 -61.5t-61.5 -25.5t-61 25q-19 18 -23.5 45t5 50t31 39t48.5 15zM575 1020q36 0 61.5 -25.5t25.5 -61.5t-25.5 -61.5t-61.5 -25.5t-61 25.5t-25 61.5t25 61.5t61 25.5zM43 391q0 167 120 286q119 118 289 118
q168 0 286 -116q118 -115 118 -284q0 -171 -120 -289q-118 -118 -288 -118q-168 0 -287 117q-118 117 -118 286zM686 463q-20 78 -86 128q-65 52 -150 52q-84 0 -151 -52t-85 -128h472zM213 323q19 -78 86 -131q65 -52 151 -52q85 0 152 52t85 131h-474z" />
    <glyph glyph-name="uni04EB" unicode="&#x4eb;" horiz-adv-x="661" 
d="M126 704q0 36 25 61.5t61 25.5t61.5 -25.5t25.5 -61.5q0 -37 -25.5 -62t-61.5 -25t-61 25t-25 62zM364 704q0 36 25 61.5t61 25.5t61.5 -25.5t25.5 -61.5q0 -37 -25.5 -62t-61.5 -25t-61 25t-25 62zM39 266q0 120 85 199q86 81 208 81q121 0 206 -80q84 -79 84 -197
q0 -120 -85 -201q-86 -80 -207 -80q-124 0 -207 79q-84 79 -84 199zM466 317q-13 44 -50.5 71t-85.5 27q-47 0 -84.5 -27t-50.5 -71h271zM196 214q13 -42 50 -68t85 -26q47 0 84 26t50 68h-269z" />
    <glyph glyph-name="uni04EC" unicode="&#x4ec;" horiz-adv-x="838" 
d="M333 871q-25 -25 -61 -25t-61 25q-25 26 -25 62t25 61q25 26 61 26t61 -26q26 -25 26 -61t-26 -62zM520 846q-35 0 -60.5 25.5t-25.5 61.5t25 61.5t61 25.5t61.5 -25.5t25.5 -61.5t-25.5 -61.5t-61.5 -25.5zM388 795q175 0 287 -115q114 -116 114 -286q0 -172 -114 -289
q-113 -116 -289 -116q-120 0 -221 62q-99 61 -140 170l147 67q27 -66 84 -105t131 -39q85 0 147 50q63 51 82 129h-312v145h309q-21 74 -83 122q-61 49 -143 49q-74 0 -131 -37.5t-82 -102.5l-145 67q38 106 138 167q101 62 221 62z" />
    <glyph glyph-name="uni04ED" unicode="&#x4ed;" horiz-adv-x="613" 
d="M82 704q0 36 25 61.5t61 25.5t61.5 -25.5t25.5 -61.5q0 -37 -25.5 -62t-61.5 -25t-61 25t-25 62zM320 704q0 36 25 61.5t61 25.5t61.5 -25.5t25.5 -61.5q0 -37 -25.5 -62t-61.5 -25t-61 25t-25 62zM290 546q121 0 202 -81q81 -79 81 -199q0 -117 -82 -198
q-82 -80 -203 -80q-92 0 -160.5 42.5t-97.5 122.5l134 55q36 -79 125 -79q45 0 77.5 24t43.5 63h-176v107h173q-13 39 -44.5 61t-73.5 22q-87 0 -122 -78l-134 55q25 77 97 120q70 43 160 43z" />
    <glyph glyph-name="uni04EE" unicode="&#x4ee;" horiz-adv-x="729" 
d="M193 868v116h364v-116h-364zM3 783h178l198 -401l187 401h175l-306 -614q-47 -95 -104 -137t-136 -42q-103 0 -177 55l89 132q41 -32 83 -32q62 0 99 73z" />
    <glyph glyph-name="uni04EF" unicode="&#x4ef;" horiz-adv-x="621" 
d="M125 628v117h364v-117h-364zM238 57l-225 477h172l133 -305l119 305h161l-324 -797h-167z" />
    <glyph glyph-name="uni04F0" unicode="&#x4f0;" horiz-adv-x="729" 
d="M314 871q-25 -25 -61 -25t-61 25q-25 26 -25 62t25 61q25 26 61 26t61 -26q26 -25 26 -61t-26 -62zM501 846q-35 0 -60.5 25.5t-25.5 61.5t25 61.5t61 25.5t61.5 -25.5t25.5 -61.5t-25.5 -61.5t-61.5 -25.5zM3 783h178l198 -401l187 401h175l-306 -614q-47 -95 -104 -137
t-136 -42q-103 0 -177 55l89 132q41 -32 83 -32q62 0 99 73z" />
    <glyph glyph-name="uni04F1" unicode="&#x4f1;" horiz-adv-x="621" 
d="M187 617q-35 0 -60 25t-25 62q0 36 24.5 61.5t60.5 25.5t61.5 -25.5t25.5 -61.5q0 -37 -25.5 -62t-61.5 -25zM340 704q0 36 25 61.5t61 25.5t61.5 -25.5t25.5 -61.5q0 -37 -25.5 -62t-61.5 -25t-61 25t-25 62zM238 57l-225 477h172l133 -305l119 305h161l-324 -797h-167z
" />
    <glyph glyph-name="uni04F2" unicode="&#x4f2;" horiz-adv-x="729" 
d="M321 852h-123l107 188h174zM542 852h-123l107 188h175zM3 783h178l198 -401l187 401h175l-306 -614q-47 -95 -104 -137t-136 -42q-103 0 -177 55l89 132q41 -32 83 -32q62 0 99 73z" />
    <glyph glyph-name="uni04F3" unicode="&#x4f3;" horiz-adv-x="621" 
d="M252 623h-124l108 187h174zM473 623h-123l107 187h174zM238 57l-225 477h172l133 -305l119 305h161l-324 -797h-167z" />
    <glyph glyph-name="uni04F4" unicode="&#x4f4;" horiz-adv-x="768" 
d="M301 871q-25 -25 -61 -25t-61 25q-25 26 -25 62t25 61q25 26 61 26t61 -26q26 -25 26 -61t-26 -62zM488 846q-35 0 -60.5 25.5t-25.5 61.5t25 61.5t61 25.5t61.5 -25.5t25.5 -61.5t-25.5 -61.5t-61.5 -25.5zM676 0h-161v304q-114 -57 -204 -57q-122 0 -190 66t-68 191
v279h161v-231q0 -146 132 -146q105 0 169 49v328h161v-783z" />
    <glyph glyph-name="uni04F5" unicode="&#x4f5;" horiz-adv-x="609" 
d="M84 704q0 36 25 61.5t61 25.5t61.5 -25.5t25.5 -61.5q0 -37 -25.5 -62t-61.5 -25t-61 25t-25 62zM322 704q0 36 25 61.5t61 25.5t61.5 -25.5t25.5 -61.5q0 -37 -25.5 -62t-61.5 -25t-61 25t-25 62zM537 0h-156v183q-73 -36 -148 -36q-81 0 -137 45q-54 47 -54 134v208
h157v-164q0 -89 76 -89q55 0 106 27v226h156v-534z" />
    <glyph glyph-name="uni04F8" unicode="&#x4f8;" horiz-adv-x="1080" 
d="M413 846q-36 0 -61 25.5t-25 61.5t25 61.5t61 25.5t61.5 -26t25.5 -61q0 -36 -26 -61.5t-61 -25.5zM661 846q-36 0 -61 25.5t-25 61.5t25 61.5t61 25.5t61.5 -26t25.5 -61q0 -36 -26 -61.5t-61 -25.5zM253 783v-296h178q73 0 127.5 -21t84.5 -56.5t44 -76t14 -85.5
q0 -95 -61 -168q-32 -37 -89 -58.5t-130 -21.5h-330v783h162zM988 783v-783h-162v783h162zM253 340v-187h168q68 0 94 29t26 67q0 40 -29 65.5t-93 25.5h-166z" />
    <glyph glyph-name="uni04F9" unicode="&#x4f9;" horiz-adv-x="902" 
d="M246 704q0 36 25 61.5t61 25.5q36 2 61 -25.5t25 -61.5t-25 -62q-18 -19 -44.5 -23t-49.5 5t-39 31t-14 49zM484 704q0 36 25 61.5t61 25.5t61.5 -25.5t25.5 -61.5q0 -37 -25.5 -62t-61.5 -25t-61 25t-25 62zM228 534v-160h121q106 0 166 -48t60 -137t-57.5 -139
t-159.5 -50h-286v534h156zM830 0h-156v534h156v-534zM228 257v-134h107q82 0 82 69q0 65 -82 65h-107z" />
    <glyph glyph-name="uni0E3F" unicode="&#xe3f;" horiz-adv-x="748" 
d="M557 409v-2q74 -28 108.5 -73t34.5 -118q0 -57 -23.5 -100.5t-64 -67.5t-88.5 -36t-103 -12h-4v-102h-83v102h-242v783h242v108h83v-108q103 0 176 -54q74 -54 74 -153q0 -110 -110 -167zM250 634v-170h86v170h-86zM508 550q0 76 -92 84v-168q92 11 92 84zM250 326v-177
h86v177h-86zM416 326v-177h5q55 0 88 21.5t33 66.5q0 89 -126 89z" />
    <glyph glyph-name="uni1E20" unicode="&#x1e20;" horiz-adv-x="858" 
d="M270 858v117h364v-117h-364zM208 392q0 -103 68 -177q67 -73 173 -73q77 0 132 36t70 96h-238v147h407v-61q0 -117 -54 -204q-104 -168 -317 -168q-179 0 -293 116q-113 118 -113 287q0 170 119 287q120 117 289 117q136 0 228 -68q91 -67 123 -153l-143 -70
q-23 57 -74 96q-51 42 -136 42q-101 0 -171 -72q-70 -71 -70 -178z" />
    <glyph glyph-name="uni1E21" unicode="&#x1e21;" horiz-adv-x="682" 
d="M150 628v117h364v-117h-364zM51 -114l127 73q45 -90 142 -90q62 0 98 32t36 93v81h-2q-56 -71 -154 -71q-114 0 -186 77t-72 191q0 108 70 188q70 82 182 82q101 0 162 -73h2v65h153v-536q0 -124 -81 -195q-79 -70 -207 -70q-198 0 -270 153zM458 272q0 58 -37 94.5
t-93 36.5q-55 0 -92.5 -37t-37.5 -94q0 -59 36.5 -95.5t93.5 -36.5q56 0 93 37t37 95z" />
    <glyph glyph-name="uni1E30" unicode="&#x1e30;" horiz-adv-x="738" 
d="M457 855h-128l107 187h179zM91 783h163v-341l268 341h203l-299 -374l318 -409h-209l-281 372v-372h-163v783z" />
    <glyph glyph-name="uni1E31" unicode="&#x1e31;" horiz-adv-x="619" 
d="M72 0v815h156v-491l185 210h199l-215 -246l221 -288h-197l-189 253h-4v-253h-156zM434 623h-128l107 187h179z" />
    <glyph glyph-name="uni1E60" unicode="&#x1e60;" horiz-adv-x="652" 
d="M228 942q0 40 28 68t67 28q40 0 68 -28t28 -68q0 -39 -28 -67t-68 -28q-39 0 -67 28t-28 67zM338 473q144 -41 209 -96.5t65 -146.5q0 -108 -76 -175t-211 -67q-109 0 -189.5 49t-116.5 135l140 72q24 -52 68 -80.5t103 -28.5q52 0 85.5 23.5t33.5 59.5q0 35 -31 54
q-31 22 -117 47q-136 41 -191 95q-60 58 -60 145q0 103 80 169q79 67 193 67q98 0 169.5 -44t105.5 -125l-134 -73q-41 96 -148 96q-47 0 -75.5 -22t-28.5 -58q0 -34 28.5 -55.5t97.5 -40.5z" />
    <glyph glyph-name="uni1E61" unicode="&#x1e61;" horiz-adv-x="512" 
d="M176 713q0 39 28 67t66 28q40 0 68.5 -28t28.5 -67q0 -40 -28.5 -68t-68.5 -28q-38 0 -66 28t-28 68zM474 161q0 -78 -57.5 -125.5t-155.5 -47.5q-168 0 -233 123l115 68q33 -65 120 -65q29 0 47 11.5t18 27.5q0 17 -18.5 29t-66.5 23q-190 42 -190 173q0 75 60 121
q62 48 145 48q72 0 125.5 -29t80.5 -79l-113 -67q-30 51 -97 51q-24 0 -40 -11.5t-16 -27.5q0 -34 70 -49q103 -21 154.5 -63.5t51.5 -110.5z" />
    <glyph glyph-name="Wgrave" unicode="&#x1e80;" horiz-adv-x="1191" 
d="M534 855l-158 187h179l107 -187h-128zM19 783h173l149 -556l169 556h173l169 -560l154 560h167l-232 -783h-175l-170 568h-2l-171 -568h-174z" />
    <glyph glyph-name="wgrave" unicode="&#x1e81;" horiz-adv-x="893" 
d="M226 810h179l107 -187h-128zM876 534l-168 -534h-153l-109 341h-1l-110 -341h-151l-166 534h160l96 -331h1l100 331h144l100 -334l101 334h156z" />
    <glyph glyph-name="Wacute" unicode="&#x1e82;" horiz-adv-x="1191" 
d="M662 855h-128l107 187h179zM19 783h173l149 -556l169 556h173l169 -560l154 560h167l-232 -783h-175l-170 568h-2l-171 -568h-174z" />
    <glyph glyph-name="wacute" unicode="&#x1e83;" horiz-adv-x="893" 
d="M509 623h-128l107 187h179zM876 534l-168 -534h-153l-109 341h-1l-110 -341h-151l-166 534h160l96 -331h1l100 331h144l100 -334l101 334h156z" />
    <glyph glyph-name="Wdieresis" unicode="&#x1e84;" horiz-adv-x="1191" 
d="M472 1020q36 0 61.5 -25.5t25.5 -61.5t-25.5 -61.5t-61.5 -25.5t-61 25.5t-25 61.5t25 61.5t61 25.5zM720 1020q36 0 61.5 -25.5t25.5 -61.5t-25.5 -61.5t-61.5 -25.5t-61 25.5t-25 61.5t25 61.5t61 25.5zM19 783h173l149 -556l169 556h173l169 -560l154 560h167
l-232 -783h-175l-170 568h-2l-171 -568h-174z" />
    <glyph glyph-name="wdieresis" unicode="&#x1e85;" horiz-adv-x="893" 
d="M242 704q0 36 25 61.5t61 25.5t61.5 -26t25.5 -61q0 -36 -25.5 -61.5t-61.5 -25.5t-61 25t-25 62zM480 704q0 36 25 61.5t61 25.5t61.5 -25.5t25.5 -61.5q0 -37 -25.5 -62t-61.5 -25t-61 25t-25 62zM876 534l-168 -534h-153l-109 341h-1l-110 -341h-151l-166 534h160
l96 -331h1l100 331h144l100 -334l101 334h156z" />
    <glyph glyph-name="uni1E90" unicode="&#x1e90;" horiz-adv-x="685" 
d="M147 854l121 174h146l121 -174h-133l-61 91l-61 -91h-133zM431 633h-373v150h574v-139l-388 -494h397v-150h-601v143z" />
    <glyph glyph-name="uni1E91" unicode="&#x1e91;" horiz-adv-x="541" 
d="M75 624l120 174h147l120 -174h-132l-61 91l-61 -91h-133zM51 534h442v-119l-252 -282h254v-133h-452v121l249 280h-241v133z" />
    <glyph glyph-name="uni1EBC" unicode="&#x1ebc;" horiz-adv-x="663" 
d="M278 1019q32 0 61.5 -15.5t50 -30.5t29.5 -15q34 0 34 58h97q4 -76 -30.5 -119.5t-100.5 -43.5q-30 0 -60 15.5t-51 30.5t-30 15q-33 0 -34 -58h-96q-5 76 29.5 119.5t100.5 43.5zM604 631h-353v-159h316v-152h-316v-169h355v-151h-515v783h513v-152z" />
    <glyph glyph-name="uni1EBD" unicode="&#x1ebd;" horiz-adv-x="627" 
d="M251 789q32 0 61.5 -15.5t50 -30.5t29.5 -15q34 0 34 58h97q4 -76 -30.5 -119.5t-100.5 -43.5q-30 0 -60 15.5t-51 30.5t-30 15q-33 0 -34 -58h-96q-5 76 29.5 119.5t100.5 43.5zM586 224h-388q7 -48 44 -76.5t88 -28.5q36 0 68.5 17.5t50.5 46.5l113 -74
q-67 -121 -230 -121q-124 0 -209 78q-84 79 -84 202q0 114 83 197q83 82 200 82q118 0 192 -74t74 -193q0 -32 -2 -56zM202 327h230q-3 38 -33.5 65.5t-80.5 27.5q-49 0 -80 -31q-31 -30 -36 -62z" />
    <glyph glyph-name="Ygrave" unicode="&#x1ef2;" horiz-adv-x="763" 
d="M326 855l-158 187h179l107 -187h-128zM14 783h187l181 -313l183 313h185l-287 -466v-317h-162v310z" />
    <glyph glyph-name="ygrave" unicode="&#x1ef3;" horiz-adv-x="621" 
d="M93 810h179l107 -187h-128zM238 57l-225 477h172l133 -305l119 305h161l-324 -797h-167z" />
    <glyph glyph-name="endash" unicode="&#x2013;" horiz-adv-x="618" 
d="M64 250v150h489v-150h-489z" />
    <glyph glyph-name="emdash" unicode="&#x2014;" horiz-adv-x="1001" 
d="M64 250v150h873v-150h-873z" />
    <glyph glyph-name="quoteleft" unicode="&#x2018;" horiz-adv-x="313" 
d="M45 551v5q0 66 38 128.5t103 105.5l59 -56q-72 -47 -106 -122q17 6 35 6q38 0 63.5 -26.5t25.5 -67.5q0 -43 -30.5 -73.5t-73.5 -30.5q-51 0 -82.5 36t-31.5 95z" />
    <glyph glyph-name="quoteright" unicode="&#x2019;" horiz-adv-x="314" 
d="M273 657v-5q0 -65 -38 -127t-103 -107l-59 56q75 52 106 123q-14 -7 -35 -7q-38 0 -63.5 26.5t-25.5 67.5q0 44 30.5 74.5t73.5 30.5q51 0 82.5 -36t31.5 -96z" />
    <glyph glyph-name="quotesinglbase" unicode="&#x201a;" horiz-adv-x="321" 
d="M269 72v-5q0 -66 -37.5 -128t-103.5 -107l-59 57q72 47 106 122q-18 -7 -35 -7q-39 0 -64 26.5t-25 68.5q0 43 30.5 73.5t73.5 30.5q51 0 82.5 -36t31.5 -95z" />
    <glyph glyph-name="quotedblleft" unicode="&#x201c;" horiz-adv-x="586" 
d="M45 551v5q0 66 38 128.5t103 105.5l59 -56q-72 -47 -106 -122q17 6 35 6q38 0 63.5 -26.5t25.5 -67.5q0 -43 -30.5 -73.5t-73.5 -30.5q-51 0 -82.5 36t-31.5 95zM320 551v5q0 66 38 128.5t102 105.5l60 -56q-75 -50 -107 -122q18 6 36 6q39 0 63.5 -26t24.5 -68
q0 -44 -30.5 -74t-73.5 -30q-49 0 -81 36t-32 95z" />
    <glyph glyph-name="quotedblright" unicode="&#x201d;" horiz-adv-x="588" 
d="M273 657v-5q0 -65 -38 -127t-103 -107l-59 56q75 52 106 123q-14 -7 -35 -7q-38 0 -63.5 26.5t-25.5 67.5q0 44 30.5 74.5t73.5 30.5q51 0 82.5 -36t31.5 -96zM547 657v-5q0 -65 -37.5 -127t-102.5 -107l-60 56q74 50 107 123q-14 -7 -35 -7q-38 0 -63.5 26.5t-25.5 67.5
q0 44 30 74.5t74 30.5q51 0 82 -36t31 -96z" />
    <glyph glyph-name="quotedblbase" unicode="&#x201e;" horiz-adv-x="595" 
d="M268 72v-5q0 -66 -37.5 -128t-103.5 -107l-59 57q72 47 106 122q-18 -7 -35 -7q-39 0 -64 26.5t-25 68.5q0 43 30.5 73.5t73.5 30.5q51 0 82.5 -36t31.5 -95zM542 72v-5q0 -66 -37.5 -128t-102.5 -107l-60 57q72 47 107 122q-18 -7 -35 -7q-39 0 -64 26.5t-25 68.5
q0 43 30.5 73.5t73.5 30.5q49 0 81 -36t32 -95z" />
    <glyph glyph-name="dagger" unicode="&#x2020;" horiz-adv-x="701" 
d="M83 409v142h188v190h158v-190h189v-142h-189v-409h-158v409h-188z" />
    <glyph glyph-name="daggerdbl" unicode="&#x2021;" horiz-adv-x="701" 
d="M59 0v143h212v249h-212v142h212v206h158v-206h213v-142h-213v-249h213v-143h-213v-207h-158v207h-212z" />
    <glyph glyph-name="bullet" unicode="&#x2022;" horiz-adv-x="482" 
d="M364 241q-51 -51 -123 -51t-123 51q-51 53 -51 124t51 124t123 53t123 -53t51 -124t-51 -124z" />
    <glyph glyph-name="ellipsis" unicode="&#x2026;" horiz-adv-x="1002" 
d="M158 -12q-43 0 -77 32q-32 32 -32 76q0 45 32 77t77 32t76.5 -32t31.5 -77q0 -44 -32 -76t-76 -32zM393 96q0 45 31.5 77t76.5 32t76.5 -32t31.5 -77t-31.5 -76.5t-76.5 -31.5t-77 32q-31 31 -31 76zM844 -12q-44 0 -76 32t-32 76q0 45 32 77t76 32q46 0 77.5 -32
t31.5 -77q0 -44 -32 -76t-77 -32z" />
    <glyph glyph-name="perthousand" unicode="&#x2030;" horiz-adv-x="1271" 
d="M35 614q0 74 52 126t125 52t125 -52t52 -126q0 -73 -52 -125t-125 -52t-125 52t-52 125zM766 783l-509 -783h-136l510 783h135zM150 614q0 -25 18.5 -43t43.5 -18t43.5 18t18.5 43q0 26 -18 44t-44 18t-44 -18t-18 -44zM500 172q0 74 52 126t125 52t125 -52t52 -126
q0 -73 -52 -125q-52 -51 -125 -51t-125 51q-52 52 -52 125zM1061 -4q-73 0 -126 51q-52 52 -52 125q0 74 52 126t126 52q73 0 124 -52q52 -52 52 -126q0 -73 -52 -125q-51 -51 -124 -51zM615 172q0 -25 18.5 -43t43.5 -18t43.5 18t18.5 43q0 26 -18 44t-44 18t-44 -18
t-18 -44zM1061 234q-26 0 -44 -18t-18 -44q0 -25 18 -43t44 -18q25 0 43 18t18 43q0 26 -18 44t-43 18z" />
    <glyph glyph-name="guilsinglleft" unicode="&#x2039;" horiz-adv-x="398" 
d="M197 302l150 -148l-86 -83l-233 230l234 231l84 -83z" />
    <glyph glyph-name="guilsinglright" unicode="&#x203a;" horiz-adv-x="398" 
d="M370 301l-233 -230l-85 83l149 147l-149 148l84 83z" />
    <glyph glyph-name="uni203D" unicode="&#x203d;" horiz-adv-x="563" 
d="M316 557l-2 -91h1q58 51 58 100q0 39 -30.5 65t-81.5 26q-74 0 -118 -65l-120 79q38 60 101 92t141 32q110 0 180 -58q71 -59 71 -154q0 -63 -28.5 -108.5t-93.5 -98.5q-39 -31 -56.5 -58t-17.5 -61v-12h-140l-11 312h147zM249 183q41 0 69.5 -28.5t28.5 -69.5
q0 -40 -28.5 -68t-69.5 -28q-39 0 -67.5 28t-28.5 68t28.5 69t67.5 29z" />
    <glyph glyph-name="uni2042" unicode="&#x2042;" horiz-adv-x="920" 
d="M386 414l-74 55l71 100l-117 38l29 88l117 -38v126h95v-126l118 38l29 -88l-117 -38l72 -100l-75 -55l-75 101zM151 -17l-74 55l72 99l-118 39l30 88l116 -38v126h96v-126l117 38l30 -88l-117 -39l72 -99l-75 -55l-75 100zM620 -17l-74 55l72 99l-118 39l29 88l116 -38
v126h97v-126l117 38l30 -88l-118 -39l72 -99l-74 -55l-75 100z" />
    <glyph glyph-name="fraction" unicode="&#x2044;" horiz-adv-x="649" 
d="M648 783l-509 -783h-137l511 783h135z" />
    <glyph glyph-name="uni2051" unicode="&#x2051;" horiz-adv-x="487" 
d="M169 414l-74 55l72 100l-118 38l29 88l117 -38v126h96v-126l117 38l30 -88l-118 -38l72 -100l-74 -55l-75 101zM169 -17l-74 55l72 99l-118 39l29 88l117 -38v126h96v-126l117 38l30 -88l-118 -39l72 -99l-74 -55l-75 100z" />
    <glyph glyph-name="lira" unicode="&#x20a4;" horiz-adv-x="678" 
d="M539 186l110 -76q-21 -59 -70.5 -90t-116.5 -31q-52 0 -112 25q-63 26 -96 26q-53 0 -130 -46l-76 135q117 70 143 130h-134v89h132l-10 22q-1 1 -13 30l-9 17h-100v89h59q-9 27 -9 54q0 96 76 165q76 70 187 70q98 0 163 -45.5t89 -125.5l-146 -68q-28 87 -104 87
q-43 0 -70.5 -23.5t-27.5 -62.5q0 -24 10 -51h222v-89h-179q18 -45 22 -69h157v-89h-162q-16 -49 -66 -81q14 3 25 3q39 0 84 -19t77 -19q50 0 75 43z" />
    <glyph glyph-name="uni20A6" unicode="&#x20a6;" horiz-adv-x="948" 
d="M817 248v-248h-166l-359 540v-540h-160v248h-73v103h73v59h-73v103h73v270h184l341 -511v511h160v-270h72v-103h-72v-59h72v-103h-72z" />
    <glyph glyph-name="uni20A9" unicode="&#x20a9;" horiz-adv-x="1258" 
d="M1097 416l-17 -60h121v-103h-152l-74 -253h-176l-170 568h-2l-171 -568h-174l-74 253h-150v103h119l-17 60h-102v103h72l-78 264h173l150 -556l168 556h173l169 -560l155 560h166l-78 -264h73v-103h-104z" />
    <glyph glyph-name="uni20AA" unicode="&#x20aa;" horiz-adv-x="1028" 
d="M707 210h-157v182q0 68 -29 97q-28 30 -118 30h-154v-519h-157v658h336q170 0 226 -69q53 -62 53 -190v-189zM321 0v448h157v-309h154q83 0 115 28t32 99v392h157v-399q0 -68 -12 -112t-41 -79q-56 -68 -226 -68h-336z" />
    <glyph glyph-name="dong" unicode="&#x20ab;" horiz-adv-x="721" 
d="M612 725h61v-106h-61v-619h-152v68h-2q-52 -78 -166 -78q-112 0 -183 83t-71 195q0 108 73 191q73 85 184 85q100 0 159 -71h2v146h-149v106h149v90h156v-90zM460 268q0 59 -38 97t-93 38t-95 -38q-38 -38 -38 -97t38 -99q38 -38 94 -38t94 38q38 40 38 99zM76 -204v135
h557v-135h-557z" />
    <glyph glyph-name="Euro" unicode="&#x20ac;" horiz-adv-x="919" 
d="M136 263h-96v100h78q-1 6 -1 28q0 25 1 32h-78v101h99q41 123 147 196q106 75 237 75q120 0 218 -62q99 -62 137 -169l-148 -68q-25 66 -80 103.5t-127 37.5q-63 0 -117 -30.5t-87 -82.5h273l-32 -101h-275q-3 -30 0 -60h258l-31 -100h-194q31 -54 85 -85t120 -31
q71 0 126.5 39t82.5 105l149 -69q-39 -108 -140 -171q-101 -62 -220 -62q-133 0 -240 74q-106 74 -145 200z" />
    <glyph glyph-name="uni20AE" unicode="&#x20ae;" horiz-adv-x="719" 
d="M634 441l-189 -63v-67l189 64v-106l-189 -63v-206h-160v152l-189 -64v106l189 63v67l-189 -63v106l189 63v196h-236v157h632v-157h-236v-142l189 63v-106z" />
    <glyph glyph-name="uni20B1" unicode="&#x20b1;" horiz-adv-x="811" 
d="M778 573v-90h-79q-15 -99 -90.5 -153t-191.5 -54h-123v-276h-162v483h-84v90h84v210h290q112 0 188 -55q76 -54 90 -155h78zM294 631v-60h238q-22 60 -117 60h-121zM294 485v-60h122q90 0 115 60h-237z" />
    <glyph glyph-name="uni20B4" unicode="&#x20b4;" horiz-adv-x="745" 
d="M648 533h43v-103h-640v103h431q6 13 6 32q0 37 -33 60q-31 24 -73 24q-95 0 -149 -73l-122 92q81 126 273 126q117 0 190 -69q75 -67 75 -164q0 -22 -1 -28zM51 264v103h640v-103h-430q-9 -18 -9 -42q0 -39 34.5 -63.5t87.5 -24.5q58 0 106.5 24.5t76.5 67.5l124 -89
q-49 -77 -123 -113t-190 -36q-134 0 -207 67q-74 68 -74 171q0 6 2 38h-38z" />
    <glyph glyph-name="uni20B8" unicode="&#x20b8;" horiz-adv-x="725" 
d="M47 783h631v-155h-631v155zM47 411v155h631v-155h-235v-411h-161v411h-235z" />
    <glyph glyph-name="uni20B9" unicode="&#x20b9;" horiz-adv-x="648" 
d="M607 783v-140h-142q26 -32 35 -66h107v-92h-106q-19 -124 -142 -174l161 -311h-178l-140 281h-146v149h179q77 0 99 55h-278v92h280q-24 54 -102 54h-178v152h551z" />
    <glyph glyph-name="uni20BA" unicode="&#x20ba;" horiz-adv-x="743" 
d="M554 352l154 -17q-4 -163 -107 -249t-300 -86h-132v265l-110 -50v110l110 50v69l-110 -50v110l110 50v229h162v-157l233 105v-110l-233 -105v-69l233 105v-110l-233 -105v-188q124 1 174 59q43 50 49 144z" />
    <glyph glyph-name="uni20BD" unicode="&#x20bd;" horiz-adv-x="748" 
d="M490 119h-177v-119h-161v119h-93v98h93v59h-93v146h93v361h281q123 0 201 -66q79 -64 79 -185q0 -125 -79 -191q-80 -65 -207 -65h-114v-59h177v-98zM313 630v-203h116q57 0 93.5 26t36.5 75q0 51 -36 76.5t-95 25.5h-115z" />
    <glyph glyph-name="uni2113" unicode="&#x2113;" horiz-adv-x="501" 
d="M295 328l-28 -26v-70q0 -55 32.5 -83t89.5 -28q25 0 48 6v-124q-36 -10 -67 -10q-101 0 -161 51t-71 140l-43 -39l-84 92l124 111v264q0 81 44 131q45 52 126 52q79 0 124 -48q43 -46 43 -120q0 -137 -177 -299zM275 653q-8 -16 -8 -35v-148q75 82 75 157q0 44 -36 44
q-20 0 -31 -18z" />
    <glyph glyph-name="uni2116" unicode="&#x2116;" horiz-adv-x="1339" 
d="M92 783h188l337 -530v530h160v-783h-184l-341 539v-539h-160v783zM1283 491q0 -80 -57 -137q-56 -56 -141 -56q-83 0 -141 56q-57 57 -57 137q0 81 57 136q58 56 141 56t140 -57q58 -55 58 -135zM1085 562q-28 0 -49 -20.5t-21 -50.5t20.5 -51t49.5 -21q30 0 50 21t20 51
q0 29 -21 50t-49 21zM1277 96h-383v121h383v-121z" />
    <glyph glyph-name="trademark" unicode="&#x2122;" horiz-adv-x="1064" 
d="M37 685v98h365v-98h-128v-353h-108v353h-129zM692 332l-110 298h-4v-298h-104v451h151l104 -284l99 284h157v-451h-106v302h-4l-109 -302h-74z" />
    <glyph glyph-name="estimated" unicode="&#x212e;" horiz-adv-x="862" 
d="M438 -12q-179 0 -284 116q-104 118 -104 294q0 168 108 282q109 115 280 115q170 0 278 -114q109 -112 109 -281v-9h-604v-254q39 -40 99 -64t118 -24q206 0 289 167l52 -29q-42 -92 -132 -145.5t-209 -53.5zM221 453h435v197q-38 39 -98 62t-121 23q-129 0 -216 -84
v-198z" />
    <glyph glyph-name="uni2153" unicode="&#x2153;" horiz-adv-x="1109" 
d="M210 433h182v-104h-351v98l175 142q31 25 42.5 40t11.5 32q0 20 -15 33t-40 13q-44 0 -62 -51l-106 44q15 53 60.5 83.5t112.5 30.5q87 0 135 -56q35 -41 35 -92q0 -46 -24 -77q-22 -29 -81 -76zM367 0h-137l511 783h135zM985 231q33 -12 51.5 -38.5t18.5 -61.5
q0 -63 -49.5 -103t-130.5 -40q-135 0 -173 105l97 47q22 -49 74 -49q28 0 45 12.5t17 32.5q0 45 -62 45h-50v91h46q59 0 59 44t-59 44q-47 0 -68 -49l-97 47q18 49 62.5 76.5t108.5 27.5q76 0 124 -37t48 -99q0 -29 -17 -55.5t-45 -39.5z" />
    <glyph glyph-name="uni2154" unicode="&#x2154;" horiz-adv-x="1032" 
d="M186 648l-104 -59l-52 95l172 99h116v-454h-132v319zM153 0l510 783h135l-508 -783h-137zM908 231q33 -12 51.5 -38.5t18.5 -61.5q0 -63 -49.5 -103t-130.5 -40q-136 0 -173 105l97 47q22 -49 74 -49q28 0 45 12.5t17 32.5q0 45 -62 45h-50v91h46q59 0 59 44t-59 44
q-47 0 -68 -49l-97 47q18 49 62.5 76.5t108.5 27.5q76 0 124 -37t48 -99q0 -29 -17 -55.5t-45 -39.5z" />
    <glyph glyph-name="oneeighth" unicode="&#x215b;" horiz-adv-x="1011" 
d="M187 648l-105 -59l-52 95l172 99h117v-453h-132v318zM157 0l510 783h135l-509 -783h-136zM594 131q0 69 74 101q-62 32 -62 92q0 67 56 102q57 36 123 36q65 0 121 -35t56 -102q0 -61 -62 -93q74 -29 74 -100q0 -49 -31 -83q-54 -61 -159 -61q-73 -3 -131 34.5t-59 108.5
zM741 350q-18 -13 -18 -32t18 -32t43 -13t43 13t18 32t-18 32t-43 13t-43 -13zM713 138q0 -21 21 -35.5t50 -14.5t50 14.5t21 35.5q0 20 -20.5 34t-49.5 14q-30 0 -51 -14t-21 -34z" />
    <glyph glyph-name="threeeighths" unicode="&#x215c;" horiz-adv-x="1048" 
d="M325 563q33 -12 51.5 -38.5t18.5 -61.5q0 -63 -49.5 -103t-130.5 -40q-135 0 -173 105l97 47q22 -49 74 -49q28 0 45 12.5t17 32.5q0 45 -62 45h-50v91h46q59 0 59 44t-59 44q-47 0 -68 -49l-97 47q18 49 62.5 76.5t108.5 27.5q76 0 124 -37t48 -99q0 -29 -17 -55.5
t-45 -39.5zM193 0l510 783h136l-510 -783h-136zM632 131q0 71 73 101q-62 32 -62 92q0 67 56 102q57 36 123 36q65 0 121 -35q57 -35 57 -102q0 -60 -63 -93q74 -29 74 -100q0 -49 -31 -83q-54 -61 -159 -61q-72 -3 -130 35t-59 108zM778 350q-18 -13 -18 -32t18 -32t43 -13
t43 13t18 32t-18 32t-43 13t-43 -13zM750 138q0 -21 21 -35.5t50 -14.5q30 0 50.5 14.5t20.5 35.5q0 20 -20.5 34t-49.5 14q-30 0 -51 -14t-21 -34z" />
    <glyph glyph-name="fiveeighths" unicode="&#x215d;" horiz-adv-x="1042" 
d="M371 680h-200l-10 -77q36 30 82 30q66 0 107 -39.5t41 -108.5q0 -75 -52 -120q-51 -45 -129 -45q-132 0 -171 98l95 53q23 -47 73 -47q30 0 47.5 16.5t17.5 43.5q0 25 -17 41t-47 16q-33 0 -62 -29l-95 38l33 233h287v-103zM187 0l511 783h135l-509 -783h-137zM625 131
q0 70 73 101q-62 32 -62 92q0 68 57 102q57 36 122 36t121 -35q57 -35 57 -102q0 -61 -62 -93q32 -13 52.5 -39t20.5 -61q0 -49 -31 -83q-54 -61 -159 -61q-72 -3 -130 35t-59 108zM771 350q-18 -13 -18 -32t18 -32t43 -13t43 13t18 32t-18 32t-43 13t-43 -13zM744 138
q0 -21 20.5 -35.5t49.5 -14.5q30 0 50.5 14.5t20.5 35.5q0 20 -20.5 34t-49.5 14t-50 -14t-21 -34z" />
    <glyph glyph-name="seveneighths" unicode="&#x215e;" horiz-adv-x="954" 
d="M260 678h-220v105h356v-105l-191 -348h-138zM100 0l509 783h136l-509 -783h-136zM538 131q0 71 73 101q-62 32 -62 92q0 67 56 102q57 36 123 36q65 0 121 -35q57 -35 57 -102q0 -60 -63 -93q74 -29 74 -100q0 -49 -31 -83q-54 -61 -159 -61q-72 -3 -130 35t-59 108z
M727 273q26 0 44 13t18 32t-18 32t-44 13q-25 0 -43 -13t-18 -32t18 -32t43 -13zM657 138q0 -21 20.5 -35.5t49.5 -14.5q30 0 50.5 14.5t20.5 35.5q0 20 -20.5 34t-49.5 14q-30 0 -50.5 -14t-20.5 -34z" />
    <glyph glyph-name="arrowleft" unicode="&#x2190;" horiz-adv-x="664" 
d="M19 375l293 318l94 -91l-153 -163h376v-150h-376l58 -60l55 -61q19 -21 41 -43l-95 -89l-293 317v22z" />
    <glyph glyph-name="arrowup" unicode="&#x2191;" horiz-adv-x="664" 
d="M343 669l317 -292l-91 -95q-113 105 -162 154v-376h-151v376q-25 -27 -163 -155l-90 96l317 292h23z" />
    <glyph glyph-name="arrowright" unicode="&#x2192;" horiz-adv-x="664" 
d="M645 353l-293 -317l-96 89l40 43l115 121h-376v150h376q-28 28 -154 163l95 91l293 -318v-22z" />
    <glyph glyph-name="arrowdown" unicode="&#x2193;" horiz-adv-x="664" 
d="M321 60l-318 293l91 94q100 -91 162 -153v375h151v-375l99 95l64 59l90 -95l-317 -293h-22z" />
    <glyph glyph-name="uni2196" unicode="&#x2196;" horiz-adv-x="664" 
d="M129 582l432 17l2 -131q-133 -7 -223 -7l266 -265l-106 -107l-266 266q0 -25 -7 -225l-131 5l17 430z" />
    <glyph glyph-name="uni2197" unicode="&#x2197;" horiz-adv-x="664" 
d="M550 565l17 -430l-131 -5q-6 194 -6 225l-266 -266l-106 107l265 265q-90 0 -223 7l3 131l431 -17z" />
    <glyph glyph-name="uni2198" unicode="&#x2198;" horiz-adv-x="664" 
d="M534 107l-432 -18l-2 131q133 7 223 7l-266 266l106 106l266 -266q0 25 7 225l131 -4l-17 -431z" />
    <glyph glyph-name="uni2199" unicode="&#x2199;" horiz-adv-x="664" 
d="M114 123l-17 431l131 4q0 -14 3 -90q5 -76 3 -135l266 266l106 -106l-266 -266q91 0 224 -7l-3 -131l-432 18z" />
    <glyph glyph-name="uni21A9" unicode="&#x21a9;" horiz-adv-x="1128" 
d="M263 286h467q85 0 138 49q55 49 55 125q0 79 -53 127t-142 48h-196v148h205q153 0 250 -92q97 -91 97 -231t-97 -233q-97 -92 -250 -92h-474q34 -32 96 -100l58 -63l-96 -90l-292 317v22l292 318l95 -91z" />
    <glyph glyph-name="uni21B0" unicode="&#x21b0;" horiz-adv-x="860" 
d="M804 0h-161v296q0 74 -47.5 114t-133.5 40h-199l154 -163l-95 -90l-293 317v23l293 317l95 -90l-40 -44q-66 -73 -113 -119h205q157 0 246 -78q89 -77 89 -214v-309z" />
    <glyph glyph-name="uni21B1" unicode="&#x21b1;" horiz-adv-x="860" 
d="M217 0h-161v309q0 137 89 214q89 78 246 78h205l-58 58l-56 61l-40 44l96 90l293 -317v-23l-293 -317l-95 90l154 163h-200q-85 0 -132.5 -40t-47.5 -114v-296z" />
    <glyph glyph-name="uni21B2" unicode="&#x21b2;" horiz-adv-x="859" 
d="M643 783h161v-308q0 -138 -89 -215t-246 -77h-205q35 -35 93 -98q49 -52 60 -65l-95 -90l-293 317v22l293 317l95 -90l-154 -163h199q86 0 133.5 40t47.5 114v296z" />
    <glyph glyph-name="uni21B3" unicode="&#x21b3;" horiz-adv-x="859" 
d="M55 783h161v-296q0 -74 47.5 -114t133.5 -40h199q-56 56 -153 163l95 90l292 -317v-22l-292 -317l-96 90l58 63q62 68 96 100h-205q-158 0 -247 77t-89 215v308z" />
    <glyph glyph-name="uni21B4" unicode="&#x21b4;" horiz-adv-x="924" 
d="M41 623v161h309q137 0 214 -89q78 -89 78 -247v-205q21 22 59 58l60 55l44 40l90 -95l-317 -292h-22l-318 292l91 95l162 -153v198q0 87 -39.5 134.5t-113.5 47.5h-297z" />
    <glyph glyph-name="partialdiff" unicode="&#x2202;" 
d="M317 -10q-119 0 -198 70q-78 70 -78 190q0 109 78 178q79 69 190 69q84 0 152 -41q-12 87 -60 140t-125 53q-33 0 -74.5 -12t-71.5 -32l-60 131q44 28 105 43q60 15 110 15q88 0 157 -35.5t109 -98.5q81 -119 81 -297q0 -77 -18 -142.5t-55 -118t-99 -82.5t-143 -30z
M342 360q-61 0 -99 -29.5t-38 -82.5q0 -47 35 -79t84 -32q68 0 105.5 47.5t38.5 124.5q-23 22 -59 36.5t-67 14.5z" />
    <glyph glyph-name="uni2206" unicode="&#x2206;" horiz-adv-x="856" 
d="M31 0l300 783h194l300 -783h-794zM252 150h350l-175 471z" />
    <glyph glyph-name="product" unicode="&#x220f;" horiz-adv-x="800" 
d="M322 635v-635h-160v635h-124v148h725v-148h-125v-635h-160v635h-156z" />
    <glyph glyph-name="summation" unicode="&#x2211;" horiz-adv-x="673" 
d="M63 637v146h555v-148h-342l250 -235l-258 -252h350v-148h-567v146l259 255z" />
    <glyph glyph-name="minus" unicode="&#x2212;" horiz-adv-x="632" 
d="M565 293h-498v145h498v-145z" />
    <glyph glyph-name="radical" unicode="&#x221a;" horiz-adv-x="788" 
d="M415 184l239 774h128l-296 -958h-146l-185 497h-138v125h248z" />
    <glyph glyph-name="infinity" unicode="&#x221e;" horiz-adv-x="1012" 
d="M738 104q-45 0 -90 22q-42 21 -73 46q-12 10 -70 64q-77 -70 -111 -93q-62 -39 -132 -39q-94 0 -153 63q-59 65 -59 157q0 95 63 158q64 64 160 64q43 0 91 -23t75 -46q24 -19 68 -63q77 70 111 93q62 39 132 39q95 0 153 -64q59 -64 59 -158t-65 -157t-159 -63zM377 279
l44 44l-26 27q-71 69 -117 69q-39 0 -66.5 -27.5t-27.5 -65.5q0 -39 27 -67t65 -28q26 0 57 18q29 16 44 30zM738 419q-26 0 -56 -18q-31 -17 -47 -33q-11 -10 -44 -43l23 -23l29 -27l26 -21q32 -23 66 -23q38 0 65.5 28t27.5 66t-26.5 66t-63.5 28z" />
    <glyph glyph-name="integral" unicode="&#x222b;" horiz-adv-x="452" 
d="M389 795h46v-145q-66 -1 -95 -19q-35 -21 -35 -93v-559q0 -131 -58.5 -187.5t-183.5 -56.5h-46v144q70 1 99 23q30 21 30 90v558q0 132 59 188q60 56 184 57z" />
    <glyph glyph-name="uni2236" unicode="&#x2236;" horiz-adv-x="352" 
d="M176 417q-43 0 -77 32q-32 32 -32 76q0 45 32 77t77 32t76.5 -32t31.5 -77q0 -44 -32 -76t-76 -32zM176 76q-43 0 -77 32q-32 32 -32 75q0 45 32 77t77 32t76.5 -32t31.5 -77q0 -44 -32 -76q-31 -31 -76 -31z" />
    <glyph glyph-name="approxequal" unicode="&#x2248;" horiz-adv-x="656" 
d="M509 574l84 -78q-62 -107 -160 -107q-31 -1 -73.5 20t-80 42t-56.5 20q-38 0 -77 -51l-83 78q62 107 160 107q34 1 78.5 -20t80.5 -42t51 -20q39 0 76 51zM433 126q-31 -1 -73.5 20t-80 42t-56.5 20q-38 0 -77 -51l-83 78q62 107 160 107q34 2 78.5 -19t80.5 -42t51 -20
q39 0 76 51l84 -79q-62 -107 -160 -107z" />
    <glyph glyph-name="notequal" unicode="&#x2260;" horiz-adv-x="633" 
d="M570 156h-300l-85 -164l-99 53l59 111h-82v145h158l69 129h-227v144h301l82 154l99 -50l-55 -104h80v-144h-155l-68 -129h223v-145z" />
    <glyph glyph-name="lessequal" unicode="&#x2264;" horiz-adv-x="659" 
d="M244 450v-3l339 -109v-148l-521 190v135l521 188v-146zM585 139v-139h-523v139h523z" />
    <glyph glyph-name="greaterequal" unicode="&#x2265;" horiz-adv-x="660" 
d="M76 556v147l522 -188v-135l-522 -190v147l339 109v2zM598 139v-139h-524v139h524z" />
    <glyph glyph-name="uni2318" unicode="&#x2318;" horiz-adv-x="698" 
d="M546 69q-50 0 -87 37q-36 36 -36 86v63h-148v-63q0 -50 -36 -86q-34 -37 -87 -37q-52 0 -86 37q-36 36 -36 86t36 86t86 36h62v148h-61q-52 0 -86 37q-37 34 -37 86t37 86q36 36 86 36t86 -36t36 -86v-63h148v63q0 50 36 86q37 36 87 36t86 -36t36 -86t-36 -86
q-34 -37 -86 -37h-62v-148h62q50 0 86 -36t36 -86t-36 -86q-34 -37 -86 -37zM153 522h61v63q0 26 -18 44q-17 18 -43 18q-29 0 -45 -18q-18 -17 -18 -44q0 -26 18 -44q20 -19 45 -19zM546 647q-28 0 -44 -18q-18 -17 -18 -44v-63h62q25 0 44 19q30 26 13 67.5t-57 38.5z
M423 462h-148v-148h148v148zM214 192v63h-62q-28 0 -44 -19q-18 -16 -18 -44q0 -26 18 -45q20 -18 44 -18t44 18q18 19 18 45zM546 255h-62v-63q0 -26 18 -45q18 -18 44 -18q25 0 44 18q18 19 18 45q0 28 -18 44q-16 19 -44 19z" />
    <glyph glyph-name="filledbox" unicode="&#x25a0;" horiz-adv-x="908" 
d="M101 711h709v-711h-709v711z" />
    <glyph glyph-name="uni25A1" unicode="&#x25a1;" horiz-adv-x="908" 
d="M101 0v711h709v-711h-709zM699 605h-490v-500h490v500z" />
    <glyph glyph-name="triagup" unicode="&#x25b2;" horiz-adv-x="838" 
d="M0 0l421 730l417 -730h-838z" />
    <glyph glyph-name="uni25B3" unicode="&#x25b3;" horiz-adv-x="838" 
d="M419 726l416 -726h-832zM189 106h458l-228 402z" />
    <glyph glyph-name="lozenge" unicode="&#x25ca;" horiz-adv-x="737" 
d="M449 783l280 -390l-280 -393h-166l-281 393l281 390h166zM366 624l-166 -231l166 -232l166 232z" />
    <glyph glyph-name="circle" unicode="&#x25cb;" horiz-adv-x="813" 
d="M777 356q0 -154 -108 -262t-262 -108q-153 0 -263 108q-108 108 -108 262t108 263q109 109 263 109t262 -109q108 -108 108 -263zM407 621q-109 0 -186 -78q-76 -76 -76 -187q0 -110 76 -187q77 -77 186 -77q106 0 183 77q76 77 76 187q0 111 -76 187q-76 78 -183 78z
" />
    <glyph glyph-name="uni25CF" unicode="&#x25cf;" horiz-adv-x="813" 
d="M36 356q0 155 108 263q108 109 262 109t262 -109q109 -109 109 -263t-109 -262q-108 -108 -262 -108t-262 108t-108 262z" />
    <glyph glyph-name="uni2605" unicode="&#x2605;" horiz-adv-x="838" 
d="M663 -21l-244 177l-245 -175l94 285l-244 177h302l93 287l93 -287h302l-244 -177z" />
    <glyph glyph-name="uni2611" unicode="&#x2611;" horiz-adv-x="956" 
d="M101 711h613l130 226l99 -59l-133 -232v-646h-709v711zM301 506l174 -213l180 314h-448v-504h275l-270 326zM700 457l-204 -354h204v354z" />
    <glyph glyph-name="uni2612" unicode="&#x2612;" horiz-adv-x="908" 
d="M810 0h-709v711h709v-711zM700 103v504h-493v-504h493zM378 355l-154 154l77 77l154 -153l152 153l77 -77l-153 -154l153 -152l-77 -78l-152 152l-155 -155l-76 77z" />
    <glyph glyph-name="uni2639" unicode="&#x2639;" horiz-adv-x="813" 
d="M777 356q0 -154 -108 -262t-262 -108q-153 0 -263 108q-108 108 -108 262t108 263q109 109 263 109t262 -109q108 -108 108 -263zM407 638q-115 0 -198 -83q-82 -82 -82 -199t82 -199t198 -82q114 0 195 82t81 199t-81 199q-80 83 -195 83zM363 501q19 -19 19 -47
t-19 -47t-47 -19t-47 19t-19 47t19 47q19 20 47 20t47 -20zM544 501q19 -19 19 -47t-19 -47t-47 -19t-47 19t-19 47t19 47q19 20 47 20t47 -20zM603 180h-78q-6 45 -42 74q-35 29 -76 29q-44 0 -79 -28.5t-41 -74.5h-78q10 77 66 127q56 49 132 49q74 0 130 -50
q55 -50 66 -126z" />
    <glyph glyph-name="smileface" unicode="&#x263a;" horiz-adv-x="813" 
d="M777 356q0 -154 -108 -262t-262 -108q-153 0 -263 108q-108 108 -108 262t108 263q109 109 263 109t262 -109q108 -108 108 -263zM407 638q-115 0 -198 -83q-82 -82 -82 -199t82 -199t198 -82q114 0 195 82t81 199t-81 199q-80 83 -195 83zM363 501q19 -19 19 -47
t-19 -47t-47 -19t-47 19t-19 47t19 47q19 20 47 20t47 -20zM544 501q19 -19 19 -47t-19 -47t-47 -19t-47 19t-19 47t19 47q19 20 47 20t47 -20zM525 332h78q-11 -78 -67 -127q-56 -50 -129 -50q-76 0 -132 49q-55 49 -66 128h78q6 -46 41 -74.5t79 -28.5q42 0 76 28
q36 29 42 75z" />
    <glyph glyph-name="invsmileface" unicode="&#x263b;" horiz-adv-x="813" 
d="M777 356q0 -154 -108 -262t-262 -108q-153 0 -263 108q-108 108 -108 262t108 263q109 109 263 109t262 -109q108 -108 108 -263zM363 407q19 19 19 47t-19 47q-19 20 -47 20t-47 -20q-19 -19 -19 -47t19 -47t47 -19t47 19zM544 407q19 19 19 47t-19 47q-19 20 -47 20
t-47 -20q-19 -19 -19 -47t19 -47t47 -19t47 19zM603 332h-78q-6 -46 -42 -75q-34 -28 -76 -28q-44 0 -79 28.5t-41 74.5h-78q11 -79 66 -128q56 -49 132 -49q73 0 129 50q56 49 67 127z" />
    <glyph glyph-name="heart" unicode="&#x2665;" horiz-adv-x="872" 
d="M3 480q0 96 65 163q66 66 163 66q58 0 106 -28t72 -78q24 51 72 78.5t109 27.5q96 0 160 -67q65 -68 65 -162q0 -120 -95 -237q-39 -49 -98 -102q-98 -88 -213 -155q-114 67 -214 155q-59 54 -97 102q-95 117 -95 237z" />
    <glyph glyph-name="uni2713" unicode="&#x2713;" horiz-adv-x="942" 
d="M830 715l81 -79l-602 -652l-294 323l81 76l216 -233z" />
    <glyph glyph-name="uni2715" unicode="&#x2715;" horiz-adv-x="755" 
d="M297 355l-277 278l79 78l277 -276l275 276l78 -78l-274 -278l280 -280l-78 -79l-281 279l-278 -279l-78 79z" />
    <glyph glyph-name="uni2E18" unicode="&#x2e18;" horiz-adv-x="553" 
d="M308 351q-41 0 -69.5 28.5t-28.5 69.5q0 40 28.5 68t69.5 28q39 0 67.5 -28t28.5 -68t-28.5 -69t-67.5 -29zM241 -23l2 91h-1q-58 -52 -58 -100q0 -39 30.5 -65t81.5 -26q74 0 118 65l120 -79q-38 -60 -101 -92t-141 -32q-111 0 -181 58t-70 154q0 63 28.5 108.5
t93.5 98.5q39 31 56.5 58t17.5 61v12h140l11 -312h-147z" />
    <glyph glyph-name="zero.slash" unicode="&#xe008;" horiz-adv-x="769" 
d="M388 795q108 0 184 -58q148 -109 148 -341q0 -163 -85 -282q-42 -58 -108 -92t-145 -34q-108 0 -187 59q-146 112 -146 345q0 79 22 150.5t63 128.5t107 90.5t147 33.5zM384 640q-59 0 -100 -41t-57 -94.5t-16 -110.5q0 -64 18 -116l233 341q-36 21 -78 21zM384 144
q60 0 100 42q74 74 74 208q0 64 -18 116l-236 -343q35 -23 80 -23z" />
    <glyph glyph-name="uniE09D" unicode="&#xe09d;" horiz-adv-x="837" 
d="M792 401h-132v-188q0 -45 23 -65t70 -20q21 0 36 4v-129q-33 -10 -73 -10q-103 0 -157.5 53t-54.5 148v207h-226v-401h-156v401h-96v133h96v53q0 107 57 168.5t168 61.5q37 0 73 -11v-128q-20 6 -48 6q-45 0 -70 -24.5t-25 -69.5v-56h229v167h154v-167h132v-133z" />
    <glyph glyph-name="at.case" unicode="&#xf633;" horiz-adv-x="866" 
d="M621 191q-36 0 -67.5 16.5t-44.5 42.5q-20 -26 -53.5 -43t-64.5 -17q-69 0 -116 53q-46 52 -46 118q0 94 58 161q59 68 146 68q28 0 54.5 -15.5t37.5 -39.5l10 51l115 -1l-42 -249q-9 -54 31 -54q41 0 78 49t37 121q0 116 -82 192q-82 78 -213 78q-137 0 -236 -99
t-99 -236q0 -136 88 -230q88 -93 240 -93q52 0 108.5 18.5t100.5 51.5l39 -60q-41 -36 -112 -60q-74 -23 -136 -23q-176 0 -291 113q-113 115 -113 282q0 170 121 288q122 119 289 119q159 0 265 -97q107 -96 107 -244q0 -114 -62 -188q-61 -73 -147 -73zM443 480
q-39 0 -68 -33q-27 -32 -26 -74q1 -30 19.5 -51.5t47.5 -21.5q38 0 65 34q28 34 28 77q0 31 -18 50t-48 19z" />
    <glyph glyph-name="dollar.lowercase" unicode="&#xf653;" horiz-adv-x="525" 
d="M474 161q0 -61 -36 -104.5t-101 -59.5v-99h-128v93q-127 16 -181 120l115 68q33 -65 120 -65q29 0 47 11.5t18 27.5q0 17 -18.5 29t-66.5 23q-190 42 -190 173q0 61 43.5 106t112.5 58v95h128v-100q89 -26 127 -98l-113 -67q-30 51 -97 51q-24 0 -40 -11.5t-16 -27.5
q0 -34 70 -49q103 -21 154.5 -63.5t51.5 -110.5z" />
    <glyph glyph-name="commaaccent" unicode="&#xf6c3;" horiz-adv-x="0" 
d="M197 -164v-5q0 -52 -31 -102.5t-84 -86.5l-48 46q58 39 87 99q-14 -6 -29 -6q-31 0 -51.5 21.5t-20.5 54.5q0 36 24.5 60.5t59.5 24.5q40 0 66.5 -29.5t26.5 -76.5z" />
    <glyph glyph-name="uniF730" unicode="&#xf730;" horiz-adv-x="660" 
d="M43 266q0 119 83 199q84 81 205 81t203 -79q83 -80 83 -198q0 -120 -84 -201q-83 -80 -204 -80q-122 0 -204 79t-82 199zM330 129q56 0 92 39t36 100q0 60 -36.5 99t-91.5 39q-56 0 -92 -38.5t-36 -99.5q0 -60 36.5 -99.5t91.5 -39.5z" />
    <glyph glyph-name="uniF731" unicode="&#xf731;" horiz-adv-x="434" 
d="M12 417l202 117h138v-534h-156v375l-123 -69z" />
    <glyph glyph-name="uniF732" unicode="&#xf732;" horiz-adv-x="518" 
d="M45 0v112l192 150q50 40 67 61t17 45q0 22 -18.5 38t-45.5 16q-57 0 -86 -68l-125 50q22 70 79 106.5t133 36.5q93 0 148 -52q56 -51 56 -127q0 -60 -33 -100q-31 -39 -111 -100l-61 -46h208v-122h-420z" />
    <glyph glyph-name="uniF733" unicode="&#xf733;" horiz-adv-x="513" 
d="M254 -8q-162 0 -218 128l117 60q32 -65 104 -65q30 0 48 13t18 34q0 48 -66 48h-51v124h44q30 0 46.5 12.5t16.5 32.5q0 19 -17 31.5t-48 12.5q-56 0 -84 -63l-120 57q54 130 208 130q87 0 143 -44t56 -116q0 -71 -71 -109v-1q81 -35 81 -118q0 -73 -60 -120
q-59 -47 -147 -47z" />
    <glyph glyph-name="uniF734" unicode="&#xf734;" horiz-adv-x="571" 
d="M36 96v153l236 285h171v-315h88v-123h-88v-96h-137v96h-270zM162 219h144v174z" />
    <glyph glyph-name="uniF735" unicode="&#xf735;" horiz-adv-x="511" 
d="M439 413h-230l-14 -85q41 33 98 33q67 0 119 -47q51 -47 51 -130q0 -87 -61 -139q-62 -51 -152 -51q-151 0 -211 118l113 67q33 -61 100 -61q33 0 53 17t20 47q0 28 -20 45.5t-56 17.5q-34 0 -71 -32l-121 47l41 274h341v-121z" />
    <glyph glyph-name="uniF736" unicode="&#xf736;" horiz-adv-x="531" 
d="M301 360q77 0 129 -52t52 -124q0 -86 -65 -139q-64 -52 -148 -52q-114 0 -176 77q-48 62 -48 183q0 130 66 211q66 82 190 82q91 0 170 -61l-70 -102q-53 41 -102 41q-47 0 -75.5 -30t-34.5 -86q43 52 112 52zM267 246q-34 0 -56.5 -18.5t-22.5 -47.5q0 -28 23.5 -48
t55.5 -20q33 0 55 20t22 48q0 29 -21 47.5t-56 18.5z" />
    <glyph glyph-name="uniF737" unicode="&#xf737;" horiz-adv-x="487" 
d="M36 534h419v-123l-225 -411h-162l227 411h-259v123z" />
    <glyph glyph-name="uniF738" unicode="&#xf738;" horiz-adv-x="537" 
d="M46 157q0 83 86 117q-72 38 -72 108q0 53 35 93q66 72 174 72q48 0 92 -16q47 -17 81 -55q36 -39 36 -93q0 -70 -74 -108q35 -13 62 -44q25 -28 25 -73q0 -44 -21 -78q-27 -46 -83 -68.5t-119 -22.5q-54 0 -103 15q-51 17 -85 58t-34 95zM268 323q30 0 51 15.5t21 37.5
t-21 37.5t-50 15.5q-30 0 -51 -15.5t-21 -37.5t21 -37.5t50 -15.5zM269 107q34 0 58.5 16.5t24.5 40.5t-24.5 41t-58.5 17t-58.5 -17t-24.5 -41t24 -40.5t59 -16.5z" />
    <glyph glyph-name="uniF739" unicode="&#xf739;" horiz-adv-x="528" 
d="M226 180q-78 0 -130 51q-51 53 -51 125q0 87 64 138q64 52 149 52q111 0 176 -77q48 -58 48 -182q0 -129 -65 -212q-64 -82 -187 -82q-98 0 -178 62l69 103q55 -43 111 -43q45 0 72.5 30t33.5 86q-44 -51 -112 -51zM260 293q34 0 56 18t22 48q0 28 -23.5 48t-55.5 20
q-33 0 -55 -20t-22 -47q0 -30 21.5 -48.5t56.5 -18.5z" />
    <glyph glyph-name="NULL" horiz-adv-x="0" 
 />
    <glyph glyph-name="CR" horiz-adv-x="333" 
 />
    <glyph glyph-name="Aring.alt" horiz-adv-x="792" 
d="M549 979q0 -62 -46 -105q-44 -43 -109 -43q-63 0 -109 43q-45 44 -45 105t45 104q46 43 109 43q65 0 109 -43q46 -43 46 -104zM459 979q0 24 -19.5 42.5t-45.5 18.5q-28 0 -46 -17.5t-18 -43.5q0 -25 18.5 -43t45.5 -18t46 18t19 43zM162 0h-163l299 783h195l300 -783
h-167l-59 158h-347zM394 626l-118 -318h236z" />
    <glyph glyph-name="OE.alt" horiz-adv-x="1122" 
d="M1025 320h-305v-169h345v-151h-575q-205 0 -326 107q-119 108 -119 286q0 182 118 285q119 105 324 105h575v-152h-342v-159h305v-152zM560 153v477h-79q-119 0 -195 -63q-76 -61 -76 -171q0 -114 75 -178q76 -65 198 -65h77z" />
    <glyph glyph-name="Q.alt" horiz-adv-x="900" 
d="M896 141v-141h-443q-175 0 -293 115q-117 115 -117 283q0 167 118 282t285 115q168 0 283 -114q116 -113 116 -279q0 -174 -145 -259l1 -2h195zM444 639q-98 0 -168 -70q-69 -71 -69 -170q0 -100 69 -172t167 -72q97 0 168 72q70 73 70 173t-69 169q-69 70 -168 70z" />
    <glyph glyph-name="O.slash" horiz-adv-x="899" 
d="M452 795q166 0 285 -116t119 -284q0 -169 -120 -288q-118 -118 -288 -118q-168 0 -287 116q-118 117 -118 286q0 167 120 286q119 118 289 118zM450 638q-101 0 -171 -73q-71 -73 -71 -173q0 -73 38 -134l308 357q-49 23 -104 23zM450 145q100 0 171 72q71 74 71 175
q0 73 -38 134l-309 -357q51 -24 105 -24z" />
    <glyph glyph-name="a.alt" horiz-adv-x="686" 
d="M458 0v62h-1q-53 -72 -163 -72q-113 0 -183 82q-71 83 -71 196q0 107 72 191q73 85 184 85q101 0 161 -72h1v62h155v-534h-155zM462 268q0 59 -37.5 97t-94.5 38t-94.5 -38t-37.5 -97t38 -99q38 -38 94 -38t94 38q38 40 38 99z" />
    <glyph glyph-name="aacute.alt" horiz-adv-x="686" 
d="M370 623h-128l107 187h179zM613 0h-155v62h-1q-53 -72 -163 -72q-113 0 -183 82q-71 83 -71 196q0 107 72 191q73 85 184 85q101 0 161 -72h1v62h155v-534zM462 268q0 59 -37.5 97t-94.5 38t-94.5 -38t-37.5 -97t38 -99q38 -38 94 -38t94 38q38 40 38 99z" />
    <glyph glyph-name="abreve.alt" horiz-adv-x="686" 
d="M137 798h116q12 -72 74 -72q29 0 49 19.5t25 52.5h117q-9 -80 -61.5 -129t-129.5 -49q-78 0 -130 49q-53 49 -60 129zM458 472v62h155v-534h-155v62h-1q-53 -72 -163 -72q-113 0 -183 82q-71 83 -71 196q0 107 72 191q73 85 184 85q101 0 161 -72h1zM462 268
q0 59 -37.5 97t-94.5 38t-94.5 -38t-37.5 -97t38 -99q38 -38 94 -38t94 38q38 40 38 99z" />
    <glyph glyph-name="acaron.alt" horiz-adv-x="686" 
d="M334 707l62 91h132l-121 -174h-146l-121 174h133zM458 0v62h-1q-53 -72 -163 -72q-113 0 -183 82q-71 83 -71 196q0 107 72 191q73 85 184 85q101 0 161 -72h1v62h155v-534h-155zM462 268q0 59 -37.5 97t-94.5 38t-94.5 -38t-37.5 -97t38 -99q38 -38 94 -38t94 38
q38 40 38 99z" />
    <glyph glyph-name="acircumflex.alt" horiz-adv-x="686" 
d="M150 624l121 174h146l121 -174h-133l-61 91l-61 -91h-133zM458 0v62h-1q-53 -72 -163 -72q-113 0 -183 82q-71 83 -71 196q0 107 72 191q73 85 184 85q101 0 161 -72h1v62h155v-534h-155zM462 268q0 59 -37.5 97t-94.5 38t-94.5 -38t-37.5 -97t38 -99q38 -38 94 -38
t94 38q38 40 38 99z" />
    <glyph glyph-name="adieresis.alt" horiz-adv-x="686" 
d="M127 704q0 36 25 61.5t61 25.5t61.5 -25.5t25.5 -61.5q0 -37 -25.5 -62t-61.5 -25t-61 25t-25 62zM365 704q0 36 25 61.5t61 25.5t61.5 -25.5t25.5 -61.5q0 -37 -25.5 -62t-61.5 -25t-61 25t-25 62zM458 472v62h155v-534h-155v62h-1q-53 -72 -163 -72q-113 0 -183 82
q-71 83 -71 196q0 107 72 191q73 85 184 85q101 0 161 -72h1zM462 268q0 59 -37.5 97t-94.5 38t-94.5 -38t-37.5 -97t38 -99q38 -38 94 -38t94 38q38 40 38 99z" />
    <glyph glyph-name="agrave.alt" horiz-adv-x="686" 
d="M119 810h179l107 -187h-128zM458 0v62h-1q-53 -72 -163 -72q-113 0 -183 82q-71 83 -71 196q0 107 72 191q73 85 184 85q101 0 161 -72h1v62h155v-534h-155zM462 268q0 59 -37.5 97t-94.5 38t-94.5 -38t-37.5 -97t38 -99q38 -38 94 -38t94 38q38 40 38 99z" />
    <glyph glyph-name="amacron.alt" horiz-adv-x="686" 
d="M152 628v117h364v-117h-364zM458 472v62h155v-534h-155v62h-1q-53 -72 -163 -72q-113 0 -183 82q-71 83 -71 196q0 107 72 191q73 85 184 85q101 0 161 -72h1zM462 268q0 59 -37.5 97t-94.5 38t-94.5 -38t-37.5 -97t38 -99q38 -38 94 -38t94 38q38 40 38 99z" />
    <glyph glyph-name="aogonek.alt" horiz-adv-x="686" 
d="M458 534h155v-534q-97 -61 -97 -112q0 -26 22 -40.5t51 -14.5q14 0 21 1v-90q-29 -10 -76 -10q-64 0 -110 30q-46 28 -46 84q0 74 111 152h-31v62h-1q-53 -72 -163 -72q-113 0 -183 82q-71 83 -71 196q0 107 72 191q73 85 184 85q101 0 161 -72h1v62zM462 268
q0 59 -37.5 97t-94.5 38t-94.5 -38t-37.5 -97t38 -99q38 -38 94 -38t94 38q38 40 38 99z" />
    <glyph glyph-name="aring.alt" horiz-adv-x="686" 
d="M488 750q0 -62 -46 -105q-44 -43 -109 -43q-63 0 -109 43t-46 105q0 61 46 104t109 43q65 0 109 -43q46 -43 46 -104zM397 750q0 24 -19 42.5t-45 18.5q-28 0 -46.5 -17.5t-18.5 -43.5q0 -25 19 -43t46 -18t45.5 18t18.5 43zM458 472v62h155v-534h-155v62h-1
q-53 -72 -163 -72q-113 0 -183 82q-71 83 -71 196q0 107 72 191q73 85 184 85q101 0 161 -72h1zM462 268q0 59 -37.5 97t-94.5 38t-94.5 -38t-37.5 -97t38 -99q38 -38 94 -38t94 38q38 40 38 99z" />
    <glyph glyph-name="atilde.alt" horiz-adv-x="686" 
d="M265 789q32 0 61.5 -15.5t50 -30.5t29.5 -15q34 0 34 58h97q4 -76 -30.5 -119.5t-100.5 -43.5q-30 0 -60 15.5t-51 30.5t-30 15q-33 0 -34 -58h-96q-5 76 29.5 119.5t100.5 43.5zM458 472v62h155v-534h-155v62h-1q-53 -72 -163 -72q-113 0 -183 82q-71 83 -71 196
q0 107 72 191q73 85 184 85q101 0 161 -72h1zM462 268q0 59 -37.5 97t-94.5 38t-94.5 -38t-37.5 -97t38 -99q38 -38 94 -38t94 38q38 40 38 99z" />
    <glyph glyph-name="l.alt" horiz-adv-x="354" 
d="M68 815h156v-607q0 -80 84 -80q19 0 36 4v-129q-33 -10 -63 -10q-105 0 -159 53.5t-54 152.5v616z" />
    <glyph glyph-name="lslash.alt" horiz-adv-x="448" 
d="M135 815h156v-343l117 62v-147l-117 -61v-118q0 -80 84 -80q19 0 36 4v-129q-33 -10 -63 -10q-106 0 -159.5 53.5t-53.5 152.5v46l-102 -53v149l102 51v423z" />
    <glyph glyph-name="y.alt" horiz-adv-x="621" 
d="M445 534h163l-243 -607q-38 -95 -96.5 -143t-154.5 -48q-41 0 -74 11v128q25 -5 52 -5q91 0 129 98l12 32l-219 534h166l134 -360z" />
    <glyph glyph-name="aring.alt2" horiz-adv-x="597" 
d="M454 750q0 -62 -46 -105q-44 -43 -110 -43q-63 0 -109 43q-45 43 -45 105q0 60 45 104q46 43 109 43q66 0 110 -43q46 -43 46 -104zM363 750q0 24 -19 42.5t-46 18.5q-28 0 -46 -17.5t-18 -43.5q0 -25 18.5 -43t45.5 -18t46 18t19 43zM222 -10q-76 0 -128 43t-52 116v2
q0 94 79 132q68 32 159 32h53q42 0 42 39q0 29 -22.5 47.5t-63.5 18.5q-79 0 -119 -72l-119 71q69 127 245 127q108 0 170 -56t62 -159v-331h-144v66l-2 1q-54 -77 -160 -77zM267 104q49 0 78 29t29 74v12h-94q-35 0 -58 -16t-23 -45q0 -26 18.5 -40t49.5 -14z" />
    <glyph glyph-name="i.loclTRK" horiz-adv-x="301" 
d="M149 817q41 0 69.5 -28t28.5 -69q0 -40 -28.5 -68t-69.5 -28q-39 0 -67.5 28t-28.5 68t28.5 68.5t67.5 28.5zM72 534h157v-534h-157v534z" />
    <glyph glyph-name="uni0414.alt" horiz-adv-x="905" 
d="M717 0h-530v-164h-161v314h67l263 633h193l263 -633h66v-314h-161v164zM264 150h373l-186 466z" />
    <glyph glyph-name="uni041B.alt" horiz-adv-x="782" 
d="M390 600l-217 -600h-173l296 783h191l296 -783h-177z" />
    <glyph glyph-name="uni0434.alt" horiz-adv-x="721" 
d="M686 -164h-144v164h-362v-164h-144v299h63l187 399h160l185 -399h55v-299zM365 375l-106 -240h212z" />
    <glyph glyph-name="uni0438.alt" horiz-adv-x="639" 
d="M67 534h156v-298q0 -102 92 -102q46 0 71 28t25 74v298h156v-534h-154v66h-1q-53 -77 -149 -77q-95 0 -146 60q-50 62 -50 150v335z" />
    <glyph glyph-name="uni0439.alt" horiz-adv-x="639" 
d="M318 618q-80 0 -130.5 48.5t-63.5 134.5l91 16q28 -91 103 -91q74 0 102 91l90 -15q-13 -86 -63 -135t-129 -49zM67 534h156v-298q0 -102 92 -102q46 0 71 28t25 74v298h156v-534h-154v66h-1q-53 -77 -149 -77q-95 0 -146 60q-50 62 -50 150v335z" />
    <glyph glyph-name="uni043B.alt" horiz-adv-x="623" 
d="M312 356l-132 -356h-166l219 534h159l216 -534h-165z" />
    <glyph glyph-name="uni043F.alt" horiz-adv-x="639" 
d="M572 0h-155v296q0 48 -24 76t-69 28q-46 0 -71 -29t-25 -75v-296h-156v534h155v-70h1q20 33 53 52q49 28 98 28q96 0 144 -61q49 -61 49 -151v-332z" />
    <glyph glyph-name="uni0446.alt" horiz-adv-x="679" 
d="M413 0v66h-1q-53 -77 -149 -77q-97 0 -147 60q-49 59 -49 150v335h156v-298q0 -102 92 -102q46 0 71 28t25 74v298h156v-399h68v-299h-145v164h-77z" />
    <glyph glyph-name="uni0448.alt" horiz-adv-x="971" 
d="M310 134q45 0 70 27.5t25 73.5v299h156v-297q0 -103 86 -103q46 0 71 27.5t25 75.5v297h155v-534h-152v70h-2q-21 -38 -64 -60t-92 -22q-52 0 -93.5 22t-62.5 63q-39 -45 -80.5 -65t-97.5 -20q-91 0 -139 57t-48 155v334h156v-299q0 -101 87 -101z" />
    <glyph glyph-name="uni0449.alt" horiz-adv-x="1010" 
d="M746 0v70h-2q-21 -38 -64 -60t-92 -22q-111 0 -155 85q-40 -45 -81.5 -65t-96.5 -20q-92 0 -140 57t-48 155v334h156v-299q0 -101 87 -101q45 0 70 27.5t25 73.5v299h156v-297q0 -103 86 -103q46 0 71 27.5t25 75.5v297h155v-399h68v-299h-145v164h-75z" />
    <glyph glyph-name="colon.case" horiz-adv-x="364" 
d="M182 455q-43 0 -77 32q-32 32 -32 75q0 46 32 78t77 32q46 0 77 -32t31 -78q0 -44 -32 -76q-31 -31 -76 -31zM182 113q-43 0 -77 32q-32 32 -32 76q0 45 32 77t77 32t76.5 -32t31.5 -77q0 -44 -32 -76t-76 -32z" />
    <glyph glyph-name="exclamdown.case" horiz-adv-x="342" 
d="M171 601q-41 0 -69.5 28.5t-28.5 68.5t28.5 68t69.5 28q39 0 67.5 -28t28.5 -68t-28.5 -68.5t-67.5 -28.5zM86 158l15 354h142l15 -354v-158h-172v158z" />
    <glyph glyph-name="uni2E18.case" horiz-adv-x="563" 
d="M315 601q-41 0 -69.5 28.5t-28.5 69.5q0 40 28.5 68t69.5 28q39 0 67.5 -28t28.5 -68t-28.5 -69t-67.5 -29zM248 227l2 91h-1q-58 -52 -58 -100q0 -39 30.5 -65t81.5 -26q74 0 118 65l120 -79q-38 -60 -101 -92t-141 -32q-111 0 -181 58t-70 154q0 63 28.5 108.5
t93.5 98.5q39 31 56.5 58t17.5 61v12h140l11 -312h-147z" />
    <glyph glyph-name="questiondown.case" horiz-adv-x="572" 
d="M306 602q-41 0 -69.5 28.5t-28.5 69.5q0 40 28.5 68t69.5 28q39 0 67.5 -28t28.5 -68t-28.5 -69t-67.5 -29zM284 136q67 0 103 75l135 -71q-30 -69 -96.5 -109.5t-145.5 -40.5q-106 0 -174 59q-67 60 -67 153q0 61 29 105q31 45 93 95q39 31 56.5 58t17.5 61v7h152v-33
q0 -42 -17 -74t-57 -68l-48 -42q-63 -55 -63 -100q0 -33 23 -54t59 -21z" />
    <glyph glyph-name="semicolon.case" horiz-adv-x="354" 
d="M177 454q-45 0 -76 31t-31 76q0 46 31 77q32 32 76 32q46 0 77.5 -32t31.5 -77q0 -44 -32 -76q-31 -31 -77 -31zM287 196v-5q0 -66 -37.5 -128t-103.5 -107l-59 57q72 47 106 122q-18 -7 -35 -7q-39 0 -64 26.5t-25 68.5q0 43 30.5 73.5t73.5 30.5q51 0 82.5 -36
t31.5 -95z" />
    <glyph glyph-name="braceleft.case" horiz-adv-x="471" 
d="M432 19v-124h-76q-123 0 -181 52q-57 51 -38 181l15 107q8 52 -16 72t-84 22l-16 1v124h17q57 0 82 21.5t17 72.5l-15 107q-18 127 39 180q59 53 180 53h76v-124h-60q-76 0 -91 -30t-2 -116l13 -88q9 -47 -15 -85t-93 -52v-1q49 -9 74 -34q25 -23 31.5 -47.5t2.5 -57.5
l-13 -87q-13 -87 2 -117t91 -30h60z" />
    <glyph glyph-name="braceright.case" horiz-adv-x="472" 
d="M40 -105v124h59q77 0 93 33q16 34 0 114l-13 87q-8 46 16.5 85t92.5 54v1q-65 11 -90.5 48.5t-18.5 88.5l13 88q17 80 0 113q-16 33 -93 33h-59v124h75q127 0 182 -54t38 -179l-16 -107q-8 -51 17.5 -72.5t82.5 -21.5h17v-124l-17 -1q-59 -2 -83.5 -22.5t-16.5 -71.5
l16 -107q19 -130 -39 -181q-56 -52 -181 -52h-75z" />
    <glyph glyph-name="bracketleft.case" horiz-adv-x="453" 
d="M227 764v-745h188v-124h-324v993h324v-124h-188z" />
    <glyph glyph-name="bracketright.case" horiz-adv-x="453" 
d="M39 764v124h323v-993h-323v124h188v745h-188z" />
    <glyph glyph-name="parenleft.case" horiz-adv-x="418" 
d="M189 410v-37q0 -244 206 -394l-68 -93q-136 76 -208 199.5t-72 287.5v37q0 164 72 287.5t208 199.5l68 -93q-206 -150 -206 -394z" />
    <glyph glyph-name="parenright.case" horiz-adv-x="418" 
d="M92 -114l-69 93q206 150 206 394v37q0 244 -206 394l69 93q136 -76 207.5 -199.5t71.5 -287.5v-37q0 -164 -71.5 -287.5t-207.5 -199.5z" />
    <glyph glyph-name="emdash.case" horiz-adv-x="1007" 
d="M67 319v151h872v-151h-872z" />
    <glyph glyph-name="endash.case" horiz-adv-x="624" 
d="M67 319v151h489v-151h-489z" />
    <glyph glyph-name="hyphen.case" horiz-adv-x="464" 
d="M67 319v155h330v-155h-330z" />
    <glyph glyph-name="guillemotleft.case" horiz-adv-x="691" 
d="M209 388l150 -146l-86 -83l-232 230l233 230l84 -83zM484 388l150 -146l-85 -83l-233 230l234 230l84 -83z" />
    <glyph glyph-name="guillemotright.case" horiz-adv-x="691" 
d="M375 389l-232 -230l-86 83l150 146l-149 148l84 83zM651 389l-233 -230l-85 83l149 146l-149 148l84 83z" />
    <glyph glyph-name="guilsinglleft.case" horiz-adv-x="416" 
d="M208 388l150 -146l-85 -83l-232 230l233 230l84 -83z" />
    <glyph glyph-name="guilsinglright.case" horiz-adv-x="416" 
d="M375 389l-233 -230l-85 83l150 146l-150 148l85 83z" />
    <glyph glyph-name="cent.alt" horiz-adv-x="639" 
d="M452 211l138 -57q-51 -131 -192 -160v-96h-137v98q-98 23 -156 95q-59 74 -59 175q0 100 60 173q62 76 155 98v100h137v-97q69 -14 118.5 -55.5t69.5 -103.5l-137 -57q-34 79 -115 79q-55 0 -91.5 -37t-36.5 -98q0 -60 35.5 -98t92.5 -38q84 0 118 79z" />
    <glyph glyph-name="dollar.alt" horiz-adv-x="652" 
d="M612 230q0 -91 -55.5 -154t-153.5 -81v-107h-150v106q-83 15 -144 61.5t-90 116.5l140 72q24 -52 68 -80.5t103 -28.5q52 0 85.5 23.5t33.5 59.5q0 35 -31 54q-31 22 -117 47q-136 41 -191 95q-60 58 -60 145t57 148t146 81v103h150v-104q142 -33 195 -161l-134 -73
q-41 96 -148 96q-47 0 -75.5 -22t-28.5 -58q0 -34 28.5 -55.5t97.5 -40.5q144 -41 209 -96.5t65 -146.5z" />
    <glyph glyph-name="brevecyr" horiz-adv-x="557" 
d="M287 618q-80 0 -130.5 48.5t-63.5 134.5l91 16q28 -91 103 -91q74 0 102 91l90 -15q-14 -88 -63.5 -136t-128.5 -48z" />
    <glyph glyph-name="zero.slash.osf" horiz-adv-x="725" 
d="M362 -10q-137 0 -225 88t-88 228q0 134 86 225q87 90 229 90q141 0 226 -90q86 -91 86 -225t-87 -225t-227 -91zM362 471q-73 0 -113.5 -46.5t-40.5 -118.5q0 -47 17 -83l173 244q-13 4 -36 4zM516 306q0 42 -17 81l-171 -243q16 -3 34 -3q73 0 113.5 46.5t40.5 118.5z
M224 221v3q-2 3 0 -3z" />
    <glyph glyph-name="zero.osf" horiz-adv-x="725" 
d="M362 -10q-137 0 -225 88t-88 228q0 134 86 225q87 90 229 90q141 0 226 -90q86 -91 86 -225t-87 -225t-227 -91zM362 467q-73 0 -112 -47q-38 -47 -38 -114q0 -68 39 -115q39 -46 111 -46t111 46q39 47 39 115t-39 114q-39 47 -111 47z" />
    <glyph glyph-name="one.osf" horiz-adv-x="490" 
d="M236 414l-158 -96l-75 130l261 162h134v-610h-162v414z" />
    <glyph glyph-name="two.osf" horiz-adv-x="659" 
d="M595 388q0 -70 -47 -121t-147 -99l-48 -23v-1h251v-144h-541v131l268 145q100 54 100 110q0 36 -29.5 62t-75.5 26q-90 0 -131 -96l-147 62q28 88 107 135q79 48 167 48q125 0 199 -68t74 -167z" />
    <glyph glyph-name="three.osf" horiz-adv-x="661" 
d="M611 51q0 -102 -81 -169q-82 -68 -202 -68q-104 0 -181 43t-112 124l142 73q20 -43 61 -66.5t94 -23.5q52 0 83.5 25t31.5 66q0 44 -30.5 68t-84.5 24h-83v150h74q51 0 80.5 24t29.5 64q0 38 -30.5 61.5t-82.5 23.5q-88 0 -128 -87l-145 69q33 81 106.5 125t172.5 44
q119 0 195 -62q75 -62 75 -163q0 -108 -107 -165v-1q64 -27 93 -70t29 -109z" />
    <glyph glyph-name="four.osf" horiz-adv-x="729" 
d="M419 0h-388v159l351 451h193v-464h111v-146h-109l-2 -172h-158zM417 424l-217 -278h217v278z" />
    <glyph glyph-name="five.osf" horiz-adv-x="659" 
d="M613 89q0 -123 -83 -197t-209 -74q-203 0 -282 153l138 82q45 -84 148 -84q56 0 90.5 31.5t34.5 84.5q0 51 -35.5 81.5t-95.5 30.5t-107 -46l-152 62l57 397h461v-147h-332l-25 -176q64 52 141 52q108 0 179 -66q72 -65 72 -184z" />
    <glyph glyph-name="six.osf" horiz-adv-x="695" 
d="M221 430q68 80 173 80q113 0 183 -73q72 -72 72 -176q0 -124 -88 -197q-89 -74 -204 -74q-155 0 -241 110q-66 86 -66 266q0 192 91 310t263 118q122 0 222 -78l-84 -124q-69 54 -141 54q-87 0 -132 -62q-44 -62 -48 -154zM221 256q0 -51 40 -85q41 -35 94 -35
q56 0 93 34q38 35 38 85q0 53 -37 85.5t-95 32.5q-56 0 -94.5 -32t-38.5 -85z" />
    <glyph glyph-name="seven.osf" horiz-adv-x="632" 
d="M419 464h-388v147h574v-140l-346 -644h-183z" />
    <glyph glyph-name="eight.osf" horiz-adv-x="686" 
d="M635 221q0 -105 -84 -168t-209 -63q-124 0 -208 63q-84 65 -84 165q0 128 137 188v1q-55 22 -88 68.5t-33 105.5q0 92 76 153t201 61q124 0 200 -61t76 -153q0 -59 -33 -105.5t-88 -68.5v-1q137 -59 137 -185zM457 561q0 43 -32 70.5t-83 27.5q-50 0 -82 -27.5t-32 -69.5
q0 -43 33.5 -70.5t80.5 -27.5t81 27t34 70zM472 231q0 45 -39 71q-40 26 -90 26q-54 0 -92 -26.5t-38 -70.5q0 -45 36 -75t92 -30q59 0 95 29.5t36 75.5z" />
    <glyph glyph-name="nine.osf" horiz-adv-x="695" 
d="M478 183q-71 -83 -176 -83q-112 0 -184 73t-72 178q0 124 88 197q88 75 204 75q78 0 139.5 -30t100.5 -80q67 -86 67 -271q0 -192 -88 -307q-87 -116 -255 -116q-128 0 -228 78l84 125q69 -54 144 -54q86 0 129 61q42 60 47 154zM474 355q0 50 -41 86t-93 36
q-54 0 -93 -36q-38 -35 -38 -85q0 -54 36.5 -87t94.5 -33q53 0 94 32q40 33 40 87z" />
    <glyph glyph-name="zero.slash.tosf" 
d="M341 621q135 0 221 -89t86 -226t-87 -227q-86 -89 -222 -89q-135 0 -221 89t-86 226t86 226q86 90 223 90zM340 472q-74 0 -112 -50q-37 -49 -37 -117q0 -42 15 -78l170 241q-20 4 -36 4zM489 304q0 42 -15 79l-169 -241q16 -3 35 -3q74 0 111 49q38 50 38 116z" />
    <glyph glyph-name="zero.tosf" 
d="M341 621q135 0 221 -89t86 -226t-87 -227q-86 -89 -222 -89q-135 0 -221 89t-86 226t86 226q86 90 223 90zM196 305q0 -64 37 -111q37 -48 107 -48q69 0 107 47q37 47 37 111q0 65 -36 113q-36 49 -108 49t-108 -48t-36 -113z" />
    <glyph glyph-name="one.tosf" 
d="M54 489l254 121h132v-465h183v-145h-554v145h212v286l-166 -76z" />
    <glyph glyph-name="two.tosf" 
d="M607 388q0 -70 -47 -121t-147 -99l-48 -23v-1h251v-144h-541v131l268 145q100 54 100 110q0 36 -29.5 62t-75.5 26q-91 0 -131 -96l-147 62q28 88 107 135q80 48 167 48q125 0 199 -68t74 -167z" />
    <glyph glyph-name="three.tosf" 
d="M624 51q0 -102 -81 -169q-82 -68 -202 -68q-104 0 -181 43t-112 124l142 73q20 -43 61 -66.5t94 -23.5q52 0 83.5 25t31.5 66q0 44 -30.5 68t-84.5 24h-83v150h74q51 0 80.5 24t29.5 64q0 38 -30.5 61.5t-82.5 23.5q-87 0 -128 -87l-145 69q33 81 106.5 125t172.5 44
q119 0 195 -62q75 -62 75 -163q0 -108 -107 -165v-1q64 -27 93 -70t29 -109z" />
    <glyph glyph-name="four.tosf" 
d="M416 0h-386v159l349 451h193v-464h79v-146h-77l-2 -172h-158zM414 424l-215 -278h215v278z" />
    <glyph glyph-name="five.tosf" 
d="M625 89q0 -123 -83 -197t-209 -74q-203 0 -282 153l138 82q45 -84 148 -84q56 0 90.5 31.5t34.5 84.5q0 51 -35.5 81.5t-95.5 30.5t-107 -46l-152 62l57 397h461v-147h-332l-25 -176q64 52 141 52q109 0 179 -66q72 -65 72 -184z" />
    <glyph glyph-name="six.tosf" 
d="M211 430q68 80 173 80q113 0 183 -73q72 -72 72 -176q0 -124 -88 -197q-89 -74 -204 -74q-78 0 -140.5 30t-100.5 80q-66 86 -66 266q0 192 91 310t263 118q122 0 222 -78l-84 -124q-69 54 -141 54q-87 0 -132 -62q-44 -62 -48 -154zM211 256q0 -51 40 -85q41 -35 94 -35
q56 0 93 34q38 35 38 85q0 53 -37 85.5t-95 32.5q-56 0 -94.5 -32t-38.5 -85z" />
    <glyph glyph-name="seven.tosf" 
d="M441 464h-388v147h574v-140l-346 -644h-183z" />
    <glyph glyph-name="eight.tosf" 
d="M633 221q0 -105 -84 -168t-209 -63q-124 0 -208 63q-84 65 -84 165q0 128 137 188v1q-55 22 -88 68.5t-33 105.5q0 92 76 153t201 61q124 0 200 -61t76 -153q0 -59 -33 -105.5t-88 -68.5v-1q137 -59 137 -185zM455 561q0 43 -32 70.5t-83 27.5q-50 0 -82 -27.5t-32 -69.5
q0 -43 33.5 -70.5t80.5 -27.5t81 27t34 70zM470 231q0 45 -39 71q-40 26 -90 26q-54 0 -92 -26.5t-38 -70.5q0 -45 36 -75t92 -30q59 0 95 29.5t36 75.5z" />
    <glyph glyph-name="nine.tosf" horiz-adv-x="690" 
d="M472 183q-71 -83 -176 -83q-112 0 -184 73t-72 178q0 124 88 197q88 75 204 75q78 0 139.5 -30t100.5 -80q67 -86 67 -271q0 -192 -88 -307q-87 -116 -255 -116q-128 0 -228 78l84 125q69 -54 144 -54q86 0 129 61q42 60 47 154zM468 355q0 50 -41 86t-93 36
q-54 0 -93 -36q-38 -35 -38 -85q0 -54 36.5 -87t94.5 -33q53 0 94 32q40 33 40 87z" />
    <glyph glyph-name="zero.slash.tf" 
d="M341 795q81 0 142 -33t95.5 -90t51.5 -126t17 -150q0 -64 -10 -122t-33.5 -110.5t-58.5 -90.5t-88 -60.5t-118 -22.5q-83 0 -144 33t-95.5 91t-50.5 127t-16 151q0 64 10 121.5t33 109.5t57.5 90t87.5 60t120 22zM194 394q0 -52 6 -88l220 310q-34 28 -80 28
q-146 0 -146 -250zM480 480l-219 -312q34 -26 79 -26q145 0 145 252q0 46 -5 86z" />
    <glyph glyph-name="zero.tf" 
d="M341 795q81 0 142 -33t95.5 -90t51.5 -126t17 -150q0 -64 -10 -122t-33.5 -110.5t-58.5 -90.5t-88 -60.5t-118 -22.5q-83 0 -144 33t-95.5 91t-50.5 127t-16 151q0 64 10 121.5t33 109.5t57.5 90t87.5 60t120 22zM196 394q0 -248 144 -248q143 0 143 248q0 246 -143 246
q-144 0 -144 -246z" />
    <glyph glyph-name="one.tf" 
d="M52 661l256 122h133v-635h187v-148h-562v148h213v453l-167 -78z" />
    <glyph glyph-name="two.tf" 
d="M54 0v142l273 224q71 58 101 96q28 35 28 79q0 42 -32 72t-80 30q-97 0 -136 -98l-149 63q29 93 106 139q79 48 180 48q126 0 202 -73q76 -72 76 -180q0 -84 -45 -142q-42 -57 -157 -147l-132 -105h338v-148h-573z" />
    <glyph glyph-name="three.tf" 
d="M623 225q0 -103 -81 -170q-80 -67 -202 -67q-104 0 -181 43t-112 124l142 73q20 -43 61 -66.5t94 -23.5q52 0 83.5 25t31.5 66q0 44 -30.5 68t-84.5 24h-83v150h74q51 0 80.5 24t29.5 64q0 38 -30.5 61.5t-82.5 23.5q-88 0 -128 -87l-145 69q33 81 106.5 125t172.5 44
q119 0 195 -62q75 -61 75 -163q0 -108 -107 -165v-1q64 -27 93 -70t29 -109z" />
    <glyph glyph-name="four.tf" 
d="M416 155h-386v159l349 469h193v-482h79v-145h-77l-2 -156h-158zM414 592l-216 -291h216v291z" />
    <glyph glyph-name="five.tf" 
d="M625 261q0 -124 -83 -198q-82 -73 -209 -73q-203 0 -282 153l138 82q45 -84 148 -84q56 0 90.5 31.5t34.5 84.5q0 51 -35.5 81.5t-95.5 30.5t-107 -46l-152 62l57 397h461v-147h-332l-25 -176q64 52 141 52q109 0 179 -66q72 -65 72 -184z" />
    <glyph glyph-name="six.tf" 
d="M211 430q68 80 173 80q113 0 183 -73q72 -72 72 -176q0 -124 -88 -197q-89 -74 -204 -74q-78 0 -140.5 30t-100.5 80q-66 86 -66 266q0 192 91 310t263 118q122 0 222 -78l-84 -124q-69 54 -141 54q-87 0 -132 -62q-44 -62 -48 -154zM211 256q0 -51 40 -85q41 -35 94 -35
q56 0 93 34q38 35 38 85q0 53 -37 85.5t-95 32.5q-56 0 -94.5 -32t-38.5 -85z" />
    <glyph glyph-name="seven.tf" 
d="M441 636h-388v147h574v-139l-346 -644h-183z" />
    <glyph glyph-name="eight.tf" 
d="M633 221q0 -105 -84 -168t-209 -63q-124 0 -208 63q-84 65 -84 165q0 128 137 188v1q-55 22 -88 68.5t-33 105.5q0 92 76 153t201 61q124 0 200 -61t76 -153q0 -59 -33 -105.5t-88 -68.5v-1q137 -59 137 -185zM455 561q0 43 -32 70.5t-83 27.5q-50 0 -82 -27.5t-32 -69.5
q0 -43 33.5 -70.5t80.5 -27.5t81 27t34 70zM470 231q0 45 -39 71q-40 26 -90 26q-54 0 -92 -26.5t-38 -70.5q0 -45 36 -75t92 -30q59 0 95 29.5t36 75.5z" />
    </font>
</defs>
</svg>
